<svg width="225" height="190" viewBox="0 0 225 190" fill="none" xmlns="http://www.w3.org/2000/svg">
<path d="M1.00006 137.941C1.06216 138.018 1.12426 138.095 3.11242 140.562C5.10057 143.028 9.0129 147.881 11.3066 150.411C13.6003 152.941 14.1568 153 14.8063 152.929C16.2001 152.777 17.222 152.336 17.6116 152.023C19.1178 150.817 13.0568 146.362 8.74438 143.081C6.14242 141.764 4.21452 141.131 3.64535 140.821C3.33951 140.681 2.99914 140.574 2.03867 140.185" stroke="#605B51" stroke-width="2" stroke-linecap="round"/>
<path d="M4.86523 141.628C5.20983 142.055 7.62719 145.054 11.1122 149.322C12.7419 151.318 13.6471 151.64 14.4609 152.098C15.0029 152.403 15.6861 152.403 16.2049 152.385C16.4392 152.377 16.5945 152.208 16.6392 152.039C16.846 151.26 15.8696 150.308 14.4267 149.068C12.7898 147.662 12.1624 146.703 11.3657 146.099C10.0437 145.097 9.18893 144.559 8.55252 144.267C6.76925 143.447 12.3757 149.181 13.4574 149.968C13.8901 150.285 14.3588 150.534 14.8345 150.684C15.0742 150.759 15.3103 150.833 15.684 151.072" stroke="#605B51" stroke-width="2" stroke-linecap="round"/>
<path d="M20.4312 8.12785C20.2938 8.23985 20.1561 8.35146 20.0179 8.46253L20.4118 8.23298C20.1212 8.3091 19.9086 8.49035 19.7623 8.7499C19.7283 8.81003 19.6889 8.86771 19.6523 8.92625C19.5751 9.04953 19.4973 9.17247 19.419 9.29504C19.2647 9.53654 19.1079 9.7765 18.9481 10.0144C18.6218 10.5001 18.2822 10.9769 17.9248 11.4403L18.1368 11.1659C17.8694 11.5114 17.6133 11.8661 17.3457 12.2124L17.5705 11.9215C16.8951 12.7919 16.1369 13.598 15.2707 14.2813C15.3845 14.1934 15.4983 14.1055 15.6121 14.0176C15.4047 14.1466 15.2232 14.3207 15.0295 14.4704C15.1445 14.3815 15.2596 14.2926 15.3747 14.2037C14.9543 14.5261 14.5168 14.8302 14.027 15.0372C14.17 14.9769 14.3131 14.9165 14.4561 14.8561C14.1503 14.9826 13.8349 15.0826 13.5257 15.2001C13.2302 15.3123 12.9362 15.4331 12.6512 15.5696C12.4936 15.645 12.3415 15.73 12.1809 15.7993C12.3318 15.7356 12.4827 15.6719 12.6337 15.6082C11.9796 15.8808 11.269 15.9425 10.5917 16.1344C10.2179 16.2404 9.84905 16.3657 9.47789 16.4805C9.10199 16.5966 8.72291 16.7376 8.33269 16.7955L8.85441 16.7254C8.26938 16.8039 7.67083 16.7891 7.09711 16.9479L6.62383 17.1476L6.22286 17.4574L5.91306 17.8584C5.76827 18.0858 5.6899 18.3313 5.67796 18.595C5.63078 18.7706 5.63078 18.9461 5.67796 19.1217C5.67852 19.3005 5.7236 19.4672 5.81321 19.6217C5.86026 19.7895 5.94519 19.9352 6.06797 20.0588C6.20767 20.2745 6.39297 20.4446 6.62385 20.5691C7.26094 20.9211 7.82353 21.3898 8.43825 21.7772C9.00701 22.1357 9.63124 22.3976 10.1663 22.8101C10.0317 22.7061 9.89714 22.6021 9.76255 22.4982C10.0415 22.7174 10.2818 22.9714 10.4992 23.2512C10.3952 23.1166 10.2912 22.982 10.1872 22.8474C10.6172 23.4079 11.0039 24.002 11.4971 24.5113C11.8603 24.8863 12.2451 25.2414 12.568 25.6534C12.464 25.5188 12.36 25.3842 12.2561 25.2496C12.4613 25.5161 12.6173 25.8066 12.7883 26.0948C12.9541 26.3745 13.1325 26.6464 13.3111 26.918C13.6633 27.4536 14.0121 27.9921 14.2654 28.5832C14.1983 28.4244 14.1313 28.2655 14.0642 28.1067C14.2093 28.452 14.3104 28.8061 14.3851 29.1728C14.4627 29.5534 14.5246 29.9386 14.6438 30.3093C14.7113 30.5196 14.7844 30.7291 14.8599 30.9366C15.0006 31.323 15.1494 31.7142 15.3486 32.0746C15.3807 32.1327 15.4149 32.1896 15.453 32.244C15.5766 32.4201 15.7069 32.6002 15.8532 32.759C15.9977 32.916 16.1815 33.0503 16.3569 33.1604C16.3753 33.172 16.3934 33.1827 16.4125 33.1931C16.4842 33.2318 16.7405 33.3317 16.6669 33.3007C16.7462 33.3342 16.8454 33.3841 16.9376 33.4122C17.2911 33.5072 17.6447 33.5072 17.9983 33.4122C18.3363 33.3174 18.6297 33.1464 18.8786 32.8992C19.0989 32.6475 19.3197 32.3722 19.4719 32.0703C19.633 31.751 19.7682 31.4148 19.885 31.0764C20.0118 30.7089 20.1084 30.3309 20.2588 29.9718L20.0577 30.4484C20.3175 29.8432 20.685 29.2829 21.0847 28.7614C20.9807 28.896 20.8767 29.0305 20.7727 29.1651C21.2806 28.5097 21.8904 27.946 22.545 27.4398C22.4104 27.5438 22.2758 27.6478 22.1412 27.7518C22.7551 27.2799 23.4042 26.8572 24.0573 26.4423C24.7447 26.0057 25.4449 25.6132 26.196 25.2959L25.7195 25.4971C26.52 25.1617 27.3459 24.9202 28.172 24.6595C28.996 24.3994 29.7943 24.038 30.6562 23.9168C30.4794 23.9405 30.3026 23.9643 30.1258 23.9881C30.4206 23.9495 30.716 23.9416 31.0119 23.9736V19.9835C30.9499 19.9813 30.8887 19.9762 30.8273 19.9682C31.0041 19.9919 31.1808 20.0157 31.3576 20.0395C31.2164 20.0177 31.0812 19.9792 30.9489 19.925L31.4255 20.1261C31.2419 20.0467 31.0737 19.9414 30.9147 19.8205L31.3184 20.1325C30.9362 19.8354 30.6169 19.4677 30.2645 19.1377C29.858 18.7571 29.4254 18.4065 28.992 18.0574C28.1193 17.3546 27.3334 16.5732 26.5658 15.7584C26.1427 15.3093 25.7077 14.8689 25.3296 14.3803C25.4336 14.5149 25.5376 14.6494 25.6416 14.784C25.3662 14.424 25.1211 14.0415 24.9398 13.6251L25.141 14.1016C25.02 13.8126 24.9535 13.51 24.9102 13.2006C24.9339 13.3773 24.9577 13.5541 24.9815 13.7309C24.9172 13.2503 24.8754 12.768 24.7983 12.2888C24.7287 11.8566 24.5686 11.449 24.3602 11.0631C24.1261 10.6296 23.7652 10.2764 23.5655 9.82287C23.6325 9.98173 23.6996 10.1406 23.7666 10.2995C23.7069 10.1567 23.6687 10.011 23.6462 9.85795C23.67 10.0347 23.6937 10.2115 23.7175 10.3883C23.6831 10.1219 23.6989 9.85267 23.6675 9.58615C23.6343 9.3043 23.6157 8.98802 23.5097 8.71516C23.4313 8.51347 23.3463 8.27992 23.2322 8.08356C23.1824 7.99837 23.1233 7.91948 23.0551 7.8469C23.0059 7.75856 22.9439 7.68215 22.8689 7.61769L22.4673 7.30742C22.445 7.29327 22.4224 7.27981 22.3994 7.26702C22.1756 7.12454 21.934 7.04743 21.6745 7.03566C21.4154 6.97762 21.1562 6.98924 20.8971 7.07049L20.4313 7.26702C20.2041 7.38954 20.0218 7.55692 19.8843 7.76916C19.7635 7.89079 19.6799 8.03418 19.6336 8.19932C19.5115 8.43166 19.4556 8.68204 19.4657 8.95048C19.4881 9.45129 19.6516 9.98336 20.0367 10.3291C20.4775 10.7248 21.0797 11.167 21.7073 11.1182C21.3027 10.9506 20.8981 10.783 20.4935 10.6154L20.522 10.6464C20.6775 10.8138 20.8616 10.9321 21.0745 11.0013C21.279 11.1088 21.4995 11.1581 21.7359 11.1492C21.9722 11.1581 22.1927 11.1088 22.3973 11.0013C22.6101 10.9321 22.7942 10.8138 22.9497 10.6464C23.25 10.3192 23.473 9.88972 23.4525 9.43253C23.4316 8.96653 23.2687 8.56515 22.9497 8.21867L22.9212 8.1877C23.0684 8.74444 23.2155 9.30119 23.3627 9.85793C23.4281 9.55044 23.4358 9.41297 23.3988 9.13743C23.38 8.99785 23.3748 8.94105 23.347 8.8313C23.3309 8.76773 23.3195 8.70334 23.3103 8.63844C23.3325 8.80385 23.3548 8.96926 23.377 9.13466C23.3698 9.07328 23.366 9.0123 23.365 8.95054C22.0884 9.1233 20.8119 9.29606 19.5353 9.46882C19.598 9.74231 19.7436 9.98196 19.8563 10.2354C19.7893 10.0765 19.7222 9.91764 19.6552 9.75878C19.7002 9.86908 19.7291 9.98173 19.7466 10.0995C19.7228 9.92269 19.699 9.74592 19.6753 9.56912C19.7085 9.82832 19.6927 10.0907 19.7225 10.3502C19.7559 10.6414 19.7762 10.9544 19.8715 11.2365C19.9615 11.503 20.0718 11.7672 20.2073 12.0143C20.4457 12.4487 20.8054 12.8039 21.0043 13.2619C20.9373 13.1031 20.8702 12.9442 20.8032 12.7853C20.9008 13.0214 20.9421 13.2723 20.9762 13.5243L20.9049 12.9939C20.9818 13.5878 21.0078 14.1967 21.1617 14.7771C21.2581 15.1407 21.417 15.4921 21.5817 15.8286C21.6749 16.0188 21.7818 16.2022 21.8978 16.3793C22.4539 17.2284 23.1556 17.9569 23.8493 18.6911C24.4454 19.322 25.051 19.9481 25.7153 20.5082C26.3822 21.0704 27.0806 21.5906 27.7003 22.2073C27.8401 22.3465 27.9771 22.4886 28.1197 22.625C28.3803 22.8744 28.6667 23.0954 28.9575 23.3084C29.2497 23.5224 29.5841 23.6549 29.9206 23.7858C30.2634 23.9193 30.6481 23.9603 31.0119 23.9736C31.2866 23.984 31.5428 23.9267 31.7806 23.8018C32.0279 23.7213 32.2419 23.5838 32.4226 23.3893C32.6172 23.2086 32.7547 22.9945 32.8351 22.7472C32.96 22.5095 33.0173 22.2533 33.007 21.9786C32.9838 21.4626 32.8144 20.9275 32.4226 20.5679C32.288 20.4639 32.1534 20.3599 32.0189 20.2559C31.7077 20.0755 31.372 19.9847 31.0119 19.9835C30.723 19.9523 30.4347 19.9592 30.1466 19.9953C29.6928 20.0521 29.2539 20.1134 28.8151 20.2388C28.266 20.3956 27.7358 20.6101 27.1929 20.7859C26.6496 20.9618 26.0994 21.1126 25.5604 21.3027C24.871 21.5459 24.1904 21.8251 23.5326 22.144C23.0278 22.3887 22.5503 22.6754 22.0771 22.9757C21.6211 23.2652 21.1667 23.5576 20.7246 23.8681C19.723 24.5716 18.7351 25.3422 17.976 26.3119C17.4847 26.9395 16.9967 27.5856 16.6648 28.3152C16.4816 28.7181 16.3211 29.1227 16.1893 29.544C16.1055 29.8117 16.023 30.08 15.9148 30.3392C15.9819 30.1803 16.0489 30.0215 16.116 29.8626C16.0336 30.0547 15.9371 30.2389 15.8095 30.4049C15.9134 30.2704 16.0174 30.1358 16.1214 30.0012C16.1005 30.0272 16.0793 30.0526 16.0573 30.0777C16.7043 29.9067 17.3513 29.7357 17.9983 29.5647C17.9873 29.5617 17.9765 29.558 17.9659 29.5537C18.1247 29.6207 18.2836 29.6878 18.4425 29.7548C18.408 29.7397 18.3774 29.7206 18.3474 29.6978L18.7512 30.0097C18.6997 29.9675 18.656 29.9187 18.6153 29.8661L18.9273 30.2699C18.8051 30.1055 18.7164 29.9191 18.6362 29.7315L18.8373 30.2081C18.6493 29.7617 18.4818 29.2864 18.3747 28.8143C18.2972 28.4724 18.244 28.1252 18.16 27.7847C18.0402 27.2997 17.8373 26.833 17.6274 26.3821C17.3626 25.8136 17.0113 25.2933 16.6684 24.7701C16.4967 24.5082 16.3272 24.2445 16.1705 23.9732C16.0894 23.8327 16.014 23.6893 15.9262 23.5527C15.7503 23.2789 15.5425 23.0214 15.3396 22.769C14.8871 22.2057 14.3156 21.7515 13.8731 21.1797L14.185 21.5835C13.8329 21.123 13.5127 20.6388 13.1332 20.1992C13.0011 20.0462 12.8577 19.9034 12.703 19.7732C12.4438 19.5548 12.1726 19.3438 11.8891 19.1568C11.568 18.945 11.2253 18.7689 10.8877 18.5854C10.5225 18.387 10.1793 18.1568 9.83973 17.9179C9.44646 17.6411 9.0524 17.368 8.62379 17.1476C8.46603 18.3547 8.30829 19.5618 8.15052 20.7688C8.30667 20.7205 8.46555 20.6902 8.62737 20.6684C8.45246 20.6919 8.27754 20.7154 8.10263 20.7389C8.57842 20.6791 9.06244 20.6573 9.5308 20.5494C9.84864 20.4763 10.159 20.3515 10.4673 20.2461C11.0728 20.0392 11.6698 19.818 12.2933 19.6705C12.5744 19.604 12.8567 19.5412 13.1328 19.4557C13.2656 19.4145 13.396 19.3671 13.5248 19.3148C13.8 19.203 14.1041 19.0891 14.3639 18.9336C14.6205 18.7801 14.8701 18.6255 15.139 18.4928C15.3987 18.3647 15.6617 18.2429 15.9124 18.0976C16.3116 17.8663 16.6724 17.5695 17.0205 17.2681C17.1356 17.1684 17.2485 17.0661 17.359 16.9614C17.4143 16.9091 17.469 16.8561 17.523 16.8026C17.6719 16.6554 17.7902 16.4951 17.9196 16.3251L17.6559 16.6665C18.2194 16.0653 18.7289 15.4057 19.1853 14.72C19.3784 14.4298 19.5609 14.1325 19.7341 13.83C19.8229 13.6749 19.9093 13.5185 19.9934 13.3608C20.1243 13.1156 20.2833 12.8529 20.3578 12.5879L20.2196 12.9152C20.4907 12.3024 20.7441 11.6818 20.9739 11.0524C21.0686 10.7928 21.1599 10.5318 21.2484 10.2699C21.3403 9.9979 21.4172 9.71817 21.5188 9.44974L21.4229 9.67695C21.499 9.51156 21.5771 9.35249 21.5686 9.16249C21.56 8.97143 21.5034 8.816 21.4198 8.64318C21.4604 8.79335 21.501 8.94351 21.5416 9.09369C21.5351 8.92208 21.5279 8.75051 21.5202 8.57896C21.5086 8.32112 21.3692 8.09773 21.128 7.99595C20.876 7.88958 20.6359 7.96097 20.4312 8.12785Z" fill="#605B51"/>
<path d="M5.36499 39.2078C5.50875 40.0559 5.65915 40.9023 5.79906 41.7511C5.94254 42.6216 6.08476 43.4912 6.23926 44.3598C6.32624 44.8487 6.40484 45.339 6.47154 45.8311C6.45628 45.7176 6.44101 45.604 6.42577 45.4904C6.48477 45.9311 6.53411 46.3729 6.56898 46.8162C6.60302 47.2488 6.61456 47.6825 6.64234 48.1155C6.6557 48.3236 6.67328 48.53 6.75117 48.7242C6.84552 48.9593 6.92545 49.1514 7.10622 49.3321C7.25711 49.483 7.47576 49.6112 7.67974 49.6609C7.88724 49.7115 8.1026 49.7182 8.30874 49.6568C8.61509 49.5656 8.90374 49.3594 9.06454 49.0798C9.13886 48.9505 9.19568 48.8057 9.24399 48.6635C9.34287 48.3722 9.32923 48.0201 9.30294 47.7129C9.28438 47.4959 9.26182 47.2792 9.23572 47.063C9.11732 46.0818 8.94998 45.1101 8.73538 44.1455C8.63782 43.7071 8.54322 43.2643 8.42134 42.8318C8.3013 42.4059 8.16429 41.984 8.03268 41.5615C7.73694 40.6122 7.44184 39.6668 7.19929 38.7021C7.07792 38.2194 6.5105 37.882 6.02929 38.0378C5.79914 38.1123 5.57712 38.2549 5.46088 38.4749C5.33468 38.7137 5.31998 38.9423 5.36499 39.2078Z" fill="#605B51"/>
<path d="M2.83242 45.5521C3.87701 45.2011 4.92824 44.8864 5.9919 44.5984C6.52443 44.4543 7.05807 44.3143 7.59262 44.1778C8.12152 44.0428 8.64401 43.8892 9.16929 43.7409C9.76028 43.5741 10.3569 43.4231 10.9663 43.3409L10.6423 43.3844C11.0599 43.3306 11.4777 43.3335 11.8976 43.3155C12.4788 43.2906 13.1423 43.2312 13.6444 42.9078L11.9425 41.2059C11.9025 41.2803 11.872 41.3522 11.8384 41.4319C11.7501 41.6411 11.7243 41.8441 11.7545 42.069C11.7929 42.3551 11.9071 42.5801 12.1016 42.7878C12.242 42.9377 12.4418 43.0333 12.6352 43.0912C13.0621 43.2189 13.5157 43.0734 13.8314 42.775C13.8532 42.7546 13.8747 42.7341 13.8961 42.7133C14.0932 42.5241 14.2026 42.2645 14.2383 41.9991C14.2739 41.7339 14.24 41.4376 14.0907 41.2059C13.9747 41.026 13.8243 40.8756 13.6444 40.7596C13.3778 40.5877 12.9861 40.5546 12.6859 40.6342C12.4037 40.7091 12.1374 40.8033 11.8456 40.843L12.1778 40.7983C11.8669 40.8376 11.5538 40.8478 11.2416 40.8722C10.8272 40.9045 10.4126 40.9637 10.0059 41.0504C9.37382 41.1852 8.75854 41.3867 8.14631 41.5912C6.89562 42.009 5.65831 42.4653 4.42875 42.9417C3.73159 43.2117 3.03039 43.4708 2.33293 43.7401C2.09792 43.8309 1.90297 43.9471 1.77145 44.1719C1.6536 44.3733 1.60368 44.6701 1.67674 44.8959C1.75031 45.1232 1.89118 45.3425 2.1085 45.4573C2.3251 45.5718 2.59253 45.6326 2.83242 45.5521Z" fill="#605B51"/>
<path d="M82.0655 38.5475C80.8226 40.7 80.0283 42.8852 79.1305 45.2231C78.7132 46.3097 78.3232 47.408 77.8867 48.4871C77.8646 48.5418 77.6749 48.9919 77.8392 48.6083C77.7821 48.7415 77.7244 48.8745 77.6653 49.0068C77.5467 49.2725 77.4236 49.5361 77.2952 49.7972C77.0062 50.3847 76.6856 50.9561 76.3646 51.5265C75.1442 53.6955 73.8334 55.8124 72.4801 57.9005C71.7746 58.9891 71.0625 60.0742 70.3341 61.1475C70.2288 61.3027 69.6589 62.0182 70.1461 61.4376C70.0144 61.5945 69.8892 61.756 69.7536 61.9098C69.4163 62.2923 69.0586 62.6548 68.6767 62.9928C68.4676 63.1779 68.251 63.3531 68.0344 63.5293C67.6719 63.8243 68.4979 63.1816 68.1185 63.4656C67.9806 63.5688 67.8431 63.6727 67.7044 63.7749C67.1213 64.2044 66.5457 64.6413 66.0195 65.14C65.1386 65.9749 64.3535 66.908 63.3918 67.6554L63.8941 67.2674C63.4286 67.6171 62.9327 67.904 62.3983 68.1351L62.9999 67.8813C62.1384 68.2351 61.2343 68.4247 60.3144 68.5508C60.5427 68.5201 60.771 68.4894 60.9994 68.4587C59.2093 68.6925 57.3593 68.7246 55.6259 69.2679C54.9997 69.4642 54.3467 69.8969 54.031 70.4943C53.7201 71.0827 53.493 71.9053 53.762 72.5506C54.0576 73.2596 54.2414 73.6195 54.7505 74.2052C54.9266 74.4078 55.1223 74.5911 55.3214 74.7707C55.7556 75.1621 56.1557 75.5589 56.5553 75.985C57.5038 76.9962 58.7561 77.5408 59.8376 78.3694L59.2848 77.9423C60.2004 78.6675 60.9505 79.5713 61.8383 80.3274C62.4196 80.8225 63.0397 81.3275 63.7351 81.6583C64.7066 82.1205 65.5562 82.3474 66.6315 82.4289C65.8269 81.9674 65.0224 81.5059 64.2178 81.0444L64.2582 81.1392L63.9764 80.4712C64.0792 80.7424 64.1415 81.0183 64.1816 81.3052L64.0814 80.5596C64.2118 81.6942 64.0278 82.8347 63.9922 83.9694C63.9449 85.4777 64.3188 86.9907 64.6542 88.4525C64.9721 89.8383 65.2349 91.2495 65.5937 92.6243C65.9902 94.1435 66.6766 95.5779 67.2854 97.019L67.0017 96.3467C67.5141 97.5665 67.9061 98.8135 68.3053 100.073C68.7709 101.543 69.2926 102.981 69.9061 104.396C70.4412 105.631 71.1326 106.766 71.8915 107.874C72.6367 108.962 73.3415 110.097 74.1238 111.157C75.0629 112.429 76.2064 113.512 77.176 114.756L76.7554 114.212C77.1265 114.7 77.4299 115.203 77.6709 115.767L77.4018 115.129C77.7515 115.976 78.0271 116.88 78.5194 117.658C78.9934 118.407 79.6018 119.017 80.2367 119.623C80.7443 120.107 81.1507 120.652 81.6082 121.18C82.3126 121.994 83.1621 122.81 84.216 123.127C85.2459 123.437 86.3873 123.182 87.1543 122.416C87.9643 121.606 88.1488 120.484 87.9513 119.399L88.0373 120.039L88.0473 119.958C88.117 119.389 87.728 118.641 87.3421 118.255C86.9245 117.838 86.2394 117.523 85.6397 117.55C85.0171 117.578 84.3713 117.783 83.9373 118.255C83.4767 118.757 83.3145 119.287 83.2322 119.958L83.2222 120.039L83.5509 118.823C83.4175 119.071 83.329 119.339 83.2204 119.597L83.4679 119.011C83.435 119.08 83.3992 119.144 83.3546 119.206L83.7443 118.701C83.7143 118.737 83.6853 118.767 83.6498 118.798L84.1587 118.405C84.1249 118.428 84.0945 118.446 84.0566 118.462L84.6617 118.207C84.6384 118.215 84.6145 118.221 84.5899 118.224L85.2665 118.134C85.2274 118.137 85.1935 118.136 85.1544 118.132C85.3815 118.162 85.6087 118.193 85.8358 118.224C85.7507 118.207 85.6681 118.185 85.5872 118.153L86.2033 118.413C86.0671 118.352 85.9449 118.272 85.8257 118.183L86.3487 118.587C85.7833 118.146 85.3268 117.568 84.8902 117.004L85.298 117.532C85.027 117.18 84.7704 116.814 84.4829 116.476C84.006 115.915 83.4328 115.447 82.9689 114.874C83.1065 115.052 83.2442 115.23 83.3818 115.408C83.1342 115.085 82.9421 114.739 82.7774 114.368L83.045 115.002C82.5098 113.732 82.1204 112.449 81.2793 111.334C80.4792 110.274 79.5621 109.319 78.7424 108.276C78.8847 108.461 79.0269 108.645 79.1692 108.829C78.7393 108.27 78.3897 107.666 78.0115 107.073C77.608 106.441 77.1861 105.821 76.7747 105.194C75.9548 103.943 75.2316 102.66 74.6494 101.281L74.9331 101.953C74.36 100.571 73.9099 99.1459 73.4639 97.7197C72.9688 96.1365 72.3344 94.6302 71.6891 93.1024L71.9729 93.7747C71.6739 93.0627 71.3834 92.3455 71.1573 91.6065C70.9196 90.8293 70.7889 90.026 70.6111 89.2341C70.2468 87.6117 69.8044 85.9981 69.5608 84.3513L69.6614 85.0995C69.5428 84.1276 69.6788 83.1452 69.7309 82.1732C69.7567 81.6907 69.762 81.2099 69.7119 80.7287C69.6117 79.7658 69.4415 79.1053 69.0451 78.2227C68.638 77.3162 67.5459 76.8898 66.6314 76.8382C66.5157 76.8317 66.4018 76.822 66.2867 76.8088L67.0289 76.9085C66.6639 76.8557 66.3166 76.7593 65.9755 76.6195C66.197 76.7129 66.4184 76.8064 66.6399 76.8999C66.1772 76.6969 65.7579 76.4288 65.3584 76.1209L65.9184 76.5536C65.0848 75.8941 64.3731 75.1006 63.5636 74.4139C62.9989 73.9348 62.4052 73.4854 61.7674 73.108C61.2833 72.8215 60.791 72.5574 60.3435 72.2136C60.526 72.3546 60.7085 72.4956 60.8911 72.6366C60.4285 72.2645 60.0642 71.7997 59.6187 71.4099C59.2005 71.0441 58.7486 70.7052 58.4029 70.2659L58.8208 70.8067C58.7494 70.7063 58.6892 70.607 58.6396 70.4942L57.0448 74.4145C58.3815 73.967 59.7789 73.8219 61.1645 73.606C62.6874 73.3686 64.2029 72.9639 65.5379 72.1658C66.9022 71.3501 67.92 70.1761 68.9752 69.0171C69.881 68.0223 70.9646 67.2574 71.9336 66.3326C73.0283 65.2878 73.8504 64.0456 74.5991 62.741C75.4121 61.3243 76.2138 59.901 76.9913 58.4645C78.5694 55.5486 80.1867 52.5658 81.2221 49.4065C82.2736 46.198 82.5964 42.7537 83.998 39.677C84.2484 39.1275 84.1551 38.4727 83.5966 38.146C83.0751 37.841 82.3686 38.0226 82.0655 38.5475Z" fill="#454441"/>
<path d="M91.7002 143.721C91.7582 142.731 91.8918 141.749 91.9727 140.761C92.0626 139.663 92.0334 138.584 91.8282 137.499L91.8886 137.949C91.8075 136.937 91.3653 135.906 90.8662 135.031C90.4717 134.34 89.9336 133.728 89.6016 133.003L89.8021 133.479C89.7201 133.257 89.6284 133.036 89.5246 132.824L89.7264 133.302C89.501 132.681 89.294 132.043 88.9571 131.471C88.6591 130.965 88.3027 130.491 87.9442 130.027C87.2469 129.125 86.4336 128.317 85.7304 127.418L86.1323 127.938C85.5636 127.2 85.0733 126.412 84.4777 125.692C84.1022 125.238 83.6617 124.863 83.1684 124.535C82.4873 124.084 81.7565 123.926 80.9589 123.858L83.7152 125.957C83.6533 125.734 83.6058 125.508 83.5707 125.279L83.6737 126.046C83.6491 125.85 83.6424 125.658 83.664 125.462L83.5607 126.231C83.5807 126.097 83.6129 125.971 83.6611 125.844L83.369 126.536C83.423 126.412 83.4885 126.299 83.5687 126.189C83.4174 126.385 83.2661 126.58 83.1148 126.776C83.2237 126.639 83.345 126.523 83.4815 126.414L82.8926 126.869C83.3157 126.552 83.8068 126.349 84.2794 126.119C84.9671 125.785 85.5257 125.332 86.1321 124.864C85.933 125.018 85.7339 125.172 85.5348 125.325C85.6882 125.21 85.8417 125.112 86.0181 125.036C85.7825 125.135 85.5469 125.235 85.3113 125.334C85.4569 125.28 85.6017 125.242 85.755 125.218C85.4923 125.253 85.2295 125.288 84.9668 125.324C85.3121 125.287 85.653 125.323 85.9957 125.369L85.2038 125.262C85.8373 125.349 86.4863 125.488 87.1298 125.45C88.0856 125.393 88.7742 125.154 89.6373 124.758C90.3715 124.42 91.0026 123.899 91.7435 123.573L91.0306 123.874C92.1232 123.422 93.308 123.322 94.4587 123.104C95.6103 122.886 96.7223 122.483 97.8638 122.214C99.0076 121.945 100.16 121.711 101.294 121.401C102.056 121.193 102.78 120.934 103.495 120.588C103.929 120.378 104.34 120.128 104.783 119.937L104.07 120.238C104.743 119.963 105.49 119.836 106.208 119.738C105.944 119.774 105.679 119.81 105.415 119.845C106.126 119.755 106.843 119.762 107.556 119.692C108.513 119.599 109.48 119.472 110.42 119.265C111.095 119.117 111.765 118.929 112.417 118.7C113.353 118.373 114.226 117.906 115.137 117.52L114.443 117.813C115.093 117.546 115.776 117.366 116.45 117.172C117.098 116.985 117.739 116.776 118.382 116.571C119.836 116.106 121.264 115.602 122.668 114.998C123.264 114.742 123.848 114.46 124.409 114.134C124.985 113.798 125.507 113.389 126.036 112.987C126.565 112.586 127.105 112.215 127.707 111.931C128.289 111.657 128.898 111.432 129.443 111.084C130.025 110.712 130.563 110.276 131.151 109.912C131.726 109.556 132.324 109.241 132.945 108.974C132.721 109.068 132.496 109.163 132.271 109.258C133.51 108.737 134.832 108.44 136.159 108.251C135.91 108.285 135.66 108.318 135.411 108.352C135.979 108.277 136.546 108.194 137.114 108.117L136.38 108.216C136.838 108.162 137.292 108.152 137.749 108.211C137.518 108.18 137.286 108.149 137.054 108.117C137.427 108.175 137.787 108.275 138.137 108.417C137.938 108.333 137.739 108.249 137.54 108.166C137.764 108.261 137.976 108.373 138.171 108.521C138.007 108.394 137.844 108.268 137.681 108.142C137.799 108.237 137.904 108.34 137.999 108.459L137.628 107.978C137.791 108.196 137.939 108.431 138.127 108.627L137.761 108.154L137.783 108.204L137.548 107.645C137.638 107.866 137.731 108.087 137.826 108.306L137.591 107.748C137.69 107.992 137.745 108.245 137.781 108.505L137.699 107.895C137.781 108.545 137.801 109.217 137.722 109.867L137.8 109.285C137.731 109.789 137.597 110.275 137.402 110.745L137.615 110.242C137.396 110.749 137.104 111.2 136.809 111.664L137.125 111.256C136.554 111.972 135.9 112.616 135.266 113.274C134.498 114.071 133.759 114.896 132.984 115.687C132.184 116.503 131.295 117.261 130.58 118.154C129.825 119.095 129.217 120.132 128.489 121.09L128.81 120.675C128.025 121.689 127.029 122.487 126.058 123.312C125.066 124.156 124.157 125.094 123.126 125.892L123.546 125.567C122.833 126.109 122.096 126.623 121.367 127.142C120.65 127.653 119.95 128.175 119.139 128.528L119.638 128.318C119.033 128.572 118.406 128.76 117.784 128.969C117.015 129.227 116.263 129.542 115.524 129.875C114.35 130.405 113.218 131.023 112.103 131.665C110.958 132.324 109.826 133.008 108.665 133.637C107.465 134.288 106.225 134.865 105.009 135.484C103.581 136.21 102.152 136.937 100.676 137.563L101.213 137.336C99.8337 137.913 98.3629 138.229 96.9527 138.719C95.5999 139.189 94.3649 139.876 93.0592 140.447L93.6611 140.193C93.3038 140.327 92.961 140.492 92.6107 140.642C92.812 140.557 93.0132 140.472 93.2145 140.387C92.706 140.6 92.1829 140.775 91.635 140.849C91.8595 140.819 92.084 140.789 92.3085 140.759C92.0424 140.79 91.7794 140.794 91.5133 140.762L92.1876 140.852C92.0001 140.824 91.8208 140.778 91.6438 140.71C91.8459 140.795 92.048 140.88 92.2502 140.965C92.0696 140.889 91.9046 140.794 91.7471 140.677L92.2613 141.074C92.0915 140.939 91.9452 140.788 91.8092 140.619C91.4263 140.143 90.5932 139.874 90.0109 139.874C89.3871 139.874 88.6421 140.151 88.2126 140.619C87.7677 141.104 87.4374 141.74 87.4677 142.417L87.5585 143.093C87.6794 143.524 87.8974 143.898 88.2126 144.216C89.6536 146.005 92.2093 146.173 94.2206 145.399C95.0951 145.063 95.8972 144.653 96.7006 144.178C97.4116 143.758 98.1273 143.37 98.888 143.045L98.3182 143.286C99.5789 142.755 100.875 142.313 102.138 141.788C103.662 141.156 105.128 140.407 106.584 139.635C107.883 138.947 109.202 138.292 110.488 137.582C111.706 136.91 112.883 136.169 114.074 135.451C115.415 134.642 116.775 133.864 118.217 133.249L117.716 133.461C119.02 132.913 120.408 132.584 121.671 131.937C122.261 131.634 122.792 131.224 123.329 130.837C123.884 130.439 124.435 130.035 124.987 129.632C126.162 128.773 127.22 127.824 128.288 126.84C129.201 125.999 130.203 125.253 131.058 124.351C132.103 123.248 132.814 121.91 133.728 120.71L133.409 121.124C134.189 120.121 135.177 119.275 136.057 118.361C136.882 117.503 137.672 116.614 138.496 115.755C140.033 114.156 141.675 112.407 142.087 110.143C142.213 109.454 142.291 108.734 142.291 108.03C142.29 107.632 142.233 107.236 142.171 106.843C142.111 106.463 141.961 106.152 141.802 105.792L142.121 106.973C142.046 106.401 141.994 106.101 141.728 105.582C141.685 105.499 141.64 105.42 141.588 105.343C141.362 105.007 141.103 104.673 140.791 104.41C139.983 103.731 139.069 103.215 138.04 102.946C137.5 102.805 136.934 102.741 136.38 102.695C135.726 102.64 135.094 102.755 134.445 102.853C133.701 102.966 132.952 103.11 132.227 103.311C130.731 103.725 129.282 104.394 127.979 105.236C127.363 105.634 126.796 106.116 126.143 106.452C125.476 106.794 124.763 107.034 124.123 107.429C123.405 107.871 122.771 108.434 122.073 108.904C121.363 109.382 120.586 109.757 119.8 110.092L120.479 109.806C119.101 110.386 117.671 110.824 116.247 111.277C115.49 111.517 114.713 111.685 113.946 111.887C112.964 112.146 112.052 112.555 111.119 112.952C111.352 112.854 111.585 112.756 111.818 112.657C110.424 113.244 108.907 113.549 107.413 113.755L108.206 113.648C107.637 113.723 107.068 113.771 106.495 113.79C105.655 113.819 104.813 113.93 103.988 114.086C103.168 114.24 102.454 114.475 101.687 114.82C101.19 115.043 100.727 115.332 100.228 115.551L100.941 115.25C100.041 115.627 99.051 115.826 98.1031 116.044C97.1428 116.264 96.1784 116.468 95.2256 116.72C94.2578 116.976 93.3229 117.28 92.3323 117.444C91.3854 117.6 90.4286 117.733 89.5291 118.084C88.8764 118.338 88.2796 118.625 87.6897 118.994C87.3038 119.235 86.9196 119.477 86.501 119.659L87.2139 119.358C86.9585 119.462 86.6987 119.54 86.4255 119.579C86.6899 119.544 86.9543 119.508 87.2188 119.473C86.5247 119.541 85.8397 119.322 85.1457 119.373C84.3281 119.433 83.6031 119.596 82.8819 120C82.4185 120.259 82.0265 120.644 81.61 120.973L82.2061 120.512C81.188 121.279 79.8972 121.6 79.0512 122.615C78.5868 123.172 78.3575 123.565 78.0973 124.242C77.9496 124.626 77.9131 125.057 77.8795 125.462C77.8432 125.897 77.9324 126.349 78.0021 126.774C78.042 127.017 78.1159 127.246 78.2027 127.476C78.4288 128.077 78.7084 128.56 79.2271 128.961C79.7242 129.345 80.3168 129.578 80.959 129.575C81.0266 129.574 81.0907 129.578 81.158 129.585L80.4005 129.483C80.5391 129.506 80.6686 129.544 80.7989 129.596L80.1227 129.311C80.4029 129.435 80.6636 129.605 80.9061 129.792L80.3458 129.359C81.0098 129.886 81.5443 130.548 82.1676 131.119C82.5623 131.48 82.9766 131.82 83.3905 132.159C83.9338 132.604 84.4572 133.087 85.0269 133.497L84.5604 133.136C85.0079 133.516 85.4577 133.913 85.8192 134.378L85.4885 133.95C85.9464 134.57 86.2838 135.253 86.7803 135.848C87.1579 136.301 87.5696 136.722 87.9312 137.189L87.6433 136.816C87.8171 137.045 87.9817 137.28 88.13 137.526C88.2771 137.77 88.4764 138.064 88.549 138.342C88.5328 138.28 88.414 137.985 88.4873 138.21C88.5161 138.314 88.5548 138.415 88.6035 138.511C88.7043 138.753 88.7181 138.784 88.645 138.605C88.5371 138.337 88.6456 138.624 88.6656 138.685C88.6917 138.766 88.7162 138.846 88.7395 138.928C88.8332 139.254 88.9048 139.587 88.961 139.922C88.9749 140.004 88.9797 140.095 89.0007 140.175C88.9797 140.095 88.9631 139.869 88.9872 140.079C89.0072 140.253 89.0265 140.428 89.0422 140.603C89.0738 140.953 89.096 141.305 89.1148 141.656C89.1518 142.344 89.1541 143.033 89.1909 143.721C89.226 144.375 89.7429 145.007 90.4456 144.976C91.1582 144.944 91.6591 144.424 91.7002 143.721L91.7002 143.721Z" fill="#454441"/>
<path d="M76.3157 66.1586V65.0263C76.0752 65.3435 76.1417 65.8348 76.3157 66.1586C76.326 66.1779 76.3353 66.1974 76.3439 66.2176L76.2288 65.9451C76.26 66.0246 76.2766 66.1079 76.2883 66.1922L76.2449 65.8685C76.2756 66.1139 76.2985 66.3598 76.3334 66.6052L76.2867 66.2576C76.3347 66.6165 76.3314 66.982 76.2846 67.3408L76.3358 66.9598C76.3049 67.1817 76.2559 67.4014 76.169 67.6086L76.3213 67.2477C76.2837 67.3334 76.2397 67.4147 76.1839 67.4899L76.4252 67.1776C76.3874 67.2259 76.3457 67.2691 76.2971 67.3067L76.6137 67.0621C76.5854 67.0824 76.555 67.0979 76.5255 67.1161C76.2801 67.2683 76.1262 67.4533 75.9532 67.6862C75.944 67.6986 75.9361 67.712 75.9266 67.7244L76.1684 67.4115C76.154 67.4287 76.139 67.4446 76.1224 67.4598C75.7307 67.8189 75.5963 68.4263 75.7344 68.9279C75.8763 69.443 76.2809 69.8312 76.7883 69.9818C77.3775 70.1568 78.0221 69.9936 78.4633 69.5669C78.6146 69.4207 78.7569 69.24 78.849 69.0478C79.0615 68.6045 79.1622 68.1611 79.166 67.666C79.1689 67.2851 79.1108 66.8971 79.0335 66.5254C78.9598 66.1707 78.8409 65.8091 78.678 65.4857C78.5826 65.2961 78.4331 65.1227 78.2876 64.9685C78.1621 64.8355 78.0108 64.7096 77.8503 64.624C77.4247 64.3973 76.8344 64.4254 76.4911 64.7994C76.1445 65.177 76.0713 65.7038 76.3157 66.1586Z" fill="#454441"/>
<path d="M87.7897 54.6614C87.6583 54.4645 87.5166 54.2643 87.4126 54.0512L87.5362 54.3442C87.4233 53.9117 87.3352 53.4742 87.2367 53.0384C87.1732 52.7572 87.063 52.481 86.9291 52.227C86.7736 51.9318 86.5308 51.6873 86.3274 51.424L86.6283 51.8135C86.4372 51.563 86.2635 51.296 86.0393 51.074C85.917 50.9528 85.7954 50.8309 85.6719 50.7109C85.3216 50.3711 84.9505 50.0722 84.5583 49.7792C83.8374 49.2407 82.9866 49.0874 82.1082 49.0396C81.6608 49.0153 81.2155 48.9567 80.7683 48.9371C80.36 48.9192 79.9382 48.9697 79.5424 49.0565C78.7844 49.2227 78.1645 49.7393 77.761 50.3849C77.5888 50.6554 77.4956 50.9475 77.4814 51.2611C77.4112 51.5744 77.4252 51.8876 77.5234 52.2009L77.761 52.7639C77.9091 53.0385 78.1114 53.2589 78.368 53.4251C78.515 53.5711 78.6883 53.6721 78.888 53.7281C79.1688 53.8756 79.4715 53.9433 79.7959 53.9311C80.4326 53.9026 80.9919 53.6817 81.4623 53.2408C81.4773 53.2258 81.4933 53.2118 81.5102 53.199C81.3507 53.3223 81.1911 53.4455 81.0316 53.5688C81.0676 53.5434 81.1041 53.5229 81.144 53.5045L80.5751 53.7446C80.8098 53.651 81.0417 53.5501 81.274 53.4508C81.0839 53.531 80.8937 53.6113 80.7036 53.6916C80.8152 53.6489 80.9302 53.6238 81.0483 53.6068L80.4166 53.6916C80.7751 53.6467 81.1358 53.671 81.4955 53.6849C81.8739 53.6995 82.2524 53.6565 82.6298 53.7027L82.0177 53.6204C82.317 53.663 82.616 53.7598 82.8952 53.8737L82.3649 53.6499C82.7229 53.8011 83.0632 53.9873 83.4019 54.1772C83.6933 54.3406 83.9939 54.4811 84.3104 54.5912C84.4817 54.6508 84.6578 54.6982 84.827 54.763L84.3965 54.5813C84.5002 54.6252 84.5945 54.6782 84.6841 54.7464L84.34 54.4806C84.5373 54.6397 84.714 54.8251 84.898 54.9992C85.0996 55.1899 85.3553 55.3687 85.5251 55.5866L85.3344 55.3397C85.4556 55.5217 85.5809 55.7007 85.711 55.8765C85.9038 56.1372 86.1059 56.3403 86.4304 56.4296C86.7185 56.509 87.1022 56.4732 87.358 56.3083C87.8792 55.9722 88.1637 55.2216 87.7897 54.6614Z" fill="#454441"/>
<path d="M76.0815 89.8849C76.1604 89.7557 76.2393 89.6266 76.3189 89.4978C76.3574 89.4355 76.3961 89.3732 76.435 89.3111C76.5619 89.1088 76.3029 89.4054 76.4486 89.3003C76.6751 89.137 76.8788 88.933 77.1 88.7612L76.8396 88.9623C77.0226 88.8219 77.2127 88.6923 77.3997 88.5575C77.5699 88.4347 77.7535 88.32 77.8963 88.1657C77.9691 88.087 78.0427 88.0092 78.1153 87.9304C78.3937 87.6279 78.6722 87.326 78.9968 87.0719L78.6358 87.3508C79.1052 86.9944 79.6566 86.7425 80.1971 86.5137L79.7384 86.7073C79.9269 86.6298 80.1185 86.5591 80.3208 86.5275L79.8012 86.5974C79.8772 86.5884 79.9508 86.5838 80.027 86.5908L79.5041 86.5205C79.5397 86.5264 79.5709 86.5341 79.605 86.5459C79.4479 86.4796 79.2908 86.4134 79.1337 86.3471C79.1645 86.3611 79.1903 86.3759 79.2181 86.3951L78.8177 86.0858C78.8656 86.1249 78.9047 86.1688 78.9428 86.2172L78.6319 85.8148C78.935 86.2245 79.1725 86.6936 79.3729 87.1607L79.1673 86.6736C79.4593 87.369 79.6659 88.1069 79.7738 88.8536L79.7004 88.3073C79.7997 89.0639 79.7418 89.8273 79.7028 90.586C79.6645 91.3298 79.711 92.0822 79.6118 92.8216L79.6863 92.2671C79.6266 92.6717 79.5098 93.0553 79.3528 93.4324L79.5639 92.9321C79.4184 93.2725 79.2501 93.6018 79.0716 93.9259C78.899 94.2391 78.7374 94.5631 78.5219 94.8496L78.8497 94.4253C78.5579 94.8002 78.2317 95.1415 77.9597 95.5337C77.8189 95.7369 77.7366 95.9738 77.5934 96.1757L77.9196 95.7535C77.7911 95.9189 77.6605 96.041 77.5398 96.2413C77.4347 96.4156 77.3628 96.6092 77.2945 96.8025L77.5022 96.3102C77.4873 96.3439 77.472 96.3729 77.4517 96.4035L77.7649 95.9981L77.7415 96.0269C77.5254 96.2933 77.3242 96.565 77.2314 96.9023C77.1124 97.3343 77.1593 97.7862 77.3313 98.1939C77.469 98.52 77.6621 98.7709 77.9422 98.9874C78.066 99.1103 78.2119 99.1953 78.3799 99.2425C78.6163 99.3667 78.8711 99.4236 79.1442 99.4133C79.551 99.4593 80.0056 99.3077 80.3617 99.1195C80.7389 98.9202 81.0363 98.5391 81.2585 98.1903C81.3794 98.0006 81.4618 97.7899 81.5966 97.6087L81.2697 98.0319C81.5873 97.6305 81.9355 97.2633 82.2331 96.8435C82.4411 96.5501 82.6117 96.221 82.7779 95.9027C83.0273 95.425 83.2454 94.9302 83.4384 94.4273C83.6324 93.9221 83.7059 93.4211 83.7753 92.8844C83.8695 92.155 83.8145 91.417 83.8404 90.6839C83.8669 89.934 83.9187 89.1802 83.8277 88.4326C83.7273 87.6083 83.5684 86.8081 83.2783 86.0286C83.1049 85.5626 82.913 85.0966 82.6795 84.6568C82.4617 84.2468 82.1594 83.877 81.8604 83.5251C81.6863 83.3201 81.4715 83.1361 81.243 82.9969C81.0801 82.8977 80.805 82.7805 80.6848 82.7514C80.4766 82.701 80.2396 82.6545 80.027 82.6567C79.4264 82.6629 78.8813 82.8695 78.3561 83.1444C78.0882 83.2846 77.8356 83.4514 77.5776 83.6085C77.1849 83.8477 76.8104 84.1248 76.5232 84.4859C75.9425 85.2158 75.4938 86.032 75.169 86.9052C75.0396 87.2528 74.915 87.5993 74.8142 87.9565C74.7877 88.0503 74.7622 88.1444 74.7376 88.2387C74.7375 88.2391 74.7029 88.3433 74.7081 88.3529C74.7695 88.2172 74.7816 88.1832 74.7443 88.2509C74.7288 88.2778 74.7133 88.3048 74.6979 88.3318C74.5917 88.5179 74.4876 88.7051 74.3832 88.8922C74.1327 89.3415 74.26 89.9862 74.736 90.2377C75.2152 90.4908 75.7946 90.3539 76.0815 89.8849Z" fill="#454441"/>
<path d="M98.7037 30.2765C96.6364 30.2642 94.8385 30.4547 92.8927 31.1738C92.0238 31.4948 90.806 31.8709 90.065 32.4244C89.0313 33.1964 88.0176 34.2153 87.1583 35.1663C86.6674 35.7097 86.134 36.2491 85.6673 36.8113C85.3355 37.211 85.129 37.678 84.8097 38.0851C84.494 38.4876 83.9762 38.6848 83.6745 39.0677C83.3065 39.5348 83.0404 40.2649 82.722 40.7882C82.4235 41.2789 82.204 41.8733 81.9964 42.4095C81.5262 43.6241 80.8023 44.5582 80.1937 45.6705C79.5816 46.7891 78.6921 47.9244 78.3204 49.1839C78.1407 49.7925 77.9859 50.1094 77.709 50.6535C77.5474 50.9708 77.5174 51.447 77.1873 51.6027C77.1046 51.0075 76.7602 50.5013 76.609 49.9252C76.4552 49.3399 76.3953 48.7573 76.2142 48.1717C75.7203 46.5744 75.5766 44.9712 75.273 43.3386C75.0657 42.2236 74.6133 41.1714 74.5729 40.0561C74.5418 39.1958 74.5805 38.3253 74.5805 37.4639C74.5805 35.4822 74.519 33.4888 74.5729 31.5079C74.6355 29.2085 76.6556 28.3163 78.4848 27.4244C79.5264 26.9165 80.5819 27.0389 81.6977 26.7707C82.8737 26.488 83.7899 26.4601 85.0017 26.3815C86.1271 26.3084 87.1788 25.8977 88.2627 25.6958C89.0638 25.5466 90.0506 25.7127 90.8799 25.7127C91.7492 25.7127 92.6185 25.712 93.4879 25.7127C94.0031 25.7131 94.6159 25.6059 95.1178 25.6883C95.6478 25.7753 95.9782 26.0806 96.4386 26.3026C96.6488 26.3478 96.8601 26.3867 97.0726 26.4192C97.3267 26.5848 97.544 26.7899 97.7246 27.0346C98.0345 27.2416 98.3445 27.2362 98.63 27.4151C99.1048 27.7126 99.8525 28.6964 99.6816 29.2985" fill="#454441"/>
<path d="M98.7026 29.3943C97.5908 29.2969 96.469 29.2686 95.3534 29.3016C94.6911 29.3213 94.034 29.3965 93.379 29.4952C92.8592 29.5736 92.3557 29.6998 91.8463 29.8266C90.749 30.0997 89.6773 30.4369 88.7231 31.0603C87.6436 31.7656 86.6952 32.7094 85.8047 33.6373C85.3487 34.1124 84.8779 34.574 84.4313 35.0581C84.1091 35.4072 83.8033 35.7754 83.5459 36.1753C83.3743 36.4421 83.2171 36.7174 83.0268 36.9719L83.3563 36.5454C83.2419 36.6927 83.1107 36.8158 82.9637 36.9302L83.3907 36.6003C83.2321 36.7201 83.0674 36.8313 82.9091 36.9514C82.7086 37.1037 82.4684 37.2692 82.2829 37.4556C82.108 37.6313 81.9629 37.8427 81.8165 38.0407C81.5629 38.3834 81.3827 38.7717 81.1928 39.1515C81.0017 39.5339 80.7696 39.8933 80.5894 40.281C80.3241 40.8517 80.1096 41.4423 79.8678 42.0225L80.0826 41.5133C79.6513 42.5251 79.0099 43.418 78.4631 44.3668C77.921 45.3074 77.2855 46.2065 76.8111 47.1841C76.6099 47.5988 76.4241 48.0258 76.2784 48.4634C76.1852 48.7431 76.1026 49.0237 75.9896 49.2965L76.2081 48.7788C76.0995 49.0348 75.9728 49.2814 75.8477 49.5295C75.659 49.9043 75.5497 50.2923 75.3894 50.6737L75.6084 50.1547C75.5778 50.2217 75.5439 50.2842 75.5014 50.3443L75.8412 49.9045C75.8053 49.949 75.768 49.9865 75.7228 50.0217L76.1627 49.6818C76.1394 49.6984 76.1148 49.7128 76.0889 49.7249C77.1535 50.158 78.2181 50.5911 79.2826 51.0242C79.1998 50.4775 78.9311 49.9617 78.7186 49.4598L78.9381 49.9799C78.6821 49.3705 78.5898 48.7386 78.4498 48.0969C78.3051 47.4336 78.0892 46.7898 77.9549 46.1227C77.6889 44.8011 77.5824 43.4447 77.2573 42.1356C77.08 41.4216 76.8514 40.7197 76.7475 39.9894L76.8264 40.5762C76.7462 39.9645 76.7673 39.3402 76.7776 38.7248C76.7881 38.0942 76.7979 37.4641 76.7963 36.8335C76.793 35.5831 76.7604 34.333 76.7581 33.0826C76.7569 32.4261 76.7215 31.7478 76.8048 31.0954L76.7263 31.6801C76.7665 31.3976 76.8387 31.1243 76.9477 30.8606L76.7264 31.385C76.8381 31.1257 76.9815 30.8851 77.1533 30.6612L76.8106 31.1047C77.0412 30.8116 77.3118 30.5571 77.606 30.3286L77.1634 30.6706C77.5474 30.3772 77.9626 30.1293 78.3882 29.9016C78.837 29.6615 79.2946 29.4224 79.7613 29.2188C79.5882 29.2918 79.4151 29.3648 79.242 29.4379C79.708 29.2445 80.2006 29.1504 80.6985 29.0835L80.124 29.1607C80.7852 29.0742 81.4545 29.0186 82.1061 28.8734C82.5942 28.7647 83.0757 28.6526 83.5719 28.5849C83.3835 28.6103 83.1951 28.6356 83.0068 28.6609C84.0839 28.5191 85.1731 28.5132 86.2438 28.3161C87.1668 28.1462 88.0513 27.7946 88.9795 27.6542L88.432 27.7277C88.9632 27.6565 89.4979 27.6914 90.0307 27.7224C90.5842 27.7546 91.1353 27.7529 91.6895 27.7499C92.2886 27.7466 92.8878 27.7476 93.4869 27.7407C94.0116 27.7347 94.5362 27.6389 95.0606 27.6998L94.5235 27.6276C94.6969 27.6526 94.861 27.6993 95.0225 27.7669C94.8618 27.6991 94.7012 27.6313 94.5405 27.5635C94.7846 27.6729 95.0074 27.8193 95.2417 27.9472C95.5006 28.0886 95.77 28.2181 96.0606 28.2746C96.219 28.3053 96.378 28.3321 96.5375 28.3561L96.0575 28.1535C96.1246 28.1979 96.1897 28.2443 96.2535 28.2934L95.8471 27.9794C96.0038 28.1058 96.1432 28.2462 96.2692 28.4033L95.9557 27.9975C96.0717 28.1494 96.1885 28.3007 96.306 28.4515L96.7118 28.7649C96.7684 28.8012 96.8258 28.8319 96.8865 28.8607C97.1339 28.978 97.3911 29.0843 97.6532 29.1653C97.8451 29.2245 98.0465 29.2611 98.2328 29.3351L97.7765 29.1426C97.8482 29.1729 97.9184 29.2063 97.9869 29.2434C98.3278 29.4282 98.6409 29.5378 99.0405 29.5544L97.7816 29.033C97.9686 29.2403 98.1981 29.3976 98.3744 29.6196L98.12 29.2902C98.2087 29.4065 98.2876 29.5275 98.3489 29.6607L98.1936 29.2927C98.2291 29.3769 98.2561 29.4604 98.2707 29.5507L98.2176 29.1555C98.256 29.4955 98.2758 29.659 98.4371 29.964L98.2901 28.8405C98.2863 28.864 98.2811 28.8873 98.2746 28.9102C98.1808 29.282 98.2264 29.7002 98.4216 30.0338C98.5986 30.3362 98.9454 30.6247 99.293 30.7039C100.05 30.8762 100.887 30.4767 101.087 29.6855C101.093 29.6625 101.098 29.6393 101.102 29.6157L100.727 30.2591C101.282 29.6728 101.29 28.8424 101.112 28.1025C100.973 27.527 100.696 26.9552 100.299 26.5154L100.821 27.7742C100.842 27.1342 100.448 26.5346 100.037 26.0741C99.7364 25.7364 99.3638 25.5328 98.9425 25.3795C98.7919 25.3247 98.6374 25.2823 98.4882 25.2237L98.9667 25.4257C98.8856 25.3902 98.8101 25.3503 98.7353 25.3029L99.4545 26.0221C99.2819 25.7913 99.1107 25.5486 98.9081 25.3404C98.7078 25.1346 98.4599 24.9549 98.2333 24.7884C97.9898 24.6094 97.7122 24.5015 97.415 24.449C97.2669 24.4228 97.1196 24.393 96.9726 24.361L97.4534 24.5639C97.1628 24.4185 96.8977 24.2259 96.6024 24.0902C96.323 23.9618 96.0219 23.8143 95.714 23.7507C95.387 23.6832 95.0436 23.6387 94.7076 23.6341C94.3485 23.6292 93.991 23.6721 93.6323 23.6815C93.232 23.6919 92.83 23.6795 92.4295 23.6774C91.6505 23.6735 90.8706 23.6863 90.093 23.6334C89.7387 23.6094 89.3849 23.5842 89.0297 23.5814C88.5126 23.5774 87.9968 23.6485 87.4902 23.749C86.6453 23.9166 85.8224 24.1816 84.9681 24.303L85.5252 24.2282C84.7807 24.3271 84.0234 24.3145 83.2755 24.3822C82.7512 24.4297 82.2271 24.4979 81.7084 24.5879C81.3212 24.6551 80.9407 24.7523 80.5512 24.8072L81.1224 24.7304C80.4756 24.8168 79.826 24.8655 79.1798 24.9612C78.5275 25.0579 77.9403 25.2812 77.3436 25.5667C76.7014 25.8739 76.0532 26.1772 75.4492 26.5558C74.5568 27.1152 73.8009 27.7862 73.2125 28.6619C72.5893 29.5895 72.3916 30.6911 72.3627 31.7869C72.3067 33.9125 72.3837 36.0378 72.3583 38.1633C72.3439 39.3696 72.3311 40.5541 72.5982 41.7407C72.7095 42.2349 72.8596 42.7192 72.9875 43.2091C73.1189 43.7123 73.2094 44.2231 73.2945 44.7358C73.4843 45.879 73.6405 47.0303 73.935 48.1529C74.082 48.7134 74.2438 49.2605 74.3564 49.8299C74.4129 50.1151 74.4676 50.404 74.5596 50.6804C74.6964 51.0915 74.8856 51.4846 75.0552 51.8829L74.8358 51.3629C74.9471 51.6281 75.0448 51.8947 75.0897 52.1799C75.193 52.5482 75.3794 52.868 75.6489 53.1392C75.8458 53.3512 76.079 53.5011 76.3485 53.5888C77.0007 53.8639 77.6589 53.8118 78.2835 53.4792C78.7262 53.2434 79.1484 52.8005 79.3605 52.3477C79.5224 52.0017 79.6246 51.6577 79.7649 51.3088L79.5461 51.8274C79.7659 51.3244 80.0184 50.8455 80.2163 50.33C80.3685 49.9334 80.4682 49.5209 80.6326 49.1284L80.4148 49.6446C80.8262 48.6872 81.4353 47.8384 81.9458 46.9345C82.4548 46.0334 83.0378 45.1668 83.5004 44.2405C83.8439 43.5526 84.0888 42.8247 84.3868 42.1177L84.1725 42.6257C84.3627 42.182 84.6156 41.7755 84.8283 41.3434C85.0315 40.9304 85.2182 40.502 85.499 40.134L85.1684 40.5619C85.2691 40.4383 85.3857 40.3339 85.511 40.2358L85.0835 40.566C85.3784 40.3415 85.6793 40.13 85.9686 39.8967C86.2642 39.6584 86.4793 39.3576 86.7026 39.0491C86.9788 38.6675 87.1861 38.2411 87.4739 37.8672L87.1466 38.2909C87.4955 37.8496 87.8711 37.4309 88.2429 37.0091C88.6075 36.5955 88.963 36.1744 89.3363 35.7687C89.7059 35.367 90.0873 34.9758 90.4855 34.6023C90.8579 34.253 91.209 33.8689 91.6128 33.5547L91.2407 33.8422C91.7649 33.4446 92.359 33.1496 92.9505 32.8671C93.5758 32.5684 94.1923 32.2469 94.8301 31.9759L94.499 32.1157C94.9891 31.9101 95.4896 31.7311 95.9995 31.581C96.5062 31.4319 97.018 31.3407 97.541 31.2694L97.2752 31.3051C97.7495 31.2419 98.2255 31.1945 98.7026 31.1573C99.1612 31.1216 99.6067 30.7774 99.5842 30.2757C99.5613 29.7635 99.1961 29.4375 98.7026 29.3943Z" fill="#454441"/>
<path d="M99.3549 29.9505L99.3004 30.2219C98.0891 30.3795 97.3649 31.2687 96.6745 32.2336C96.1354 32.9869 95.3406 33.5116 94.7835 34.2533C94.2346 34.9842 93.9528 35.8872 93.7237 36.7637C92.5603 41.2148 93.1697 46.0987 93.782 50.5401C93.8998 51.3945 93.892 52.2495 94.1948 53.0801C94.5426 54.0343 95.2711 54.8155 95.4184 55.8821C95.6569 57.6093 96.1362 59.0159 97.2238 60.4546C98.3889 61.9958 99.2612 63.7176 100.349 65.3053C100.871 66.068 101.106 66.942 101.629 67.7021C102.13 68.4302 102.83 68.9876 102.996 69.8907C104.027 68.0457 104.851 66.626 106.852 65.8105C108.183 65.268 109.478 64.5967 110.82 64.0987C111.966 63.6735 113.241 63.1984 114.399 62.8766C115.343 62.6139 116.347 62.5873 117.292 62.314C118.045 62.0962 118.803 61.7857 119.566 61.6451C120.915 61.3969 122.899 61.3203 124.12 61.9647C125.823 62.8637 126.424 64.3962 126.411 66.2247C126.4 67.7349 126.365 69.2028 125.378 70.4614C124.78 71.225 123.976 71.7499 123.225 72.3291C122.478 72.9046 121.933 73.6937 121.049 74.091C120.536 74.3216 120.038 74.3405 119.549 74.6731C119.374 74.7922 118.879 75.4288 118.588 75.5502C117.751 75.8995 116.601 75.8517 115.712 76.1603C115.121 76.3656 114.563 76.6598 113.985 76.8936C113.075 77.2613 112.838 77.3239 112.642 78.2538C112.466 79.0826 112.408 79.7116 112.401 80.5439C112.392 81.4764 112.033 82.1862 111.733 83.0674C111.488 83.787 111.139 84.4125 110.846 85.1077C110.417 86.1241 110.205 87.1737 109.633 88.1274C109.098 89.0185 108.983 90.027 108.451 90.8861C107.892 91.7895 107.112 92.5336 106.575 93.4692C106.335 93.8865 106.157 94.3971 105.869 94.7807C105.287 95.5578 104.603 95.7674 105.176 96.8497C105.622 97.6913 106.394 98.3374 107.244 98.7343C108.995 99.5528 110.62 100.584 112.223 101.669C112.963 102.17 113.649 102.676 114.359 103.227C115.295 103.954 116.036 104.862 116.95 105.596C117.704 106.202 118.566 106.586 119.33 107.213C120.358 108.058 121.15 109.107 122.102 110.068C122.874 110.848 123.278 111.715 124.138 110.743C124.972 109.799 125.446 108.634 126.086 107.564C127.145 105.792 128.717 104.412 129.684 102.646C130.472 101.207 131.387 99.3308 131.691 97.7486C132.869 97.9608 132.725 101.263 132.859 102.027C133.085 103.307 132.932 104.701 132.932 105.997C132.932 106.753 133.082 107.705 132.949 108.448C132.867 108.905 132.643 109.275 132.589 109.744C132.488 110.625 132.658 111.261 132.313 112.034C133.68 112.422 135.876 112.21 137.227 111.862C138.517 111.529 139.84 111.139 141.177 111.114C141.773 111.103 143.049 111.373 143.554 111.112C144.313 110.719 144.017 109.582 144.015 108.814C144.012 106.82 144.015 104.827 144.015 102.833V97.1198C144.015 96.1871 143.747 94.7712 144.064 93.9121C144.702 94.2896 144.856 94.9412 145.065 95.5897C145.366 96.5251 145.706 97.4612 145.908 98.425C146.121 99.4417 146.169 100.463 146.608 101.415C147.025 102.319 147.452 103.211 147.78 104.157C148.067 104.985 148.074 105.828 148.308 106.643C148.491 107.283 149.041 107.749 149.216 108.369C149.399 109.018 149.433 110.009 150.154 110.394C150.598 109.354 150.143 107.591 149.955 106.534C149.711 105.162 149.641 103.742 149.485 102.35C149.251 100.258 148.856 98.1812 148.58 96.0966C148.44 95.0326 147.987 93.9591 148.304 92.8692C148.993 92.8362 149.732 94.0212 150.185 94.4691C150.715 94.9939 151.124 95.4115 151.424 96.1019C151.75 96.854 151.99 97.5281 152.542 98.1548C153.373 99.0997 154.419 99.8219 155.277 100.73C156.052 101.55 156.551 102.322 157.046 103.314C157.387 103.996 158.068 104.878 158.876 104.738C159.628 104.609 160.665 103.694 161.254 103.248C162.698 102.155 164.171 101.119 165.666 100.094C166.597 99.4562 167.292 98.7085 168.095 97.9224C169.102 96.9372 170.155 96.0309 171.179 95.0601C172.811 93.5131 174.21 91.8368 175.7 90.1784C176.341 89.4641 177.102 88.8556 177.755 88.1518C178.363 87.4965 178.784 86.6974 179.385 86.0357C180.01 85.3481 180.623 84.8979 181.177 84.1448C181.676 83.466 182.203 82.8063 182.733 82.1517C181.965 81.9295 181.266 82.2641 180.519 82.3843C179.461 82.5545 179.033 81.9327 178.498 81.1465C177.834 80.1711 177.265 79.6861 176.239 79.1256C174.502 78.1759 173.415 76.6061 172.035 75.2386C169.922 73.1453 168.012 70.884 165.914 68.7849C165.052 67.9234 164.049 67.2669 163.176 66.4289C161.906 65.2084 160.916 63.5708 160.006 62.0734C158.776 60.0512 157.509 58.0104 155.926 56.2335C154.736 54.8977 153.661 53.6962 152.817 52.1085C151.991 50.5533 151.005 49.1464 150.282 47.5284C149.981 46.8558 149.626 46.2481 149.247 45.6137C148.665 44.6394 148.011 43.3943 147.228 42.5758C146.036 41.3284 144.514 40.4077 143.355 39.0863C142.806 38.4607 142.455 37.7522 141.822 37.1872C141.135 36.5742 140.263 36.0146 139.488 35.5201C137.21 34.0667 134.538 32.6007 131.881 31.9789C130.386 31.629 128.644 31.2637 127.113 31.2469C126.69 31.2422 126.183 31.3434 125.766 31.2701C125.04 31.1423 124.384 30.7355 123.641 30.6271C123.002 30.5338 122.297 30.7319 121.673 30.5778C121.111 30.4389 120.664 30.0718 120.067 29.9783C119.366 29.8685 118.75 29.8147 118.059 29.6677C117.309 29.5081 116.709 29.1711 115.982 28.965C114.794 28.6284 113.449 28.08 112.223 27.9824C111.607 27.9334 110.959 28.0938 110.348 28.0114C109.568 27.9063 108.976 27.6618 108.163 27.6697C106.592 27.685 105.006 27.4798 103.512 28.0618C102.383 28.5012 101.666 29.3661 100.643 29.9738C100.178 30.2503 99.0114 30.5233 98.7029 30.9285" fill="#454441"/>
<path d="M98.243 29.6433L98.156 29.9058C98.5374 29.6154 98.9188 29.325 99.3002 29.0347C98.5342 29.0588 97.7862 29.2706 97.14 29.6891C96.8316 29.8888 96.5386 30.1235 96.2654 30.3689C96.1546 30.4685 96.0476 30.5724 95.9427 30.6781C95.8973 30.7238 95.8516 30.7693 95.8077 30.8163C95.9845 30.678 95.9702 30.6885 95.7649 30.8478C95.6426 30.9202 95.5453 31.0175 95.473 31.1398C95.5281 31.0684 95.1297 31.5374 95.3049 31.3599C95.4282 31.235 95.2502 31.4009 95.2386 31.4112C95.0925 31.5398 94.953 31.6741 94.8037 31.7993C94.5229 32.0348 94.2313 32.2573 93.957 32.5006C93.6554 32.7682 93.4025 33.0621 93.1563 33.3807C93.103 33.4497 92.8334 33.9212 92.754 33.945L92.8194 33.875C92.9949 33.6826 92.9159 33.7896 92.5825 34.1961C92.4764 34.3815 92.4084 34.6013 92.3271 34.7978C91.6787 36.3636 91.3849 38.0482 91.1789 39.7218C90.9811 41.3285 90.9498 42.9451 91.0412 44.56C91.1336 46.1908 91.3206 47.8145 91.5324 49.4335C91.5566 49.6185 91.5812 49.8035 91.6059 49.9884C91.6443 50.2754 91.7616 50.6461 91.734 50.9409C91.7345 50.9353 91.6899 50.5294 91.7096 50.7796C91.718 50.8865 91.7323 50.9931 91.7427 51.0998C91.7635 51.3128 91.7817 51.526 91.8056 51.7386C91.9236 52.7906 92.1229 53.6962 92.5957 54.6495C92.7499 54.9605 92.9288 55.2584 93.092 55.5647C93.1274 55.6313 93.3394 55.9556 93.3086 56.0009C93.2919 56.0254 93.1691 55.5817 93.2254 55.8206C93.2523 55.9343 93.2994 56.0444 93.3265 56.1589C93.4912 56.8558 93.5516 57.5643 93.7601 58.2543C93.9917 59.0206 94.31 59.7789 94.7015 60.4772C95.0774 61.1476 95.5649 61.7413 95.9923 62.378C96.4836 63.1101 96.9329 63.8691 97.3891 64.6232C97.8385 65.3662 98.3653 66.0772 98.7781 66.8398C99.1688 67.5615 99.438 68.3342 99.9336 68.9971C100.122 69.2486 100.316 69.4961 100.514 69.7398C100.569 69.8074 100.624 69.8751 100.68 69.942C100.864 70.1628 100.628 69.892 100.585 69.813C100.67 69.967 100.795 70.1562 100.899 70.2966C101.021 70.4623 100.818 70.0978 100.817 70.0761C100.823 70.1834 100.901 70.3531 100.924 70.4611C101.101 71.2866 101.918 71.8937 102.711 72.0003C103.542 72.112 104.429 71.7268 104.852 70.9744C105.158 70.4295 105.465 69.885 105.812 69.3645C105.889 69.2488 105.99 69.1398 106.057 69.0189C106.065 69.0045 105.75 69.3839 105.903 69.2216C105.956 69.1645 106.003 69.1001 106.054 69.0408C106.247 68.8186 106.453 68.6079 106.675 68.4151C106.72 68.3762 106.767 68.3394 106.812 68.3004C107.016 68.1228 106.427 68.5719 106.656 68.4239C106.777 68.3458 106.893 68.2618 107.017 68.1874C107.145 68.1103 107.277 68.0386 107.411 67.9715C107.47 67.9418 107.53 67.914 107.59 67.885C107.951 67.7096 107.222 68.0265 107.518 67.9173C108.401 67.5917 109.258 67.1894 110.123 66.8177C110.199 66.7848 110.276 66.7522 110.353 66.7192C110.593 66.616 110.201 66.7874 110.195 66.786C110.294 66.8083 110.626 66.6091 110.733 66.5683C111.115 66.4228 111.499 66.2803 111.884 66.141C112.64 65.8675 113.398 65.5975 114.165 65.3581C115.692 64.882 117.281 64.7789 118.804 64.2892C119.181 64.1681 119.559 64.0481 119.946 63.9632C120.104 63.9285 120.263 63.903 120.422 63.8755C120.506 63.8611 120.74 63.8309 120.351 63.8839C119.917 63.9432 120.315 63.892 120.414 63.8824C121.07 63.819 121.709 63.8392 122.364 63.8734C122.633 63.8875 122.028 63.8297 122.064 63.8298C122.143 63.8301 122.25 63.8598 122.323 63.8742C122.449 63.8986 122.574 63.9269 122.698 63.9605C122.778 63.9821 122.857 64.0113 122.937 64.0321C123.125 64.0807 123.198 64.2298 122.706 63.9216C122.845 64.0086 123.004 64.0692 123.145 64.1549C123.254 64.2209 123.354 64.3027 123.463 64.3665C122.898 64.0368 123.234 64.1847 123.399 64.3419C123.498 64.4366 123.587 64.5391 123.681 64.6384C123.944 64.916 123.498 64.4189 123.517 64.4241C123.553 64.4345 123.621 64.5794 123.642 64.6128C123.712 64.7253 123.771 64.8421 123.833 64.9586C124.076 65.4119 123.687 64.4968 123.787 64.8548C123.866 65.1373 123.935 65.4137 123.997 65.7006C124.06 65.9925 123.937 65.1157 123.957 65.4163C123.961 65.4771 123.968 65.5378 123.973 65.5986C123.983 65.7435 123.988 65.8886 123.99 66.0338C123.993 66.3872 123.983 66.7419 123.968 67.0949C123.96 67.262 123.95 67.429 123.936 67.5956C123.93 67.6665 123.923 67.7373 123.916 67.8082C123.878 68.235 123.951 67.5916 123.947 67.5814C123.984 67.6755 123.872 67.9755 123.85 68.0627C123.806 68.2452 123.738 68.4198 123.688 68.6C123.621 68.842 123.804 68.3397 123.8 68.344C123.75 68.4128 123.715 68.523 123.672 68.6011C123.589 68.7536 123.49 68.8927 123.398 69.0396C123.263 69.2558 123.534 68.8404 123.547 68.8447C123.542 68.8429 123.33 69.0848 123.344 69.0696C123.205 69.2147 123.058 69.3517 122.907 69.4831C122.85 69.5323 122.792 69.5803 122.734 69.6281C122.445 69.8658 122.639 69.6844 122.819 69.5676C122.653 69.6758 122.497 69.8072 122.337 69.9252C121.897 70.2508 121.452 70.5753 121.046 70.9438C120.769 71.195 120.501 71.4562 120.225 71.7081C120.077 71.8433 119.933 71.8347 120.401 71.5813C120.321 71.625 120.248 71.6899 120.169 71.7384C120.168 71.7392 119.93 71.8551 119.921 71.8774C119.945 71.8163 120.461 71.69 120.107 71.7938C119.095 72.0911 118.201 72.4458 117.454 73.2183C117.351 73.3248 117.245 73.4278 117.141 73.5323C117.124 73.549 117.026 73.6143 117.023 73.6358L117.386 73.3476C117.823 73.1765 117.939 73.1255 117.735 73.1946C117.347 73.293 116.969 73.3739 116.571 73.4284L117.241 73.3383C116.662 73.4152 116.075 73.471 115.504 73.5933C114.928 73.7167 114.389 73.9681 113.85 74.1987C113.658 74.2809 113.466 74.3645 113.276 74.4505C112.964 74.5912 113.348 74.4168 113.452 74.3799C113.345 74.4179 113.238 74.4658 113.132 74.5082C112.71 74.6765 112.261 74.8235 111.875 75.068C109.896 76.3222 109.968 78.8006 109.769 80.8636L109.862 80.1684C109.73 81.1163 109.32 82.0822 108.95 82.961L109.217 82.3292C108.872 83.1191 108.488 83.8893 108.178 84.695C107.937 85.3204 107.749 85.9641 107.498 86.5856L107.764 85.9538C107.471 86.642 107.089 87.2747 106.805 87.9701C106.597 88.4785 106.437 89.0038 106.234 89.514L106.501 88.8822C106.343 89.2556 106.149 89.5975 105.915 89.9288C105.862 90.0045 105.801 90.1118 105.736 90.1733C105.761 90.1495 106.144 89.6582 105.871 89.9976C105.744 90.1554 105.618 90.3141 105.492 90.4732C105.134 90.9275 104.763 91.3825 104.45 91.871C104.219 92.2333 104.053 92.6252 103.854 93.0046C103.808 93.0914 103.746 93.1745 103.707 93.2638C103.611 93.4882 103.894 93.0236 103.919 93.0122C103.817 93.0588 103.681 93.2836 103.602 93.3685C103.285 93.7099 102.96 94.0706 102.745 94.4845C102.067 95.7858 102.277 97.2715 103.065 98.4757C103.679 99.4129 104.474 100.183 105.433 100.764C106.149 101.197 106.939 101.516 107.669 101.928C109.201 102.791 110.685 103.765 112.099 104.809C112.276 104.939 112.451 105.072 112.627 105.204C112.999 105.483 112.502 105.13 112.489 105.096C112.507 105.141 112.719 105.281 112.739 105.299C113.067 105.572 113.374 105.868 113.679 106.166C114.433 106.905 115.19 107.612 116.066 108.21C116.394 108.434 116.736 108.636 117.071 108.847C117.252 108.961 117.427 109.083 117.606 109.2C117.987 109.452 117.467 109.125 117.459 109.082C117.472 109.154 117.708 109.295 117.761 109.342C118.412 109.925 118.98 110.59 119.568 111.234C120.067 111.782 120.563 112.4 121.136 112.871C121.785 113.404 122.515 113.818 123.385 113.807C124.309 113.795 125.095 113.427 125.775 112.824C126.485 112.196 127.026 111.284 127.477 110.453C127.861 109.747 128.21 109.022 128.656 108.351C128.798 108.137 128.946 107.928 129.098 107.722C129.159 107.64 129.225 107.561 129.283 107.477C129.223 107.563 128.947 107.905 129.162 107.636C129.449 107.278 129.738 106.922 130.024 106.562C130.709 105.701 131.384 104.836 131.913 103.868C132.841 102.17 133.744 100.328 134.122 98.418C133.088 99.0048 132.054 99.5917 131.021 100.179C131.342 100.25 130.328 99.7873 130.687 100.038C130.347 99.8006 130.186 99.7384 130.003 99.3564C130.03 99.4128 130.079 99.4808 130.113 99.5342C130.362 99.9316 129.941 99.0457 129.998 99.2515C130.106 99.6484 130.203 100.033 130.258 100.442L130.168 99.7749C130.304 100.855 130.343 101.934 130.498 103.013L130.409 102.348C130.516 103.229 130.499 104.123 130.525 105.009C130.551 105.882 130.631 106.74 130.747 107.606C130.801 108.013 130.801 108.011 130.748 107.6C130.749 107.698 130.749 107.796 130.747 107.893C130.747 107.988 130.743 108.083 130.737 108.177C130.714 108.419 130.721 108.36 130.758 108.002C130.745 108.003 130.603 108.521 130.588 108.569C130.484 108.911 130.438 109.226 130.397 109.591C130.352 109.992 130.358 110.388 130.356 110.791C130.357 110.882 130.355 110.974 130.352 111.065C130.334 111.304 130.348 111.247 130.395 110.896C130.353 110.918 130.247 111.386 130.218 111.455C130.025 111.918 130.174 112.722 130.437 113.13C130.744 113.606 131.179 113.974 131.736 114.128C133.669 114.663 135.89 114.459 137.814 113.991C138.359 113.859 138.899 113.711 139.446 113.588C139.72 113.526 139.995 113.469 140.272 113.421C140.374 113.403 140.498 113.372 140.604 113.368C139.987 113.392 140.627 113.377 140.76 113.368C141.564 113.316 142.355 113.518 143.159 113.465C144.803 113.357 146.044 112.264 146.266 110.613C146.389 109.703 146.273 108.763 146.273 107.846C146.274 105.482 146.279 103.119 146.282 100.755C146.283 99.5057 146.308 98.2539 146.285 97.005C146.275 96.5215 146.222 96.0396 146.195 95.5571C146.179 95.2857 146.168 95.013 146.181 94.7412C146.184 94.6708 146.208 94.5594 146.2 94.4854C146.139 94.8815 146.132 94.9626 146.178 94.7286C146.195 94.6551 146.216 94.5829 146.241 94.5119C145.135 94.9618 144.029 95.4118 142.923 95.8617C143.126 95.9945 143.078 95.9559 142.78 95.7459C142.939 95.919 142.899 95.8618 142.66 95.5743C142.705 95.6422 142.745 95.7124 142.781 95.7849C142.881 95.997 142.854 95.9308 142.7 95.5863C142.726 95.9187 142.951 96.3372 143.057 96.6525C143.32 97.4316 143.589 98.2106 143.764 99.0152C143.936 99.8046 144.007 100.617 144.251 101.39C144.547 102.328 145.041 103.204 145.437 104.101C145.501 104.25 145.481 104.203 145.378 103.96C145.42 104.063 145.461 104.165 145.501 104.268C145.581 104.474 145.661 104.681 145.727 104.892C145.853 105.299 145.92 105.719 145.99 106.139C146.136 107.009 146.365 107.804 146.857 108.552C146.952 108.697 147.04 108.851 147.14 108.992C147.247 109.196 147.23 109.139 147.09 108.822C147.116 108.893 147.138 108.965 147.156 109.038C147.221 109.283 147.261 109.535 147.324 109.781C147.587 110.805 148.144 111.703 149.067 112.253C149.66 112.606 150.359 112.624 150.983 112.361C151.637 112.085 151.979 111.615 152.229 110.966C152.766 109.577 152.402 107.928 152.123 106.525C152.064 106.229 152.006 105.933 151.957 105.635C151.939 105.525 151.922 105.415 151.906 105.304C151.944 105.594 151.947 105.616 151.915 105.371C151.896 105.204 151.875 105.036 151.857 104.869C151.771 104.085 151.708 103.3 151.621 102.516C151.425 100.76 151.13 99.0186 150.854 97.2742C150.729 96.4845 150.643 95.6841 150.48 94.9015C150.407 94.5535 150.333 94.2067 150.266 93.8576C150.241 93.7004 150.248 93.7502 150.288 94.0072C150.279 93.8993 150.273 93.7912 150.273 93.6829C150.272 93.5743 150.277 93.466 150.287 93.3579C150.247 93.6379 150.253 93.6587 150.305 93.4203C149.638 93.9283 148.971 94.4362 148.304 94.9442C147.789 94.9341 147.83 94.8527 148.012 94.9099C147.51 94.7521 147.635 94.7376 147.778 94.8318C147.257 94.4895 147.65 94.7322 147.786 94.8668C148.022 95.101 148.224 95.3624 148.431 95.6216C148.61 95.8459 148.808 96.0481 149.002 96.2597C149.063 96.3265 149.121 96.3969 149.183 96.4628C149.425 96.719 149.124 96.3932 149.101 96.3439C149.191 96.5396 149.349 96.7243 149.453 96.9172C149.479 96.9667 149.579 97.1974 149.463 96.9298C149.34 96.6451 149.466 96.9485 149.494 97.0207C149.591 97.2656 149.692 97.5085 149.794 97.7512C149.982 98.196 150.175 98.6277 150.451 99.026C151.01 99.835 151.712 100.484 152.42 101.156C152.722 101.442 153.038 101.715 153.335 102.009C153.482 102.154 153.626 102.304 153.764 102.458C153.83 102.531 153.896 102.606 153.96 102.682C154.015 102.746 154.265 103.092 154.052 102.785C153.83 102.466 154.199 102.999 154.241 103.061C154.344 103.214 154.442 103.37 154.536 103.529C154.739 103.872 154.91 104.229 155.095 104.582C155.527 105.406 156.209 106.214 157.04 106.653C158.263 107.297 159.535 107.14 160.722 106.513C161.004 106.364 161.27 106.184 161.529 105.996C161.665 105.897 161.799 105.795 161.933 105.692C162.125 105.546 162.316 105.397 162.508 105.249C162.854 104.981 162.141 105.521 162.334 105.384C163.064 104.864 163.78 104.327 164.514 103.815C166.087 102.715 167.714 101.708 169.104 100.372C170.401 99.1258 171.755 97.9406 173.055 96.698C174.359 95.453 175.546 94.0958 176.742 92.7495C177.412 91.9946 178.107 91.2904 178.841 90.5973C179.657 89.8259 180.305 88.9453 180.962 88.0384C180.976 88.0185 181.143 87.8315 181.149 87.7853C181.131 87.9416 180.81 88.1996 181.105 87.8658C181.261 87.6887 181.428 87.5203 181.596 87.3548C181.916 87.0407 182.25 86.7401 182.551 86.4071C182.836 86.0922 183.089 85.7497 183.345 85.4114C183.413 85.3218 183.479 85.231 183.547 85.1412C183.597 85.0746 183.905 84.6861 183.658 84.9938C183.429 85.279 183.664 84.9874 183.721 84.9159C183.808 84.8055 183.895 84.6955 183.983 84.5858C184.158 84.3664 184.335 84.1481 184.512 83.9301C185.094 83.2132 185.417 82.4177 185.159 81.482C184.931 80.6542 184.246 79.9325 183.402 79.7246C182.598 79.5268 181.902 79.548 181.094 79.6855C180.675 79.7569 180.267 79.8787 179.848 79.9529L180.519 79.8629C180.35 79.8848 180.19 79.8933 180.02 79.8821L180.69 79.9722C180.587 79.9578 180.479 79.914 180.378 79.9043L180.795 80.0788C180.736 80.0479 180.68 80.013 180.626 79.9743C181.15 80.2278 181.041 80.3197 180.833 80.0953C180.676 79.9257 180.578 79.6472 180.951 80.2634C180.58 79.6509 180.117 79.0473 179.632 78.5253C179.188 78.0462 178.649 77.6398 178.103 77.2853C177.87 77.1347 177.627 77.0051 177.388 76.8659C177.261 76.7923 177.137 76.7156 177.015 76.6348C176.934 76.5816 176.855 76.5268 176.777 76.4706C176.564 76.3135 176.621 76.3589 176.946 76.6068C176.606 76.2269 176.155 75.9141 175.797 75.5436C175.365 75.0968 174.955 74.6297 174.534 74.1729C173.622 73.1831 172.656 72.2443 171.74 71.2571C169.907 69.2812 168.153 67.2432 166.058 65.5374C165.575 65.1442 165.101 64.7412 164.672 64.2885C164.461 64.0652 164.266 63.8293 164.067 63.5951C163.79 63.2703 164.16 63.706 164.181 63.7498C164.096 63.5748 163.926 63.4068 163.813 63.2471C163.06 62.1837 162.41 61.0516 161.732 59.9405C161.027 58.7873 160.302 57.6445 159.498 56.5574C158.639 55.3952 157.689 54.3284 156.756 53.228C156.562 52.9988 156.373 52.7655 156.184 52.5318C155.839 52.1042 156.549 53.0347 156.23 52.5872C156.143 52.4652 156.053 52.3454 155.967 52.2226C155.579 51.6679 155.252 51.0851 154.929 50.4915C154.305 49.344 153.593 48.2462 152.995 47.0843C151.803 44.7697 150.694 42.2064 148.792 40.3649C147.873 39.475 146.819 38.7397 145.895 37.8546C145.672 37.6401 145.468 37.4099 145.254 37.186C144.88 36.7937 145.626 37.7132 145.315 37.2762C145.233 37.1601 145.149 37.0447 145.066 36.9287C144.627 36.3117 144.185 35.6788 143.612 35.1785C142.361 34.0885 140.923 33.1913 139.501 32.3441C138.072 31.4924 136.592 30.7651 135.051 30.137C133.657 29.5688 132.203 29.2106 130.727 28.9283C129.792 28.7494 128.843 28.6067 127.894 28.5302C127.187 28.4732 126.465 28.6027 125.766 28.5098C126.011 28.5427 126.255 28.5755 126.5 28.6084C125.819 28.4687 125.202 28.1318 124.523 27.9857C123.982 27.8692 123.433 27.8209 122.882 27.8454C122.525 27.8614 122.175 27.8853 121.818 27.8394C122.063 27.8723 122.308 27.9052 122.554 27.9382C122.362 27.899 122.186 27.842 122.005 27.7688L122.666 28.0478C122.082 27.7887 121.505 27.4527 120.877 27.3214C120.422 27.2263 119.952 27.1908 119.493 27.1198C118.49 26.9649 117.611 26.5537 116.647 26.2677C115.719 25.9922 114.808 25.6471 113.861 25.4413C113.227 25.3036 112.562 25.188 111.912 25.1924C111.388 25.1958 110.873 25.2833 110.348 25.2286L111.087 25.328C110.109 25.1817 109.162 24.896 108.163 24.8842C107.273 24.8737 106.376 24.8274 105.486 24.8787C104.21 24.9523 103.054 25.2036 101.896 25.7389C101.009 26.149 100.268 26.8233 99.5023 27.4171L100.068 26.9803C99.7002 27.261 99.3282 27.5363 98.9006 27.7179L99.5683 27.4361C98.5912 27.8307 97.4466 28.1219 96.7246 28.9495C96.2322 29.5138 95.9052 30.1595 95.9052 30.9276C95.9052 31.6138 96.2099 32.4333 96.7246 32.9058C97.7788 33.8735 99.6534 34.0833 100.681 32.9058C100.713 32.8642 100.75 32.8268 100.791 32.7935L100.225 33.2309C100.42 33.0816 100.636 32.9801 100.861 32.8835C100.638 32.9774 100.415 33.0714 100.193 33.1654C100.812 32.9109 101.47 32.7162 102.054 32.3861C102.759 31.987 103.376 31.4257 104.012 30.9285C103.824 31.0741 103.636 31.2196 103.447 31.3652C103.867 31.0417 104.297 30.7481 104.781 30.5278C104.559 30.6215 104.336 30.7153 104.114 30.8091C104.615 30.6025 105.131 30.4784 105.667 30.4055L104.926 30.5051C105.57 30.4315 106.214 30.4278 106.861 30.4386C107.496 30.4492 108.144 30.4176 108.774 30.4929L108.034 30.3934C108.861 30.5171 109.66 30.759 110.501 30.8081C111.178 30.8476 111.841 30.7117 112.519 30.7925L111.78 30.6932C112.992 30.8676 114.154 31.3085 115.321 31.6627C115.893 31.8363 116.434 32.0993 117.009 32.262C117.794 32.4838 118.636 32.5509 119.439 32.658C119.194 32.625 118.948 32.592 118.703 32.559C119.11 32.6138 119.503 32.6621 119.888 32.8135L119.226 32.5344C119.663 32.7246 120.087 32.9352 120.533 33.1069C120.981 33.2793 121.398 33.3357 121.892 33.3831C122.475 33.4392 123.058 33.3266 123.641 33.3912C123.396 33.3583 123.151 33.3254 122.906 33.2925C123.351 33.3689 123.761 33.5301 124.183 33.6839C124.783 33.9022 125.415 34.0363 126.055 34.0538C126.486 34.0656 126.913 33.9927 127.344 34.0051C127.852 34.0197 128.357 34.0701 128.86 34.1353L128.129 34.0371C130.159 34.3174 132.164 34.7871 134.055 35.5842C133.838 35.4926 133.621 35.401 133.404 35.3094C135.625 36.2649 137.756 37.5159 139.721 38.9219C140.194 39.2601 139.248 38.5128 139.679 38.8907C139.795 38.9917 139.914 39.0865 140.025 39.193C140.205 39.3669 140.635 40.0186 140.17 39.3C140.577 39.9285 141.056 40.5493 141.559 41.1002C142.321 41.9359 143.233 42.6137 144.1 43.3325C144.531 43.689 144.957 44.0556 145.342 44.4609C145.438 44.5619 145.527 44.6682 145.62 44.7717C145.903 45.0874 145.487 44.5903 145.47 44.5729C145.704 44.8116 145.88 45.1602 146.056 45.4424C146.637 46.3739 147.221 47.3254 147.725 48.3013C148.298 49.412 148.842 50.5162 149.484 51.5912C150.085 52.5952 150.612 53.6525 151.27 54.62C152.018 55.7197 152.883 56.7368 153.769 57.7268C154.125 58.1257 154.481 58.5244 154.818 58.9404C154.913 59.0577 155.007 59.2224 155.12 59.3213L154.911 59.0521C154.976 59.1382 155.041 59.2248 155.106 59.3117C155.299 59.5724 155.488 59.8364 155.674 60.1028C157.034 62.0556 158.137 64.1838 159.552 66.0975C160.354 67.1828 161.201 68.1631 162.247 69.0178C163.188 69.786 164.082 70.5586 164.927 71.433C166.676 73.2432 168.332 75.141 170.117 76.9179C170.971 77.7684 171.741 78.7008 172.612 79.5337C173.573 80.4522 174.697 81.2195 175.856 81.8655C175.264 81.5357 175.531 81.6044 175.716 81.7678C175.82 81.8598 175.92 81.9563 176.016 82.0567C176.087 82.1307 176.152 82.2093 176.222 82.2844C176.384 82.481 176.333 82.4119 176.07 82.077C176.126 82.1509 176.181 82.2256 176.234 82.3012C176.601 82.8195 176.944 83.3755 177.411 83.8107C178.153 84.5022 179.112 84.9292 180.135 84.9325C180.947 84.9351 181.714 84.6567 182.506 84.5301C182.283 84.5601 182.06 84.5901 181.837 84.62C182.037 84.5972 182.228 84.5913 182.429 84.6066L181.76 84.5167C181.863 84.5284 181.964 84.5485 182.064 84.5771C181.694 83.1752 181.324 81.7734 180.953 80.3716C180.671 80.7217 180.391 81.0729 180.114 81.4274C179.896 81.707 179.679 81.9878 179.463 82.2697C179.36 82.4048 179.158 82.8068 179.009 82.8765C179.189 82.7925 179.309 82.5159 179.103 82.7423C179.035 82.8177 178.969 82.8946 178.899 82.969C178.764 83.114 178.623 83.2533 178.481 83.3918C178.187 83.6779 177.887 83.9573 177.613 84.2629C177.227 84.695 176.882 85.1661 176.547 85.6389C176.441 85.7885 176.336 85.9396 176.23 86.0887C176.149 86.2018 175.932 86.3493 176.192 86.1515C176.488 85.9262 176.166 86.1805 176.092 86.2655C175.529 86.9094 174.862 87.4532 174.264 88.0636C173.031 89.3239 171.936 90.7189 170.722 91.9994C169.487 93.302 168.121 94.459 166.835 95.7075C166.228 96.296 165.652 96.9163 165.032 97.4903C164.881 97.6295 164.726 97.7621 164.572 97.8966C164.449 98.0034 164.235 98.0886 164.698 97.808C164.631 97.8486 164.568 97.9037 164.505 97.9495C164.116 98.2296 163.721 98.5016 163.33 98.7797C161.849 99.834 160.388 100.916 158.97 102.054C158.839 102.159 158.65 102.222 159.146 101.92C159.074 101.964 159.004 102.026 158.936 102.075C158.814 102.163 158.69 102.248 158.562 102.328C158.476 102.382 157.945 102.639 158.369 102.465C158.751 102.308 158.484 102.434 158.397 102.443C158.169 102.465 159.071 102.446 158.649 102.41C158.663 102.411 159.283 102.537 158.945 102.426C158.98 102.438 159.478 102.704 159.197 102.505C159.225 102.524 159.633 102.905 159.389 102.644C159.347 102.599 159.301 102.557 159.26 102.512C158.9 102.123 159.531 102.933 159.249 102.493C159.149 102.337 159.065 102.174 158.978 102.01C158.175 100.488 157.067 99.1516 155.742 98.0548L155.512 97.8772C155.212 97.6458 155.206 97.6404 155.494 97.861C155.391 97.8282 155.272 97.6772 155.192 97.6095C155.012 97.4577 154.833 97.304 154.66 97.1451C154.505 97.004 154.354 96.8592 154.209 96.7084C154.209 96.7081 153.997 96.5102 153.998 96.4791C154.168 96.7099 154.207 96.76 154.113 96.6291C154.071 96.5702 154.03 96.5098 153.991 96.4482C153.758 96.0832 153.581 95.6862 153.401 95.2932C153.161 94.767 152.877 94.3316 152.512 93.8781C152.072 93.3309 151.534 92.8701 151.073 92.3388C150.343 91.4965 149.464 90.8255 148.304 90.7926C147.407 90.7671 146.527 91.4543 146.302 92.3165C146.032 93.3512 146.119 94.3316 146.321 95.368C146.363 95.5829 146.412 95.7964 146.455 96.011C146.47 96.0905 146.571 96.415 146.542 96.4915C146.505 96.2116 146.503 96.1955 146.536 96.4432C146.568 96.6864 146.601 96.9297 146.634 97.173C146.658 97.3468 146.682 97.5206 146.707 97.6943C146.823 98.5059 146.95 99.3157 147.072 100.126C147.132 100.531 147.203 100.937 147.248 101.344C147.189 100.811 147.262 101.458 147.276 101.565C147.301 101.768 147.325 101.971 147.348 102.175C147.535 103.852 147.615 105.54 147.914 107.205C147.963 107.483 148.02 107.759 148.07 108.037C148.094 108.168 148.117 108.299 148.138 108.431C148.153 108.52 148.167 108.61 148.18 108.7C148.135 108.356 148.127 108.302 148.154 108.538C148.175 108.827 148.201 109.113 148.191 109.404C148.19 109.468 148.186 109.531 148.181 109.595C148.157 109.83 148.167 109.76 148.209 109.386C148.141 109.492 148.126 109.699 148.078 109.821C149.132 109.393 150.186 108.964 151.24 108.535C151.05 108.415 151.105 108.461 151.407 108.671C151.621 108.973 151.668 109.032 151.546 108.849C151.375 108.533 151.713 109.398 151.547 108.852C151.461 108.569 151.416 108.276 151.349 107.988C151.255 107.579 151.083 107.172 150.879 106.806C150.794 106.654 150.694 106.511 150.6 106.364C150.56 106.303 150.384 105.926 150.329 105.913C150.452 106.235 150.476 106.285 150.401 106.065C150.373 105.964 150.347 105.861 150.325 105.758C150.279 105.553 150.245 105.345 150.211 105.138C150.153 104.772 150.103 104.404 150.017 104.044C149.915 103.617 149.757 103.205 149.593 102.798C149.461 102.469 149.313 102.146 149.182 101.817C149.442 102.469 149.037 101.478 148.951 101.285C148.873 101.109 148.793 100.933 148.713 100.757C148.668 100.656 148.622 100.555 148.576 100.454C148.475 100.229 148.485 100.253 148.606 100.525C148.497 100.423 148.455 100.05 148.42 99.9067C148.369 99.6982 148.329 99.4873 148.291 99.2759C148.15 98.4689 148.038 97.667 147.816 96.8758C147.605 96.121 147.356 95.3747 147.116 94.6282C146.755 93.5024 146.202 92.618 145.203 91.961C143.915 91.1134 142.332 92.0064 141.885 93.3108C141.567 94.2424 141.627 95.2784 141.699 96.2447C141.773 97.2263 141.746 98.2128 141.747 99.1965C141.75 101.405 141.752 103.614 141.753 105.823C141.754 106.867 141.721 107.918 141.761 108.961C141.775 109.306 141.822 109.649 141.816 109.994C141.815 110.063 141.801 110.143 141.806 110.209C141.768 109.754 141.892 109.698 141.836 109.912C141.747 110.248 142.009 109.573 142.076 109.488C142.183 109.326 142.326 109.2 142.505 109.111C142.353 109.196 142.387 109.185 142.607 109.08L142.798 108.995C142.577 109.043 142.68 109.033 143.107 108.964C143.039 108.958 142.951 108.974 142.884 108.975C142.702 108.978 142.519 108.967 142.337 108.955C141.979 108.929 141.621 108.879 141.263 108.875C140.097 108.863 138.898 109.136 137.774 109.428C137.246 109.565 136.722 109.724 136.188 109.839C135.98 109.884 135.772 109.923 135.562 109.957C135.482 109.97 135.378 109.974 135.297 109.998C135.888 109.827 135.52 109.967 135.335 109.986C134.827 110.039 134.314 110.065 133.803 110.052C133.598 110.047 133.34 109.977 133.142 110.01C133.541 109.943 133.555 110.075 133.289 110.027C133.155 110.003 133.023 109.972 132.891 109.937L134.409 112.61C134.612 112.103 134.685 111.538 134.724 110.997C134.74 110.786 134.741 110.575 134.751 110.364C134.755 110.264 134.762 110.163 134.768 110.063C134.788 109.688 134.739 110.174 134.749 110.179C134.716 110.16 135.098 109.096 135.122 108.977C135.19 108.633 135.239 108.251 135.255 107.893C135.257 107.836 135.29 107.647 135.258 107.6L135.199 107.909C135.255 107.684 135.282 107.456 135.282 107.226C135.311 106.342 135.337 105.474 135.418 104.592C135.519 103.482 135.437 102.422 135.264 101.321L135.353 101.986C135.214 100.935 135.222 99.877 135.061 98.8238C134.83 97.3106 133.975 95.692 132.361 95.317C131.101 95.0243 129.545 95.6992 129.26 97.0776C129.134 97.6906 128.944 98.2866 128.719 98.87C128.652 99.0412 128.41 99.4476 128.743 98.831C128.671 98.9646 128.62 99.1139 128.557 99.2527C128.421 99.5537 128.278 99.8515 128.129 100.147C127.857 100.689 127.58 101.237 127.256 101.75C127.081 102.028 126.89 102.291 126.7 102.558C126.584 102.712 126.641 102.64 126.87 102.341C126.808 102.421 126.745 102.5 126.682 102.579C126.587 102.697 126.491 102.815 126.394 102.932C125.476 104.045 124.507 105.137 123.766 106.38C123.435 106.936 123.144 107.516 122.816 108.074C122.665 108.332 122.502 108.581 122.334 108.827C122.044 109.253 122.712 108.423 122.377 108.769C122.309 108.85 122.238 108.928 122.163 109.002C122.519 108.757 122.591 108.698 122.379 108.826C122.589 108.738 122.799 108.649 123.009 108.56C122.948 108.591 122.885 108.612 122.818 108.623C123.052 108.592 123.286 108.561 123.519 108.529C123.46 108.539 123.4 108.538 123.341 108.527L124.042 108.621L123.957 108.599L124.587 108.865C124.564 108.855 124.419 108.782 124.42 108.781C124.451 108.771 124.868 109.194 124.748 109.029C124.669 108.919 124.544 108.821 124.451 108.719C124.201 108.444 123.947 108.176 123.691 107.906C123.161 107.347 122.664 106.759 122.127 106.206C121.47 105.529 120.735 104.923 119.943 104.408C119.632 104.206 119.313 104.018 119.001 103.818C118.897 103.751 118.648 103.502 118.54 103.506C118.576 103.504 119.042 103.923 118.697 103.624C118.616 103.554 118.535 103.486 118.455 103.416C117.878 102.905 117.355 102.337 116.782 101.822C116.069 101.179 115.282 100.611 114.505 100.048C113.213 99.1119 111.868 98.2327 110.483 97.4416C109.744 97.0193 108.958 96.6839 108.22 96.2644C108.142 96.2199 108.064 96.1732 107.988 96.1245C107.898 96.0665 107.56 95.813 107.924 96.0957C108.303 96.3901 107.809 95.9778 107.732 95.9005C107.684 95.8523 107.639 95.8016 107.592 95.753C107.288 95.4419 107.875 96.1797 107.709 95.9178C107.595 95.7378 107.484 95.5633 107.389 95.3717L107.656 96.0035C107.59 95.8454 107.54 95.696 107.515 95.5262L107.609 96.2293C107.603 96.1642 107.604 96.0993 107.612 96.0345L107.518 96.7376C107.526 96.6778 107.54 96.6197 107.561 96.5633L107.295 97.1951C107.421 96.9046 107.661 96.8349 107.129 97.342C107.231 97.2447 107.325 97.1304 107.42 97.0263C107.748 96.6693 108.065 96.2869 108.314 95.8712C108.52 95.5282 108.661 95.1509 108.859 94.8033C108.959 94.6256 109.072 94.4545 109.189 94.2871C109.238 94.2167 109.639 93.6848 109.346 94.0661C109.054 94.4474 109.464 93.9238 109.517 93.8569C109.752 93.5617 109.985 93.2643 110.212 92.9638C110.441 92.6624 110.667 92.3577 110.847 92.0243C111.302 91.1826 111.54 90.254 111.906 89.3763L111.639 90.0081C111.987 89.2301 112.407 88.5093 112.712 87.7052C112.951 87.0768 113.14 86.432 113.396 85.81L113.13 86.4418C113.657 85.2136 114.236 84.0137 114.656 82.7408C115.071 81.4811 114.933 80.1741 115.097 78.881L115.005 79.5647C115.038 79.3328 115.073 79.1014 115.124 78.8727C115.195 78.5534 115.419 78.2219 115.031 78.9515C115.26 78.5197 114.613 79.3965 114.851 79.1669C114.271 79.726 114.458 79.459 114.748 79.311C115.112 79.1253 114.185 79.542 114.486 79.4192C114.593 79.3757 114.699 79.3309 114.806 79.2863C115.152 79.1409 115.499 78.9948 115.841 78.8383C116.001 78.7652 116.285 78.6966 116.41 78.579L116.093 78.7126C116.165 78.6829 116.238 78.6548 116.312 78.6282C116.444 78.5802 116.577 78.5381 116.713 78.503C117.533 78.2915 118.397 78.2943 119.195 77.9954C119.826 77.759 120.333 77.4443 120.807 76.9639C120.919 76.8498 121.025 76.7288 121.136 76.6143C121.156 76.5944 121.28 76.4935 121.277 76.4752L120.946 76.7489C121.133 76.6539 121.123 76.6535 120.915 76.7479C120.508 76.9212 121.182 76.684 121.295 76.6477C121.641 76.5368 121.98 76.3995 122.306 76.2415C122.854 75.9758 123.34 75.5801 123.789 75.1734C124.084 74.9068 124.356 74.616 124.65 74.3496C124.738 74.2708 124.829 74.1974 124.918 74.1204C125.17 73.9014 124.415 74.4999 124.829 74.1885C125.158 73.942 125.484 73.6919 125.806 73.4383C126.635 72.7864 127.404 72.0145 127.898 71.0709C128.464 69.9898 128.698 68.8757 128.793 67.6665C128.935 65.8469 128.811 63.8859 127.848 62.2854C127.309 61.3903 126.549 60.6508 125.666 60.0989C124.709 59.5014 123.668 59.2691 122.564 59.1476C121.763 59.0595 120.959 59.0946 120.161 59.1947C119.051 59.3339 118.055 59.6173 116.993 59.9592C116.02 60.2723 115.007 60.3366 114.02 60.5798C113.063 60.8156 112.129 61.1711 111.207 61.5145C110.013 61.9587 108.845 62.4457 107.694 62.9903C106.772 63.4264 105.772 63.7863 104.904 64.3229C103.175 65.3923 102.107 67.0685 101.141 68.8053C102.45 68.9764 103.759 69.1475 105.068 69.3186C104.872 68.4217 104.36 67.7082 103.796 67.009C103.7 66.8905 103.602 66.7742 103.506 66.6562C103.179 66.256 103.677 66.9349 103.48 66.6195C103.278 66.2966 103.096 65.9722 102.932 65.6276C102.305 64.3028 101.46 63.1047 100.697 61.8544C100.293 61.1931 99.8843 60.5342 99.4377 59.9006C99.0309 59.3235 98.5972 58.7749 98.2637 58.1494C98.198 58.0263 98.1353 57.9016 98.0757 57.7755C98.0851 57.7952 97.9573 57.5271 97.9621 57.5239C97.9751 57.5152 98.1178 57.9344 98.0463 57.7122C97.9406 57.3834 97.819 57.0638 97.7316 56.7286C97.5633 56.0831 97.5333 55.3948 97.3233 54.7633C97.0717 54.0073 96.6668 53.3435 96.3003 52.644C96.2694 52.5851 96.0185 52.0925 96.1724 52.3953C96.3196 52.6849 96.1754 52.3709 96.1495 52.2849C96.1261 52.207 96.1046 52.1287 96.0852 52.0497C96.0595 51.9452 96.0411 51.8396 96.0188 51.7344C96.0075 51.6815 95.9775 51.4122 96.0077 51.6971C96.0381 51.9846 96.01 51.7102 96.005 51.6589C95.992 51.5258 95.9776 51.3927 95.9644 51.2596C95.9166 50.7794 95.8528 50.3018 95.7865 49.8236C95.761 49.6397 95.7353 49.4558 95.71 49.2719C95.6991 49.1926 95.6883 49.1134 95.6775 49.0342C95.6056 48.51 95.7173 49.3428 95.6775 49.0346C95.5803 48.2813 95.4849 47.5279 95.4055 46.7724C95.2421 45.2177 95.1438 43.6547 95.1318 42.0915C95.1259 41.328 95.1489 40.564 95.2098 39.8028C95.2249 39.6135 95.2426 39.4245 95.2627 39.2357C95.2758 39.1119 95.2874 38.5618 95.2808 39.0411C95.2859 38.6734 95.4004 38.2781 95.4732 37.9184C95.5564 37.5076 95.6524 37.0985 95.7651 36.6946C95.8199 36.498 95.8857 36.3054 95.9462 36.1106C95.9735 36.0227 96.0884 35.7757 95.9206 36.1471C95.9913 35.9904 96.0421 35.6661 96.1463 35.538C96.1398 35.5461 95.9967 35.8342 96.1062 35.6404C96.1683 35.5304 96.2183 35.4134 96.2825 35.3041C96.3459 35.1958 96.6592 34.7816 96.4222 35.0685C96.6707 34.7676 96.9381 34.4839 97.1945 34.1898C97.5079 33.8304 97.8159 33.4522 98.0798 33.0542C98.1531 32.9437 98.1793 32.8938 98.2388 32.7529C98.3361 32.5366 98.3513 32.4952 98.2844 32.6287C98.237 32.7174 98.2356 32.7222 98.2804 32.643C98.3737 32.5012 98.4541 32.3508 98.5481 32.209C98.594 32.1398 98.6438 32.0733 98.6897 32.0042C98.803 31.8338 98.5484 32.1454 98.6951 32.0015C98.8113 31.8876 98.9148 31.7628 99.0344 31.6514C99.1423 31.5509 99.0224 31.6525 99.0014 31.668C99.0835 31.6073 99.1708 31.5528 99.2597 31.5025C99.3131 31.4723 99.3674 31.4417 99.4234 31.4165C99.2481 31.4955 99.6137 31.3659 99.6158 31.3653C100.151 31.2144 100.446 30.75 100.487 30.2211L100.508 29.9497C100.551 29.3851 100.036 28.8802 99.5081 28.8173C98.9244 28.7479 98.4278 29.0856 98.243 29.6433Z" fill="#454441"/>
<path d="M79.8307 122.034C80.3465 121.908 80.8694 121.817 81.393 121.729C81.6487 121.686 81.9046 121.644 82.1595 121.596C82.4144 121.549 82.6687 121.477 82.9251 121.441L82.648 121.478C83.3075 121.432 83.9502 121.293 84.6037 121.205L84.2368 121.254C84.7182 121.193 85.1712 121.23 85.6521 121.258C86.2203 121.291 86.6889 121.027 87.2284 120.93L86.7458 120.995C87.0381 120.955 87.3267 121.007 87.6193 120.997C88.0094 120.983 88.4035 120.917 88.7728 120.79C89.2884 120.612 89.8038 120.395 90.3461 120.314L89.8532 120.38C90.2751 120.329 90.6926 120.429 91.114 120.381C91.4594 120.341 91.7827 120.301 92.1049 120.176C92.4199 120.054 92.7242 119.91 93.034 119.776L92.602 119.958C92.9071 119.831 93.2186 119.76 93.5455 119.715L93.0752 119.778C93.6923 119.7 94.3361 119.686 94.9328 119.5C95.2793 119.393 95.6152 119.237 95.9301 119.057C96.1383 118.938 96.3436 118.816 96.5649 118.723L96.1745 118.887C96.5777 118.729 97.0083 118.636 97.4218 118.507C97.9478 118.344 98.4487 118.123 98.9557 117.909L98.6048 118.057C99.2654 117.78 99.9382 117.52 100.651 117.415L100.297 117.462C100.771 117.399 101.247 117.388 101.717 117.281C102.064 117.203 102.404 117.1 102.757 117.052L102.441 117.095C102.811 117.047 103.194 117.02 103.554 116.913C103.907 116.809 104.218 116.629 104.542 116.461C104.584 116.439 104.786 116.35 104.613 116.424C104.44 116.497 104.649 116.414 104.694 116.398C104.823 116.353 104.954 116.315 105.086 116.278C105.265 116.229 105.447 116.161 105.613 116.076C105.801 115.98 105.951 115.828 106.033 115.633C106.054 115.582 106.066 115.548 106.084 115.503C106.102 115.455 106.117 115.464 106.063 115.555L105.852 115.766C106.337 115.554 106.768 115.235 107.022 114.761C107.202 114.427 106.793 114.142 106.516 114.371C106.361 114.499 106.229 114.558 106.057 114.605C106.013 114.617 105.968 114.627 105.922 114.636C105.887 114.643 105.782 114.659 105.876 114.647C105.769 114.66 105.662 114.665 105.555 114.668L105.852 114.748L105.794 114.707L106.031 114.943C105.929 114.81 105.835 114.683 105.692 114.591C105.51 114.474 105.286 114.469 105.079 114.452C104.882 114.435 104.678 114.457 104.482 114.478C104.224 114.507 103.961 114.537 103.711 114.61C103.501 114.67 103.298 114.737 103.08 114.767L103.371 114.728C103.123 114.757 102.877 114.74 102.629 114.722C102.337 114.699 102.049 114.728 101.76 114.762C101.461 114.798 101.162 114.835 100.86 114.825C100.537 114.814 100.223 114.792 99.8996 114.822C99.125 114.894 98.3783 115.068 97.6317 115.278C97.0005 115.455 96.3623 115.554 95.7161 115.658C95.3738 115.713 95.0643 115.806 94.7445 115.94C94.4318 116.07 94.1257 116.19 93.7887 116.239L94.2465 116.178C93.7257 116.245 93.1985 116.21 92.6776 116.275C92.2743 116.325 91.9069 116.376 91.5267 116.51C91.2801 116.597 91.0379 116.687 90.7787 116.73L91.269 116.664C90.9486 116.705 90.6266 116.653 90.3054 116.645C89.8619 116.634 89.4055 116.703 88.9794 116.826C88.4037 116.993 87.8537 117.311 87.2582 117.398C87.4201 117.377 87.5821 117.355 87.744 117.333C87.545 117.355 87.348 117.342 87.1485 117.339C87.0474 117.337 86.9475 117.34 86.8468 117.349C86.6188 117.371 86.3711 117.388 86.1485 117.454C85.8879 117.531 85.6159 117.662 85.3863 117.815C85.2637 117.896 85.1462 117.983 85.0148 118.051L85.4247 117.878C85.2403 117.951 85.0611 118.034 84.8823 118.116L85.2853 117.946C85.0447 118.045 84.79 118.105 84.5486 118.203C84.2374 118.33 83.9309 118.46 83.6383 118.625C83.1795 118.884 82.757 119.199 82.2915 119.447C82.2633 119.462 82.235 119.477 82.2066 119.492C82.1361 119.527 82.1705 119.515 82.3098 119.456C82.2538 119.46 82.1763 119.495 82.1219 119.511C81.997 119.545 81.8716 119.578 81.7458 119.61C81.4743 119.678 81.2013 119.739 80.9282 119.8C80.3905 119.921 79.8534 120.043 79.3259 120.203C78.8512 120.347 78.5019 120.874 78.6627 121.371C78.8248 121.872 79.3135 122.161 79.8307 122.034Z" fill="#454441"/>
<path d="M92.8028 126.609C93.2117 127.451 93.6204 128.293 94.0307 129.134C94.4358 129.965 94.8219 130.81 95.2583 131.625C95.6577 132.371 96.1683 133.053 96.5382 133.815C96.6278 133.999 96.7172 134.184 96.7993 134.372C96.8718 134.538 96.7854 134.383 96.7996 134.371C96.7976 134.373 96.8426 134.476 96.8488 134.492C96.8976 134.613 96.945 134.734 96.992 134.856C97.1687 135.313 97.3434 135.772 97.5503 136.217C97.7663 136.681 98.0501 137.109 98.3684 137.51C98.2352 137.342 98.3273 137.459 98.3583 137.503C98.3976 137.56 98.4349 137.617 98.4684 137.677C98.514 137.759 98.5521 137.845 98.5906 137.93C98.7065 138.188 98.8345 138.406 99.0223 138.622C99.277 138.915 99.7587 138.906 100.046 138.683C100.343 138.454 100.456 138.008 100.247 137.677C100.23 137.65 100.159 137.561 100.164 137.528C100.163 137.53 100.225 137.713 100.182 137.562C100.156 137.472 100.128 137.383 100.103 137.293C100.037 137.054 99.9493 136.825 99.8379 136.603C99.6539 136.237 99.3739 135.93 99.1875 135.563C99.138 135.465 99.0908 135.367 99.0454 135.267C99.0273 135.227 99.0099 135.187 98.992 135.147C98.9037 134.951 99.0426 135.274 98.9912 135.147C98.9053 134.935 98.8215 134.723 98.7392 134.509C98.5636 134.054 98.3892 133.594 98.1718 133.156C97.804 132.416 97.2345 131.786 96.7662 131.11C96.248 130.363 95.8088 129.553 95.3443 128.772C94.808 127.869 94.274 126.965 93.7397 126.061C93.5907 125.809 93.2512 125.718 92.9974 125.867C92.7283 126.024 92.6743 126.345 92.8028 126.609Z" fill="#454441"/>
<path d="M100.078 139.677C100.175 139.888 100.274 140.098 100.373 140.308C100.419 140.407 100.457 140.496 100.483 140.602C100.508 140.706 100.534 140.811 100.555 140.916L100.931 140.54C100.766 140.478 100.606 140.486 100.446 140.567C100.345 140.618 100.249 140.691 100.172 140.774C100.092 140.859 100.021 140.956 99.9738 141.063C99.942 141.135 99.9078 141.209 99.8881 141.286C99.8428 141.462 99.8699 141.612 99.9471 141.776L100.136 141.058L100.026 141.141C99.8735 141.257 99.7782 141.4 99.8054 141.602C99.8291 141.778 99.9584 141.942 100.137 141.986L100.261 142.018C100.473 142.071 100.751 141.986 100.854 141.776C100.903 141.676 100.942 141.569 100.942 141.455C100.941 141.415 100.934 141.376 100.935 141.336C100.935 141.32 100.938 141.303 100.937 141.287C100.935 141.236 100.912 141.395 100.93 141.348C100.94 141.32 100.956 141.274 100.959 141.245C100.957 141.259 100.908 141.345 100.941 141.293C100.95 141.28 100.956 141.265 100.965 141.252C100.972 141.24 100.986 141.226 100.992 141.213C100.986 141.227 100.928 141.288 100.97 141.245C101.036 141.177 101.083 141.102 101.113 141.012C101.12 140.989 101.152 140.902 101.114 140.99C101.174 140.849 101.161 140.737 101.066 140.619C101.093 140.652 101.027 140.568 101.02 140.56C101.004 140.539 100.989 140.519 100.973 140.499C100.94 140.457 100.906 140.416 100.873 140.374C100.807 140.293 100.761 140.203 100.709 140.111C100.596 139.91 100.482 139.708 100.371 139.506C100.264 139.311 99.9892 139.482 100.078 139.677Z" fill="#454441"/>
<path d="M104.314 115.685C104.33 115.899 104.38 116.074 104.466 116.269C104.483 116.309 104.502 116.347 104.519 116.387C104.509 116.364 104.495 116.308 104.528 116.411C104.541 116.449 104.553 116.486 104.563 116.526C104.569 116.548 104.587 116.712 104.579 116.607C104.606 116.977 104.558 117.335 104.612 117.705C104.719 118.446 105.013 119.144 105.294 119.832C105.848 121.192 106.185 122.649 106.979 123.9C107.172 124.206 107.339 124.526 107.527 124.833C107.616 124.98 107.7 125.129 107.787 125.277C107.804 125.305 107.818 125.334 107.834 125.363C107.899 125.476 107.805 125.266 107.833 125.351C107.863 125.442 107.892 125.529 107.911 125.622C108.011 126.106 108.777 126.218 108.996 125.764C109.195 125.349 109.291 124.916 109.219 124.457C109.16 124.082 108.999 123.753 108.805 123.43C108.643 123.162 108.465 122.903 108.309 122.631C108.224 122.484 108.147 122.332 108.076 122.178C108.059 122.141 108.042 122.103 108.025 122.066C107.96 121.922 108.035 122.088 108.043 122.11C108.008 122.012 107.964 121.917 107.926 121.82C107.638 121.076 107.379 120.333 107.005 119.625C106.829 119.294 106.644 118.968 106.471 118.636C106.385 118.473 106.303 118.309 106.225 118.143C106.202 118.094 106.181 118.046 106.158 117.997C106.147 117.972 106.105 117.868 106.156 117.995C106.116 117.896 106.078 117.797 106.043 117.697C105.913 117.325 105.856 116.937 105.744 116.56C105.684 116.358 105.599 116.156 105.489 115.976C105.443 115.901 105.39 115.831 105.342 115.758C105.275 115.657 105.276 115.67 105.246 115.558C105.113 115.054 104.273 115.139 104.314 115.685Z" fill="#454441"/>
<path d="M110.829 129.313C111.069 129.868 111.426 130.381 111.598 130.937C111.656 131.123 111.67 131.32 111.74 131.502C111.842 131.766 112.005 131.978 112.194 132.186C112.434 132.451 112.873 132.393 113.079 132.126C113.282 131.863 113.235 131.415 112.913 131.254C112.814 131.205 112.714 131.154 112.623 131.091C112.605 131.079 112.538 131.03 112.612 131.085C112.686 131.14 112.619 131.089 112.607 131.077C112.58 131.049 112.553 131.02 112.526 130.992C112.481 130.948 112.554 131.019 112.555 131.031C112.554 131.02 112.525 130.989 112.518 130.979C112.491 130.94 112.467 130.901 112.443 130.861C112.429 130.839 112.417 130.815 112.402 130.794C112.361 130.733 112.41 130.825 112.391 130.779C112.357 130.696 112.323 130.613 112.286 130.531C112.041 129.985 111.645 129.526 111.356 129.005C111.276 128.861 111.078 128.813 110.938 128.895C110.782 128.987 110.763 129.161 110.829 129.313Z" fill="#454441"/>
<path d="M116.894 115.018C117.128 115.517 117.387 116.004 117.63 116.499C117.746 116.735 117.85 116.975 117.962 117.213C118.089 117.483 118.265 117.719 118.448 117.952C118.732 118.314 119.055 118.643 119.344 119.001C119.468 119.155 119.229 118.83 119.339 118.996C119.37 119.043 119.403 119.088 119.433 119.135C119.5 119.241 119.563 119.349 119.626 119.458C119.766 119.698 119.9 119.941 120.034 120.184C120.535 121.104 121.013 122.043 121.632 122.891C122.267 123.76 122.732 124.725 123.258 125.66C123.418 125.945 123.558 126.267 123.791 126.498C123.863 126.569 123.937 126.633 123.992 126.717C124.036 126.785 124.071 126.859 124.112 126.929C124.331 127.302 124.63 127.602 125.086 127.515C125.49 127.438 125.316 126.768 124.915 126.893C124.906 126.896 124.859 126.903 124.857 126.904C124.872 126.892 124.932 126.935 124.868 126.894L124.978 127.003C124.926 126.929 124.932 126.948 124.913 126.873C124.904 126.837 124.896 126.801 124.889 126.764C124.865 126.642 124.895 126.84 124.882 126.72C124.865 126.562 124.833 126.379 124.847 126.239C124.878 125.926 124.768 125.656 124.646 125.376C124.542 125.136 124.434 124.898 124.332 124.658C124.306 124.598 124.281 124.538 124.256 124.479C124.172 124.281 124.312 124.612 124.229 124.415C124.162 124.257 124.095 124.098 124.028 123.94C123.926 123.702 123.815 123.468 123.698 123.237C123.475 122.797 123.214 122.388 122.945 121.976C122.395 121.131 121.973 120.213 121.528 119.311C121.31 118.871 121.102 118.406 120.819 118.003C120.54 117.606 120.194 117.275 119.87 116.917C119.833 116.877 119.796 116.836 119.761 116.794C119.737 116.766 119.713 116.738 119.69 116.71C119.632 116.638 119.644 116.654 119.726 116.758C119.727 116.75 119.661 116.669 119.661 116.669C119.619 116.609 119.579 116.547 119.541 116.484C119.403 116.249 119.296 115.994 119.169 115.751C118.895 115.225 118.598 114.71 118.329 114.18C118.132 113.791 117.554 113.649 117.192 113.882C116.786 114.143 116.696 114.596 116.894 115.018Z" fill="#454441"/>
<path d="M131.248 116.303C131.34 116.355 131.427 116.413 131.511 116.476L131.313 116.324C131.466 116.444 131.601 116.581 131.72 116.734L131.565 116.533C131.698 116.71 131.807 116.9 131.895 117.103L131.792 116.861C131.899 117.117 131.97 117.385 132.009 117.66L131.972 117.383C132.011 117.686 132.011 117.991 131.972 118.294C131.939 118.544 132.115 118.879 132.285 119.049C132.47 119.234 132.774 119.374 133.04 119.362C133.651 119.334 134.067 118.892 134.108 118.294C134.205 116.88 133.543 115.284 132.224 114.634C131.989 114.518 131.739 114.465 131.479 114.536C131.255 114.598 131.012 114.771 130.902 114.981C130.659 115.44 130.779 116.035 131.248 116.303Z" fill="#454441"/>
<path d="M88.1987 135.167C88.2755 135.543 88.3757 135.912 88.4656 136.285C88.4888 136.381 88.508 136.478 88.5325 136.574C88.516 136.51 88.5325 136.559 88.5373 136.598C88.5424 136.64 88.5467 136.682 88.5508 136.724C88.5693 136.914 88.5794 137.106 88.5752 137.297C88.5733 137.382 88.5665 137.467 88.5607 137.552C88.5497 137.712 88.5799 137.457 88.5614 137.557C88.5537 137.598 88.5479 137.64 88.541 137.682C88.5111 137.86 88.4793 138.038 88.4536 138.217C88.4187 138.46 88.3705 138.715 88.3891 138.963C88.4075 139.207 88.4551 139.449 88.4911 139.691L88.453 139.408C88.4715 139.548 88.4781 139.685 88.4645 139.826L88.5048 139.526C88.4602 139.832 88.2934 140.092 88.2223 140.388C88.1096 140.858 88.1802 141.246 88.2445 141.715L88.1963 141.356C88.2177 141.537 88.2247 141.712 88.2029 141.893L88.2529 141.521C88.2043 141.859 88.1294 142.192 88.1028 142.533C88.0782 142.848 88.1442 143.197 88.2619 143.492C88.3722 143.769 88.4823 144.012 88.6596 144.248C88.7729 144.399 88.9064 144.593 89.0431 144.737C89.1837 144.885 89.379 144.985 89.5507 145.094C90.0028 145.383 90.6306 145.305 91.0383 144.99C91.4644 144.66 91.6545 144.109 91.5183 143.582C91.4482 143.31 91.3508 143.056 91.1835 142.83C91.0875 142.7 91.0008 142.566 90.9336 142.419L91.0799 142.765C91.0246 142.632 90.9902 142.497 90.9703 142.354L91.0224 142.742C90.9907 142.437 91.0169 142.137 91.0016 141.832C90.9896 141.592 90.9673 141.338 90.8879 141.109C90.8106 140.886 90.7063 140.673 90.6123 140.456L90.7449 140.77C90.7104 140.687 90.6834 140.604 90.667 140.515L90.7127 140.855C90.6832 140.627 90.7259 140.401 90.7363 140.173C90.7507 139.858 90.7076 139.528 90.5929 139.233C90.5246 139.058 90.4471 138.886 90.3649 138.717C90.3405 138.666 90.3187 138.613 90.2923 138.564C90.4218 138.806 90.3345 138.665 90.3104 138.585C90.2745 138.465 90.2569 138.34 90.2369 138.217C90.2012 137.997 90.262 138.428 90.2342 138.2C90.2262 138.135 90.2181 138.069 90.2101 138.004C90.1727 137.699 90.1397 137.393 90.0576 137.096C89.9792 136.812 89.8675 136.539 89.7501 136.269C89.7 136.155 89.7626 136.312 89.7145 136.18C89.6919 136.118 89.6675 136.056 89.6434 135.994C89.5992 135.881 89.5536 135.768 89.508 135.655C89.4055 135.401 89.3034 135.146 89.2122 134.888C89.1179 134.62 88.8531 134.442 88.5657 134.521C88.2764 134.6 88.1416 134.888 88.1987 135.167Z" fill="#454441"/>
<path d="M87.9487 13.0535C87.8239 12.6254 87.6756 12.192 87.5897 11.7542L87.6262 12.0259C87.5996 11.5976 87.5778 11.1691 87.5624 10.7403C87.5434 10.2111 87.4265 9.67837 87.3555 9.15297L87.4055 9.52491C87.2499 8.36015 87.1585 7.1938 87.0997 6.02066C87.07 5.4286 87.0249 4.83845 87.0099 4.24547C87.0023 3.94414 86.9987 3.6427 86.999 3.34129C86.9994 3.04517 86.9963 2.76625 86.9187 2.47127C86.8795 2.32232 86.8378 2.17399 86.7987 2.02501C86.6241 1.36039 85.932 0.798566 85.2292 0.83006C84.5263 0.861553 83.8343 1.31027 83.6597 2.02501C83.6183 2.19443 83.5743 2.36395 83.5389 2.53475C83.4666 2.88277 83.4824 3.16921 83.5069 3.50972C83.5334 3.87711 83.5656 4.24408 83.6039 4.61041C83.6922 5.45517 83.8005 6.29738 83.9724 7.12938C84.1164 7.82681 84.2819 8.5197 84.466 9.20761C84.6748 9.98773 84.8826 10.7696 85.2237 11.5033C85.3042 11.6766 85.3859 11.8494 85.4686 12.0217C85.5103 12.1084 85.5522 12.195 85.5943 12.2814C85.6131 12.32 85.632 12.3585 85.6509 12.397C85.7379 12.5744 85.6255 12.4045 85.6408 12.3609C85.619 12.4232 85.7104 12.6178 85.7286 12.6842C85.7524 12.7706 85.7764 12.8571 85.8006 12.9434C85.8615 13.1608 85.9237 13.3777 85.9869 13.5944C86.1357 14.1049 86.71 14.4759 87.2382 14.3049C87.7563 14.1373 88.1082 13.6008 87.9487 13.0535Z" fill="#454441"/>
<path d="M101.701 11.9322C101.763 11.6171 101.839 11.3054 101.932 10.9978C102.022 10.6952 102.076 10.3829 102.155 10.0766C102.311 9.47492 102.51 8.88576 102.723 8.30219C103.127 7.19383 103.437 6.04701 103.893 4.95816L103.699 5.41733C103.946 4.83463 104.251 4.2846 104.638 3.78229L104.324 4.18866C104.433 4.04882 104.548 3.9143 104.664 3.78104C104.958 3.44668 105.076 3.26697 105.221 2.84616C105.234 2.80962 105.246 2.77283 105.258 2.73619C105.29 2.63883 105.324 2.54184 105.359 2.44559C105.387 2.36928 105.421 2.29405 105.447 2.21713C105.675 1.5518 105.356 0.78507 104.827 0.376674C104.631 0.224814 104.488 0.134517 104.224 0.0625596L103.758 0C103.442 0.000996643 103.147 0.0806991 102.874 0.239137C102.777 0.281765 102.681 0.32539 102.585 0.370752C102.502 0.409934 102.42 0.450311 102.339 0.492C101.953 0.689363 101.726 0.97674 101.473 1.31847C101.363 1.46715 101.257 1.61892 101.158 1.77525C100.973 2.06581 100.812 2.37047 100.675 2.68593C100.309 3.5243 100.041 4.36484 99.8359 5.25527C99.6237 6.17862 99.39 7.0955 99.2295 8.02981C99.1196 8.66952 99.027 9.31549 98.9814 9.96322C98.9349 10.6233 99.047 11.2864 99.1835 11.9322C99.2967 12.468 99.8983 12.915 100.442 12.8907C100.674 12.8803 100.896 12.8208 101.101 12.7125C101.363 12.5741 101.644 12.2266 101.701 11.9322Z" fill="#454441"/>
<path d="M117.949 14.6298C117.937 14.5315 117.94 14.4345 117.951 14.3364L117.9 14.721C117.93 14.4993 118.002 14.2876 118.087 14.0812L117.936 14.4393C118.231 13.7435 118.663 13.0982 119.051 12.451C119.243 12.1294 119.415 11.7965 119.605 11.4738C119.888 10.9951 120.2 10.5352 120.539 10.0946L120.274 10.437C120.63 9.97856 121.019 9.55713 121.407 9.12689C121.577 8.93884 121.768 8.74384 121.869 8.51182C121.967 8.28849 122.075 8.06088 122.14 7.82405C122.263 7.37565 122.281 6.9011 122.163 6.45002C122.019 5.90312 121.45 5.44076 120.871 5.46668C120.25 5.4945 119.785 5.87032 119.579 6.45002C119.57 6.47759 119.56 6.50467 119.549 6.53124L119.686 6.20508C119.65 6.28321 119.606 6.35375 119.554 6.42252L119.779 6.13033C119.694 6.23523 119.595 6.32456 119.488 6.40756L119.805 6.16256C119.599 6.31639 119.377 6.44871 119.186 6.62364C119.082 6.71863 118.983 6.81812 118.878 6.91206C118.671 7.09679 118.458 7.27416 118.286 7.49317C117.747 8.18313 117.249 8.89279 116.833 9.66477C116.587 10.1201 116.371 10.5902 116.128 11.0471C115.824 11.6171 115.548 12.199 115.338 12.8107C115.1 13.5028 114.949 14.2885 115.151 15.0084C115.344 15.6931 116.018 16.122 116.714 16.0286C117.013 15.9884 117.322 15.8657 117.532 15.6369C117.769 15.3779 117.993 14.9958 117.949 14.6298Z" fill="#454441"/>
<path d="M132.637 17.7008C132.706 17.6419 132.778 17.5851 132.85 17.5292L132.593 17.7281C132.824 17.5497 133.058 17.3743 133.289 17.1955C133.45 17.0709 133.591 16.9246 133.726 16.7728C133.918 16.5581 134.103 16.3302 134.252 16.0834C134.321 15.968 134.372 15.8473 134.424 15.7231C134.459 15.6402 134.499 15.5609 134.519 15.4732C134.548 15.3384 134.561 15.1991 134.578 15.063L134.539 14.7701C134.505 14.6267 134.439 14.5018 134.341 14.3953C134.201 14.2132 134 14.053 133.769 14.0004C133.575 13.9563 133.377 13.9563 133.183 14.0004C132.923 14.0595 132.655 14.2784 132.524 14.5069C132.471 14.6013 132.406 14.693 132.34 14.7795L132.52 14.5464C132.387 14.7169 132.225 14.8617 132.055 14.9945L132.301 14.8042C132.209 14.8756 132.113 14.9434 132.016 15.0086C131.835 15.1303 131.664 15.2636 131.491 15.3972L131.748 15.1984C131.445 15.4322 131.131 15.6553 130.838 15.9026C130.714 16.0177 130.627 16.1541 130.575 16.3118C130.496 16.4633 130.459 16.6266 130.466 16.8017C130.459 16.9768 130.496 17.1401 130.575 17.2916C130.627 17.4493 130.714 17.5857 130.838 17.7008C131.081 17.9233 131.399 18.0884 131.737 18.0733L132.075 18.0278C132.291 17.9674 132.478 17.8584 132.637 17.7008Z" fill="#454441"/>
<path d="M138.219 120.046C141.206 120.046 147.227 121.113 156.045 123.583C164.662 125.997 173.308 131.014 182.449 136.281C191.213 141.331 197.902 146.968 204.453 153.299C212.925 162.831 218.189 169.615 219.156 171.659C219.696 172.635 220.336 173.489 221.643 175.015" stroke="#454441" stroke-width="5.58344" stroke-linecap="round"/>
<path d="M86.3628 145.267C86.3628 147.628 82.5214 162.172 79.899 172.732C78.9739 176.458 78.8223 179.529 77.9589 182.333C77.7423 183.196 77.5289 184.263 77.3122 185.133C77.0956 186.003 76.8822 186.643 75.3689 186.009" stroke="#454441" stroke-width="5.58344" stroke-linecap="round"/>
</svg>
