<svg width="114" height="97" viewBox="0 0 114 97" fill="none" xmlns="http://www.w3.org/2000/svg">
<g filter="url(#filter0_di_1868_10697)">
<rect x="23.1699" y="12.9441" width="54" height="54" rx="11.7101" transform="rotate(-9.61466 23.1699 12.9441)" fill="#FCFCFC"/>
<rect x="25.4759" y="14.582" width="50" height="50" rx="9.71014" transform="rotate(-9.61466 25.4759 14.582)" stroke="#555149" stroke-width="4"/>
<path d="M56.3307 37.8981C56.9295 38.1018 57.8688 38.4213 58.551 38.8744C58.9758 39.1565 59.4363 39.5727 59.6094 40.1718C59.7968 40.8201 59.5919 41.4689 59.1273 42.0644C58.3475 43.0641 57.3423 43.9426 55.8872 44.1891L49.0755 45.343C47.6204 45.5895 46.3819 45.0911 45.3164 44.404C44.6816 43.9947 44.2745 43.4496 44.2378 42.7758C44.2039 42.153 44.5017 41.6084 44.8099 41.2021C45.3049 40.5496 46.0865 39.9386 46.5847 39.5491C46.6957 39.4624 46.7926 39.3866 46.8692 39.3238C49.3913 37.2556 52.9254 36.6569 55.988 37.7791C56.081 37.8131 56.1974 37.8527 56.3307 37.8981Z" fill="#605B51"/>
<path d="M45.462 31.9783C45.0229 29.3861 46.779 26.9268 49.3844 26.4855C51.9898 26.0441 54.4578 27.7878 54.8969 30.38C55.3361 32.9723 53.58 35.4315 50.9746 35.8728C48.3692 36.3142 45.9012 34.5706 45.462 31.9783Z" fill="#605B51"/>
<path d="M55.8422 33.7703C55.6891 34.0686 55.6126 34.2177 55.6723 34.3423C55.7321 34.467 55.874 34.5045 56.1579 34.5796C56.7486 34.7359 57.391 34.7712 58.0456 34.6603C60.3034 34.2779 61.8512 32.3003 61.5028 30.2434C61.1543 28.1865 59.0415 26.8291 56.7837 27.2115C56.5375 27.2532 56.2998 27.3139 56.072 27.3916C55.7899 27.4878 55.6489 27.5359 55.592 27.665C55.5351 27.7942 55.6151 27.9376 55.7752 28.2244C56.0912 28.7906 56.3157 29.4139 56.4288 30.0813C56.648 31.3751 56.417 32.65 55.8422 33.7703Z" fill="#605B51"/>
<path d="M62.3178 42.11C63.7917 41.8603 64.841 41.0925 65.673 40.2151C66.166 39.695 66.4436 39.0858 66.245 38.4563C66.0666 37.8909 65.5641 37.5327 65.145 37.3095C64.4584 36.9438 63.506 36.7004 62.9058 36.547C62.7733 36.5131 62.6579 36.4836 62.5664 36.4582C61.3922 36.1319 60.1422 36.019 58.8995 36.1056C58.098 36.1615 57.6973 36.1894 57.6436 36.4191C57.5898 36.6488 57.9797 36.8191 58.7595 37.1597C59.0556 37.289 59.3452 37.4323 59.6045 37.5886C60.1882 37.9404 61.0687 38.6023 61.4013 39.7103C61.5555 40.2239 61.5617 40.7199 61.4657 41.1853C61.3514 41.7396 61.2942 42.0167 61.4026 42.1251C61.4096 42.1321 61.4137 42.1359 61.4213 42.1422C61.5391 42.2419 61.7987 42.198 62.3178 42.11Z" fill="#605B51"/>
</g>
<path d="M31.2708 82.4312L29.026 82.8115C28.9358 82.528 28.8084 82.2842 28.6438 82.0801C28.4786 81.8726 28.2833 81.7054 28.0579 81.5784C27.8326 81.4513 27.5828 81.3671 27.3087 81.3257C27.038 81.2837 26.7523 81.2881 26.4516 81.3391C25.9083 81.4311 25.458 81.6462 25.1005 81.9844C24.7425 82.3192 24.4959 82.7617 24.3606 83.3118C24.2248 83.8585 24.2185 84.4958 24.3418 85.2235C24.4685 85.9718 24.6861 86.5816 24.9944 87.0531C25.3061 87.524 25.6856 87.8551 26.1327 88.0465C26.5799 88.2379 27.0683 88.2887 27.5978 88.199C27.8951 88.1486 28.1635 88.0627 28.403 87.9413C28.6459 87.8193 28.8538 87.6664 29.0265 87.4825C29.1986 87.2952 29.331 87.0812 29.4238 86.8405C29.52 86.5993 29.57 86.3342 29.5738 86.0454L31.8203 85.6754C31.8439 86.1669 31.7774 86.6562 31.6208 87.1432C31.4672 87.6261 31.2254 88.0765 30.8955 88.4944C30.5685 88.9083 30.1541 89.2632 29.6524 89.5591C29.1535 89.851 28.5676 90.0539 27.8945 90.1679C26.9583 90.3265 26.0853 90.2565 25.2756 89.9578C24.4692 89.6586 23.7845 89.1437 23.2214 88.4131C22.6617 87.682 22.2852 86.7458 22.0919 85.6047C21.898 84.4601 21.9483 83.4498 22.2428 82.574C22.5373 81.6981 23.0179 80.9876 23.6847 80.4423C24.351 79.8936 25.1453 79.5412 26.0678 79.3849C26.676 79.2819 27.2542 79.2718 27.8025 79.3546C28.3542 79.4369 28.8594 79.6079 29.3181 79.8676C29.7763 80.1239 30.1717 80.4664 30.5044 80.895C30.8405 81.3231 31.096 81.8352 31.2708 82.4312ZM37.4151 88.5657C36.619 88.7005 35.9019 88.648 35.2638 88.4082C34.6285 88.1643 34.1022 87.7649 33.6848 87.21C33.2669 86.6517 32.9896 85.9693 32.853 85.163C32.7153 84.3498 32.752 83.6125 32.9634 82.9511C33.1741 82.2863 33.5395 81.7358 34.0596 81.2998C34.5826 80.8597 35.2421 80.5722 36.0382 80.4374C36.8343 80.3025 37.55 80.357 38.1853 80.6009C38.8234 80.8407 39.3514 81.2398 39.7694 81.7982C40.1867 82.3531 40.4643 83.0371 40.6021 83.8503C40.7386 84.6566 40.7016 85.3922 40.4908 86.0571C40.2795 86.7185 39.9124 87.2692 39.3894 87.7093C38.8693 88.1454 38.2112 88.4308 37.4151 88.5657ZM37.1389 86.8727C37.501 86.8113 37.7861 86.6576 37.9939 86.4115C38.2012 86.162 38.336 85.8474 38.3982 85.4679C38.4638 85.0877 38.4579 84.6687 38.3803 84.2109C38.3028 83.753 38.1704 83.3554 37.9832 83.0181C37.7994 82.6802 37.5686 82.4276 37.2907 82.2602C37.0128 82.0929 36.6928 82.0399 36.3306 82.1013C35.965 82.1632 35.6752 82.3195 35.4611 82.5702C35.2504 82.8203 35.1122 83.1354 35.0465 83.5156C34.9843 83.8952 34.992 84.3139 35.0695 84.7717C35.1471 85.2295 35.2778 85.6274 35.4615 85.9653C35.6487 86.3027 35.883 86.5547 36.1643 86.7215C36.4484 86.8842 36.7733 86.9346 37.1389 86.8727ZM42.9441 76.6736L44.7222 87.1697L42.5389 87.5395L40.7609 77.0435L42.9441 76.6736ZM46.732 76.032L48.51 86.528L46.3268 86.8979L44.5487 76.4018L46.732 76.032ZM52.3846 86.0246C51.8823 86.1097 51.42 86.0983 50.9975 85.9907C50.5745 85.8796 50.2193 85.6708 49.9319 85.3645C49.6474 85.0542 49.4612 84.6394 49.3732 84.1201C49.2991 83.6827 49.3172 83.3019 49.4274 82.9774C49.5376 82.6529 49.7158 82.3767 49.9618 82.1488C50.2079 81.9208 50.4991 81.7309 50.8354 81.579C51.1751 81.4266 51.5365 81.2986 51.9197 81.195C52.3694 81.0696 52.7309 80.9627 53.0041 80.8742C53.2767 80.7823 53.469 80.683 53.581 80.5762C53.6929 80.4693 53.7347 80.3322 53.7064 80.1648L53.7012 80.134C53.6462 79.8095 53.5011 79.5757 53.266 79.4327C53.0343 79.2892 52.7323 79.249 52.3599 79.3121C51.967 79.3787 51.6691 79.5187 51.4663 79.7324C51.2629 79.9425 51.1456 80.1838 51.1144 80.4562L49.0674 80.6343C49.0888 80.1386 49.2204 79.691 49.462 79.2916C49.7031 78.8888 50.0452 78.5531 50.4882 78.2848C50.9342 78.0124 51.4715 77.823 52.1001 77.7165C52.5375 77.6424 52.9647 77.6227 53.3818 77.6575C53.8023 77.6917 54.1863 77.7901 54.5337 77.9527C54.8845 78.1147 55.1791 78.3495 55.4174 78.6571C55.6553 78.9612 55.8138 79.3474 55.8931 79.8154L56.7925 85.125L54.722 85.4757L54.5371 84.3841L54.4756 84.3945C54.3909 84.6619 54.2585 84.9075 54.0785 85.1313C53.8979 85.3517 53.668 85.54 53.3886 85.6963C53.1088 85.8492 52.7741 85.9586 52.3846 86.0246ZM52.7546 84.4119C53.0757 84.3575 53.3486 84.2462 53.5732 84.0782C53.7972 83.9066 53.9607 83.6997 54.0638 83.4573C54.1668 83.2149 54.1949 82.9553 54.148 82.6786L54.0065 81.8432C53.9457 81.8992 53.8587 81.9561 53.7455 82.0139C53.6351 82.0678 53.509 82.1225 53.3673 82.1782C53.225 82.2304 53.0825 82.2809 52.9396 82.3297C52.7962 82.3751 52.6661 82.4165 52.5494 82.4538C52.2995 82.5348 52.0859 82.6325 51.9084 82.7469C51.731 82.8613 51.6011 82.9975 51.519 83.1556C51.4362 83.3102 51.4122 83.49 51.4469 83.695C51.4973 83.9922 51.6434 84.2012 51.8852 84.3219C52.13 84.4386 52.4197 84.4686 52.7546 84.4119ZM58.383 84.8555L56.605 74.3595L58.7883 73.9896L59.4568 77.9359L59.5234 77.9246C59.5832 77.6966 59.6851 77.4579 59.8291 77.2085C59.976 76.9552 60.1839 76.7302 60.4529 76.5335C60.7246 76.3328 61.0809 76.1951 61.5217 76.1205C62.0957 76.0232 62.6507 76.0839 63.1868 76.3023C63.7223 76.5174 64.1862 76.901 64.5785 77.4531C64.9702 78.0019 65.2425 78.7272 65.3953 79.6292C65.544 80.5073 65.5278 81.2728 65.3467 81.9256C65.1684 82.5743 64.863 83.0953 64.4305 83.4884C64.0008 83.8775 63.4871 84.1227 62.8891 84.224C62.4655 84.2958 62.0931 84.2868 61.7722 84.1971C61.4546 84.1068 61.1839 83.9716 60.9601 83.7916C60.7357 83.6082 60.5555 83.4155 60.4193 83.2136L60.322 83.2301L60.5355 84.4909L58.383 84.8555ZM59.8534 80.5575C59.9327 81.0256 60.0668 81.4229 60.2557 81.7494C60.4445 82.0759 60.6785 82.3157 60.9574 82.4688C61.2359 82.6184 61.551 82.6634 61.9029 82.6038C62.2583 82.5436 62.5424 82.3953 62.7555 82.1589C62.9679 81.9191 63.1078 81.6142 63.1752 81.2443C63.2454 80.8703 63.2417 80.4545 63.1642 79.9966C63.0872 79.5422 62.9563 79.1532 62.7714 78.8295C62.5865 78.5058 62.3546 78.2675 62.0756 78.1144C61.7966 77.9613 61.4777 77.9152 61.119 77.9759C60.7636 78.0361 60.4789 78.181 60.2647 78.4106C60.054 78.6396 59.9129 78.9377 59.8415 79.3047C59.7702 79.6718 59.7741 80.0894 59.8534 80.5575ZM70.9556 82.8839C70.1595 83.0188 69.4424 82.9663 68.8043 82.7264C68.169 82.4825 67.6426 82.0832 67.2253 81.5282C66.8073 80.9699 66.5301 80.2876 66.3935 79.4812C66.2557 78.6681 66.2925 77.9308 66.5038 77.2693C66.7146 76.6045 67.08 76.0541 67.6001 75.618C68.1231 75.1779 68.7826 74.8905 69.5787 74.7556C70.3748 74.6208 71.0904 74.6752 71.7257 74.9191C72.3639 75.159 72.8919 75.5581 73.3099 76.1164C73.7272 76.6713 74.0048 77.3554 74.1425 78.1685C74.2791 78.9749 74.242 79.7105 74.0313 80.3753C73.82 81.0367 73.4529 81.5875 72.9299 82.0275C72.4098 82.4636 71.7517 82.749 70.9556 82.8839ZM70.6794 81.1909C71.0415 81.1296 71.3265 80.9758 71.5344 80.7297C71.7417 80.4802 71.8764 80.1657 71.9386 79.7861C72.0043 79.4059 71.9983 78.9869 71.9208 78.5291C71.8432 78.0712 71.7108 77.6737 71.5237 77.3363C71.3399 76.9984 71.1091 76.7458 70.8312 76.5785C70.5533 76.4111 70.2332 76.3582 69.8711 76.4195C69.5055 76.4814 69.2156 76.6377 69.0015 76.8884C68.7908 77.1385 68.6527 77.4536 68.587 77.8338C68.5248 78.2134 68.5325 78.6321 68.61 79.0899C68.6876 79.5478 68.8182 79.9456 69.002 80.2836C69.1892 80.6209 69.4234 80.8729 69.7048 81.0397C69.9889 81.2024 70.3138 81.2528 70.6794 81.1909ZM76.0794 81.8578L74.7459 73.9857L76.8625 73.6272L77.0952 75.0007L77.1772 74.9868C77.2379 74.4739 77.4163 74.0641 77.7123 73.7574C78.0077 73.4472 78.3758 73.2548 78.8165 73.1802C78.9259 73.1616 79.0449 73.1485 79.1736 73.1408C79.3024 73.133 79.4166 73.133 79.5163 73.1407L79.8445 75.078C79.7368 75.0646 79.5903 75.0613 79.4052 75.068C79.2201 75.0748 79.0523 75.0909 78.902 75.1164C78.5808 75.1708 78.3057 75.2894 78.0766 75.4723C77.8503 75.6513 77.6846 75.8762 77.5793 76.1471C77.4775 76.4174 77.4538 76.7131 77.5082 77.0343L78.2626 81.4879L76.0794 81.8578ZM83.8848 80.6884C83.3826 80.7735 82.9202 80.7622 82.4978 80.6545C82.0748 80.5434 81.7196 80.3347 81.4322 80.0284C81.1477 79.7181 80.9614 79.3033 80.8734 78.7839C80.7993 78.3466 80.8174 77.9657 80.9276 77.6412C81.0379 77.3168 81.216 77.0406 81.4621 76.8126C81.7082 76.5846 81.9994 76.3947 82.3356 76.2429C82.6754 76.0904 83.0368 75.9624 83.4199 75.8588C83.8696 75.7335 84.2311 75.6265 84.5043 75.5381C84.777 75.4462 84.9693 75.3468 85.0812 75.24C85.1932 75.1332 85.235 74.996 85.2066 74.8286L85.2014 74.7979C85.1464 74.4733 85.0014 74.2395 84.7663 74.0966C84.5346 73.9531 84.2325 73.9129 83.8601 73.9759C83.4672 74.0425 83.1693 74.1826 82.9665 74.3962C82.7631 74.6064 82.6458 74.8477 82.6147 75.1201L80.5676 75.2981C80.5891 74.8025 80.7206 74.3549 80.9623 73.9554C81.2033 73.5526 81.5454 73.217 81.9885 72.9486C82.4344 72.6763 82.9717 72.4868 83.6004 72.3803C84.0377 72.3062 84.4649 72.2866 84.882 72.3214C85.3026 72.3556 85.6865 72.454 86.0339 72.6165C86.3847 72.7786 86.6793 73.0133 86.9177 73.3209C87.1555 73.6251 87.314 74.0112 87.3933 74.4793L88.2928 79.7888L86.2223 80.1396L86.0373 79.0479L85.9758 79.0583C85.8911 79.3258 85.7587 79.5714 85.5787 79.7952C85.3981 80.0156 85.1682 80.2039 84.8889 80.3602C84.609 80.513 84.2743 80.6224 83.8848 80.6884ZM84.2548 79.0757C84.576 79.0213 84.8489 78.9101 85.0735 78.742C85.2975 78.5705 85.461 78.3635 85.564 78.1211C85.6671 77.8787 85.6951 77.6192 85.6483 77.3424L85.5067 76.507C85.4459 76.563 85.3589 76.6199 85.2457 76.6778C85.1353 76.7316 85.0093 76.7864 84.8676 76.842C84.7253 76.8942 84.5827 76.9447 84.4398 76.9935C84.2964 77.0389 84.1663 77.0803 84.0496 77.1176C83.7998 77.1986 83.5861 77.2963 83.4087 77.4107C83.2312 77.5252 83.1014 77.6614 83.0192 77.8194C82.9364 77.974 82.9124 78.1538 82.9472 78.3588C82.9975 78.6561 83.1436 78.8651 83.3855 78.9858C83.6302 79.1025 83.92 79.1325 84.2548 79.0757ZM92.6959 70.945L92.9737 72.585L88.2331 73.3881L87.9552 71.748L92.6959 70.945ZM88.712 69.6797L90.8953 69.3099L92.1385 76.6489C92.1727 76.8505 92.23 77.0025 92.3106 77.1048C92.3907 77.2037 92.4891 77.2661 92.606 77.292C92.7262 77.3173 92.8598 77.3175 93.0067 77.2926C93.1092 77.2753 93.2103 77.2494 93.3099 77.2149C93.4089 77.1771 93.4849 77.1484 93.5378 77.1289L94.1564 78.6953C94.0529 78.748 93.9058 78.8134 93.7151 78.8913C93.5251 78.9727 93.2891 79.0426 93.0073 79.1009C92.4846 79.2105 92.0115 79.2186 91.5879 79.1252C91.1678 79.0311 90.8198 78.8335 90.5438 78.5323C90.2678 78.2311 90.0878 77.8223 90.0039 77.3058L88.712 69.6797ZM98.8363 78.1609C98.0265 78.2981 97.3018 78.2521 96.6619 78.0231C96.025 77.7901 95.4981 77.3978 95.0813 76.8463C94.6639 76.2914 94.3849 75.5988 94.2443 74.7686C94.1071 73.9588 94.1439 73.2215 94.3546 72.5567C94.5654 71.8918 94.9271 71.3403 95.4398 70.9019C95.9559 70.463 96.6001 70.1782 97.3722 70.0474C97.8916 69.9594 98.3892 69.9612 98.8652 70.0528C99.3439 70.1404 99.7788 70.3215 100.17 70.5962C100.564 70.8704 100.898 71.2426 101.171 71.713C101.443 72.18 101.636 72.7484 101.75 73.4181L101.851 74.0177L95.2041 75.1437L94.9749 73.7907L99.5669 73.0128C99.5137 72.6985 99.3982 72.4316 99.2204 72.2122C99.0427 71.9927 98.8209 71.8352 98.5552 71.7397C98.2923 71.6401 98.0019 71.6172 97.6842 71.671C97.3528 71.7272 97.072 71.8538 96.8418 72.051C96.6144 72.2442 96.4507 72.481 96.3506 72.7616C96.2499 73.0387 96.2242 73.333 96.2734 73.6445L96.4914 74.9309C96.5573 75.3204 96.6861 75.6448 96.8776 75.9041C97.0726 76.1628 97.3164 76.3464 97.6089 76.455C97.9014 76.5637 98.2305 76.587 98.5961 76.5251C98.8387 76.484 99.055 76.4122 99.245 76.3097C99.435 76.2072 99.5902 76.0755 99.7105 75.9145C99.8309 75.7535 99.9118 75.5676 99.9534 75.3567L101.995 75.1479C101.975 75.6504 101.837 76.1097 101.58 76.5257C101.327 76.9377 100.968 77.2867 100.503 77.5728C100.041 77.8549 99.4855 78.0509 98.8363 78.1609Z" fill="#605B51" fill-opacity="0.8"/>
<defs>
<filter id="filter0_di_1868_10697" x="21.7062" y="3.19312" width="65.1883" height="65.1882" filterUnits="userSpaceOnUse" color-interpolation-filters="sRGB">
<feFlood flood-opacity="0" result="BackgroundImageFix"/>
<feColorMatrix in="SourceAlpha" type="matrix" values="0 0 0 0 0 0 0 0 0 0 0 0 0 0 0 0 0 0 127 0" result="hardAlpha"/>
<feOffset dy="0.731884"/>
<feGaussianBlur stdDeviation="0.731884"/>
<feComposite in2="hardAlpha" operator="out"/>
<feColorMatrix type="matrix" values="0 0 0 0 0 0 0 0 0 0 0 0 0 0 0 0 0 0 0.06 0"/>
<feBlend mode="normal" in2="BackgroundImageFix" result="effect1_dropShadow_1868_10697"/>
<feBlend mode="normal" in="SourceGraphic" in2="effect1_dropShadow_1868_10697" result="shape"/>
<feColorMatrix in="SourceAlpha" type="matrix" values="0 0 0 0 0 0 0 0 0 0 0 0 0 0 0 0 0 0 127 0" result="hardAlpha"/>
<feOffset dx="4" dy="-10"/>
<feComposite in2="hardAlpha" operator="arithmetic" k2="-1" k3="1"/>
<feColorMatrix type="matrix" values="0 0 0 0 0.901961 0 0 0 0 0.901961 0 0 0 0 0.917647 0 0 0 1 0"/>
<feBlend mode="normal" in2="shape" result="effect2_innerShadow_1868_10697"/>
</filter>
</defs>
</svg>
