<svg width="144" height="127" viewBox="0 0 144 127" fill="none" xmlns="http://www.w3.org/2000/svg">
<g filter="url(#filter0_di_1868_10678)">
<rect x="56.6064" y="9.06519" width="64" height="64" rx="13.866" transform="rotate(19.0336 56.6064 9.06519)" fill="#FCFCFC"/>
<rect x="57.8449" y="11.6081" width="60" height="60" rx="11.866" transform="rotate(19.0336 57.8449 11.6081)" stroke="#555149" stroke-width="4"/>
<path d="M83.7481 39.9598C83.9066 39.636 83.9858 39.4741 83.9268 39.3301C83.8677 39.186 83.6987 39.1267 83.3607 39.008C82.9844 38.8758 82.5882 38.7391 82.1723 38.5957L78.768 37.4212C78.3532 37.2781 77.958 37.1418 77.5812 37.0141C77.2437 36.8998 77.075 36.8426 76.9401 36.9188C76.8051 36.9951 76.7668 37.1702 76.69 37.5204L76.573 38.0548C76.4547 38.7564 76.3807 39.2071 76.366 39.5512C76.3521 39.8746 76.3979 39.9947 76.4417 40.0684C76.4855 40.1422 76.569 40.2399 76.8595 40.3826C77.1717 40.5358 77.6083 40.6881 78.2923 40.9241L80.3865 41.6466C81.0705 41.8825 81.5081 42.0318 81.8484 42.1036C82.1651 42.1705 82.2911 42.145 82.371 42.1139C82.451 42.0829 82.5611 42.0166 82.7496 41.7535C82.9504 41.4731 83.1704 41.0719 83.5106 40.4453L83.7481 39.9598Z" fill="#605B51"/>
<path d="M74.5355 36.1272C74.8371 36.1879 74.9881 36.2181 75.0675 36.3397C75.1469 36.4614 75.1129 36.618 75.0444 36.9309L74.8741 37.7058L74.8688 37.7391C74.7613 38.3766 74.653 39.0185 74.6332 39.4791C74.6116 39.9838 74.6699 40.4827 74.9504 40.9552C75.231 41.4278 75.6417 41.7174 76.0952 41.94C76.516 42.1466 77.0564 42.3337 77.6778 42.548L79.8685 43.3037C80.4898 43.5181 81.0305 43.704 81.4893 43.8009C81.9836 43.9052 82.4854 43.9305 82.9977 43.7314C83.51 43.5324 83.8634 43.1755 84.1576 42.7648C84.4271 42.3886 84.737 41.8185 85.0465 41.2482L85.0585 41.2255L85.4116 40.5043C85.5517 40.2179 85.6216 40.0742 85.7588 40.028C85.8959 39.9818 86.0329 40.0513 86.3065 40.1891L86.3636 40.2181C87.4478 40.7726 88.2655 41.4376 88.7339 42.4655C89.1986 43.4854 89.1829 44.5623 88.9268 45.7934C88.6774 46.9917 88.1717 48.4582 87.5343 50.3057L85.5107 56.1715C84.8735 58.0188 84.3676 59.4845 83.8251 60.5816C83.2676 61.709 82.6159 62.5672 81.621 63.0836C80.6185 63.6041 79.5647 63.6235 78.3692 63.3915C77.2172 63.1681 75.8177 62.6859 74.0697 62.0829L70.665 60.9083C68.9169 60.3053 67.5171 59.8217 66.4723 59.2873C65.3884 58.7329 64.5713 58.0678 64.1029 57.0402C63.6381 56.0202 63.6542 54.9427 63.9104 53.7114C64.1598 52.5131 64.6652 51.0473 65.3025 49.2L67.3261 43.3342C67.9634 41.4867 68.4695 40.0204 69.0121 38.9231C69.5695 37.796 70.2211 36.9385 71.2158 36.4221C72.2182 35.9018 73.2715 35.8821 74.4667 36.1139L74.5355 36.1272ZM70.5442 52.6137C69.9409 52.4056 69.2834 52.7258 69.0753 53.329C68.8672 53.9322 69.1875 54.5897 69.7907 54.7979L70.8828 55.1746C71.486 55.3828 72.1444 55.0629 72.3526 54.4596C72.5607 53.8563 72.2396 53.1985 71.6363 52.9904L70.5442 52.6137ZM76.4579 54.9596C76.0055 54.8035 75.5117 55.0432 75.3556 55.4956C75.1996 55.9481 75.4405 56.4412 75.8929 56.5973L79.7158 57.9161C80.1682 58.0722 80.662 57.8325 80.818 57.3801C80.9741 56.9276 80.7332 56.4345 80.2808 56.2784L76.4579 54.9596ZM76.9487 47.1827C76.9445 46.7045 76.5539 46.32 76.0756 46.3237C75.4846 46.3285 74.8743 46.5094 74.3354 46.7295C73.7856 46.9541 73.2469 47.2459 72.7814 47.5271C72.5558 47.6633 72.3442 47.7993 72.1527 47.9269C72.0876 47.8036 72.0168 47.6943 71.9431 47.5974C71.8094 47.4218 71.6704 47.2951 71.5438 47.2066C71.4811 47.1626 71.3955 47.0938 71.2419 47.0487C70.7895 46.8926 70.2967 47.1326 70.1406 47.585C69.9994 47.9944 70.1825 48.4372 70.5536 48.6335C70.5566 48.637 70.5599 48.6413 70.5637 48.6463C70.6105 48.7078 70.7457 48.9239 70.8153 49.45C70.8563 49.7597 71.0611 50.0241 71.3507 50.1409C71.6402 50.2576 71.9704 50.2087 72.2146 50.0144C72.2857 49.9602 72.4945 49.8021 72.6264 49.7071C72.8912 49.5165 73.26 49.263 73.6776 49.0108C74.0974 48.7572 74.5529 48.5132 74.9916 48.334C75.4412 48.1504 75.8151 48.059 76.0893 48.0567C76.5679 48.0528 76.9526 47.6613 76.9487 47.1827ZM78.7191 48.4051C78.2666 48.249 77.7726 48.4896 77.6165 48.942C77.4607 49.3944 77.7015 49.8876 78.1538 50.0437L81.9767 51.3625C82.429 51.5186 82.9227 51.2787 83.0789 50.8265C83.235 50.374 82.9944 49.88 82.542 49.7239L78.7191 48.4051Z" fill="#605B51"/>
</g>
<path d="M13.9011 88.4798L14.6024 75.3873L17.3545 76.3367L16.4706 85.2969L16.5695 85.331L21.602 77.802L23.9585 78.6149L23.2664 87.6608L23.3711 87.6969L28.206 80.0803L30.9581 81.0297L23.4376 91.7697L20.9822 90.9226L21.4007 82.3488L21.3076 82.3167L16.3565 89.3268L13.9011 88.4798ZM31.003 94.575C30.0992 94.2632 29.3838 93.8015 28.8569 93.19C28.3352 92.5759 28.015 91.8621 27.8963 91.0486C27.779 90.2311 27.8782 89.3647 28.194 88.4492C28.5125 87.526 28.9693 86.7807 29.5643 86.2134C30.1607 85.6422 30.853 85.2776 31.641 85.1198C32.4342 84.9594 33.2828 85.035 34.1866 85.3468C35.0904 85.6586 35.8031 86.1216 36.3249 86.7356C36.8518 87.3471 37.1739 88.0616 37.2913 88.8791C37.41 89.6926 37.31 90.561 36.9916 91.4842C36.6757 92.3997 36.2196 93.143 35.6232 93.7142C35.0282 94.2816 34.334 94.6454 33.5408 94.8059C32.7527 94.9637 31.9068 94.8868 31.003 94.575ZM31.6771 92.6589C32.0882 92.8007 32.4717 92.8028 32.8274 92.6651C33.1844 92.5234 33.503 92.2731 33.7832 91.914C34.0672 91.5562 34.2989 91.1174 34.4782 90.5976C34.6575 90.0778 34.7456 89.5895 34.7426 89.1327C34.7435 88.6773 34.647 88.2837 34.4533 87.9521C34.2595 87.6205 33.957 87.3837 33.5458 87.2419C33.1308 87.0987 32.7409 87.0966 32.3761 87.2355C32.0151 87.3758 31.6927 87.6248 31.4086 87.9826C31.1285 88.3417 30.8988 88.7811 30.7194 89.3009C30.5401 89.8207 30.45 90.3083 30.4492 90.7638C30.4522 91.2206 30.5525 91.6155 30.7502 91.9485C30.953 92.2789 31.262 92.5157 31.6771 92.6589ZM36.9099 96.4174L39.9931 87.4802L42.3961 88.3092L41.8581 89.8686L41.9512 89.9007C42.3055 89.4022 42.7235 89.0776 43.2052 88.9269C43.6883 88.7723 44.18 88.7814 44.6804 88.954C44.8045 88.9968 44.9356 89.0508 45.0738 89.1158C45.212 89.1808 45.3307 89.2456 45.4299 89.3103L44.6712 91.5096C44.5669 91.4346 44.4166 91.348 44.2204 91.2499C44.0241 91.1519 43.8407 91.0734 43.67 91.0145C43.3054 90.8887 42.9521 90.8558 42.6102 90.9158C42.2735 90.9733 41.9736 91.1129 41.7105 91.3347C41.4512 91.5578 41.2587 91.8516 41.1329 92.2162L39.3886 97.2725L36.9099 96.4174ZM46.5835 96.8768L47.6151 93.9056L47.9758 94.03L52.0087 91.6254L54.854 92.607L49.4583 95.772L48.8707 95.5693L46.5835 96.8768ZM43.4504 98.6737L47.5613 86.7575L50.0399 87.6126L45.929 99.5288L43.4504 98.6737ZM49.0361 100.601L47.749 95.8009L50.0057 94.6196L51.9395 101.602L49.0361 100.601ZM62.463 98.0838L60.1456 97.4406C60.1738 97.2332 60.1506 97.0299 60.0761 96.8306C60.003 96.6274 59.8777 96.4431 59.7004 96.2778C59.5282 96.1099 59.2986 95.9764 59.0116 95.8774C58.6276 95.7449 58.2756 95.7146 57.9556 95.7865C57.637 95.8546 57.4315 96.0224 57.3392 96.2901C57.2656 96.5034 57.2887 96.7132 57.4085 96.9195C57.5283 97.1258 57.7804 97.3451 58.1646 97.5775L59.6698 98.4614C60.4771 98.9396 61.0259 99.4501 61.3161 99.993C61.6063 100.536 61.6403 101.129 61.4181 101.773C61.2161 102.359 60.8662 102.813 60.3684 103.136C59.8745 103.461 59.286 103.644 58.603 103.686C57.9252 103.726 57.1984 103.612 56.4226 103.344C55.2395 102.936 54.3819 102.365 53.8498 101.63C53.3228 100.892 53.1464 100.076 53.3206 99.1814L55.8027 99.8945C55.752 100.281 55.8354 100.618 56.053 100.905C56.2719 101.189 56.6025 101.407 57.0447 101.56C57.4791 101.71 57.857 101.747 58.1783 101.671C58.5048 101.593 58.7162 101.42 58.8124 101.154C58.8862 100.928 58.8547 100.711 58.718 100.503C58.5827 100.291 58.3344 100.08 57.9733 99.8685L56.532 99.0262C55.7194 98.5505 55.1741 98.0238 54.8959 97.4461C54.6216 96.8696 54.5996 96.2478 54.8298 95.5806C55.0278 95.0065 55.3536 94.5655 55.8071 94.2575C56.2645 93.9508 56.8151 93.7827 57.4591 93.7531C58.1069 93.7248 58.8129 93.8425 59.5771 94.1061C60.7059 94.4955 61.5118 95.0405 61.995 95.7411C62.4821 96.4431 62.6381 97.2239 62.463 98.0838ZM66.1208 100.713L64.3383 105.88L61.8596 105.025L65.9705 93.1084L68.3794 93.9394L66.8077 98.4953L66.9124 98.5314C67.2961 98.0734 67.7645 97.7727 68.3175 97.6293C68.8718 97.4819 69.4884 97.5254 70.1672 97.7596C70.7879 97.9737 71.2821 98.2961 71.6501 98.7269C72.0232 99.1551 72.2508 99.6655 72.3329 100.258C72.4201 100.848 72.3414 101.492 72.0966 102.189L70.1335 107.879L67.6548 107.024L69.4654 101.776C69.6593 101.226 69.6675 100.749 69.4901 100.345C69.3165 99.9424 68.9776 99.654 68.4733 99.4801C68.1359 99.3636 67.8124 99.3324 67.503 99.3862C67.1975 99.4414 66.9235 99.5813 66.6811 99.8059C66.4439 100.028 66.2571 100.33 66.1208 100.713ZM75.933 110.075C75.0137 109.758 74.2866 109.299 73.7518 108.697C73.2222 108.094 72.8974 107.387 72.7773 106.577C72.6587 105.764 72.7619 104.886 73.0871 103.943C73.4043 103.024 73.861 102.278 74.4574 101.707C75.0538 101.136 75.7428 100.768 76.5245 100.604C77.3099 100.441 78.141 100.51 79.0177 100.813C79.6073 101.016 80.1234 101.301 80.5659 101.666C81.0137 102.029 81.3628 102.464 81.6131 102.971C81.8673 103.48 82.0028 104.056 82.0194 104.7C82.0374 105.34 81.9152 106.04 81.6529 106.8L81.4181 107.481L73.8715 104.878L74.4014 103.342L79.6148 105.14C79.7379 104.783 79.7694 104.44 79.7092 104.112C79.6491 103.783 79.5081 103.493 79.2862 103.243C79.0695 102.99 78.7808 102.802 78.4201 102.677C78.0438 102.547 77.6801 102.52 77.329 102.594C76.983 102.665 76.6784 102.819 76.4152 103.053C76.1532 103.284 75.9594 103.575 75.8338 103.927L75.3299 105.387C75.1774 105.83 75.127 106.24 75.1789 106.618C75.2346 106.997 75.3836 107.327 75.626 107.606C75.8683 107.885 76.197 108.096 76.6121 108.239C76.8875 108.334 77.153 108.382 77.4086 108.383C77.6643 108.385 77.9003 108.336 78.1167 108.237C78.3332 108.138 78.5229 107.991 78.6858 107.795L80.9261 108.737C80.6197 109.248 80.2152 109.647 79.7126 109.934C79.2153 110.218 78.6439 110.377 77.9986 110.41C77.3586 110.441 76.67 110.329 75.933 110.075ZM85.5617 113.397C84.6424 113.08 83.9153 112.62 83.3804 112.019C82.8508 111.415 82.526 110.709 82.406 109.899C82.2873 109.085 82.3906 108.207 82.7158 107.265C83.0329 106.345 83.4897 105.6 84.0861 105.029C84.6825 104.458 85.3715 104.09 86.1531 103.926C86.9386 103.762 87.7697 103.832 88.6463 104.135C89.2359 104.338 89.752 104.622 90.1946 104.988C90.6424 105.351 90.9914 105.786 91.2418 106.293C91.496 106.802 91.6314 107.378 91.6481 108.022C91.666 108.662 91.5439 109.362 91.2816 110.122L91.0467 110.803L83.5002 108.2L84.0301 106.663L89.2434 108.462C89.3666 108.105 89.398 107.762 89.3379 107.433C89.2777 107.104 89.1367 106.815 88.9148 106.565C88.6982 106.312 88.4095 106.123 88.0487 105.999C87.6725 105.869 87.3088 105.841 86.9576 105.915C86.6117 105.987 86.3071 106.14 86.0438 106.375C85.7819 106.606 85.5881 106.897 85.4624 107.249L84.9586 108.709C84.806 109.151 84.7557 109.562 84.8075 109.94C84.8633 110.319 85.0123 110.648 85.2546 110.927C85.497 111.206 85.8257 111.417 86.2407 111.561C86.5161 111.656 86.7817 111.704 87.0373 111.705C87.2929 111.706 87.5289 111.658 87.7454 111.559C87.9618 111.46 88.1515 111.313 88.3145 111.117L90.5548 112.059C90.2484 112.57 89.8439 112.968 89.3413 113.255C88.8439 113.539 88.2726 113.698 87.6273 113.732C86.9872 113.763 86.2987 113.651 85.5617 113.397ZM99.0145 107.842L98.3722 109.703L92.9901 107.847L93.6324 105.985L99.0145 107.842ZM95.593 104.265L98.0716 105.12L95.1972 113.452C95.1183 113.681 95.0916 113.872 95.1173 114.024C95.1443 114.172 95.2111 114.293 95.3179 114.386C95.4285 114.481 95.5672 114.557 95.734 114.614C95.8504 114.654 95.9701 114.685 96.0931 114.706C96.2175 114.722 96.3128 114.736 96.3788 114.745L96.1324 116.724C95.9949 116.72 95.8049 116.705 95.5625 116.678C95.3188 116.654 95.034 116.593 94.708 116.493C94.1026 116.311 93.6064 116.051 93.2193 115.713C92.8361 115.377 92.5867 114.974 92.4709 114.504C92.3551 114.034 92.4002 113.507 92.6061 112.923L95.593 104.265ZM106.91 113.417L104.593 112.774C104.621 112.567 104.598 112.363 104.523 112.164C104.45 111.961 104.325 111.777 104.147 111.611C103.975 111.443 103.746 111.31 103.459 111.211C103.075 111.078 102.723 111.048 102.403 111.12C102.084 111.188 101.879 111.356 101.786 111.624C101.713 111.837 101.736 112.047 101.856 112.253C101.975 112.459 102.227 112.679 102.612 112.911L104.117 113.795C104.924 114.273 105.473 114.784 105.763 115.326C106.053 115.869 106.087 116.463 105.865 117.107C105.663 117.692 105.313 118.147 104.815 118.47C104.322 118.794 103.733 118.978 103.05 119.02C102.372 119.059 101.645 118.945 100.87 118.678C99.6866 118.27 98.829 117.698 98.2968 116.963C97.7699 116.226 97.5935 115.41 97.7677 114.515L100.25 115.228C100.199 115.614 100.282 115.951 100.5 116.239C100.719 116.523 101.05 116.741 101.492 116.893C101.926 117.043 102.304 117.08 102.625 117.005C102.952 116.926 103.163 116.754 103.26 116.488C103.333 116.261 103.302 116.044 103.165 115.837C103.03 115.625 102.782 115.413 102.42 115.202L100.979 114.36C100.166 113.884 99.6211 113.357 99.343 112.78C99.0687 112.203 99.0467 111.581 99.2768 110.914C99.4749 110.34 99.8007 109.899 100.254 109.591C100.712 109.284 101.262 109.116 101.906 109.087C102.554 109.058 103.26 109.176 104.024 109.44C105.153 109.829 105.959 110.374 106.442 111.075C106.929 111.777 107.085 112.557 106.91 113.417Z" fill="#605B51" fill-opacity="0.8"/>
<defs>
<filter id="filter0_di_1868_10678" x="34.0014" y="8.19856" width="84.8393" height="84.8393" filterUnits="userSpaceOnUse" color-interpolation-filters="sRGB">
<feFlood flood-opacity="0" result="BackgroundImageFix"/>
<feColorMatrix in="SourceAlpha" type="matrix" values="0 0 0 0 0 0 0 0 0 0 0 0 0 0 0 0 0 0 127 0" result="hardAlpha"/>
<feOffset dy="0.866622"/>
<feGaussianBlur stdDeviation="0.866622"/>
<feComposite in2="hardAlpha" operator="out"/>
<feColorMatrix type="matrix" values="0 0 0 0 0 0 0 0 0 0 0 0 0 0 0 0 0 0 0.06 0"/>
<feBlend mode="normal" in2="BackgroundImageFix" result="effect1_dropShadow_1868_10678"/>
<feBlend mode="normal" in="SourceGraphic" in2="effect1_dropShadow_1868_10678" result="shape"/>
<feColorMatrix in="SourceAlpha" type="matrix" values="0 0 0 0 0 0 0 0 0 0 0 0 0 0 0 0 0 0 127 0" result="hardAlpha"/>
<feOffset dx="-6" dy="-8"/>
<feComposite in2="hardAlpha" operator="arithmetic" k2="-1" k3="1"/>
<feColorMatrix type="matrix" values="0 0 0 0 0.901961 0 0 0 0 0.901961 0 0 0 0 0.917647 0 0 0 1 0"/>
<feBlend mode="normal" in2="shape" result="effect2_innerShadow_1868_10678"/>
</filter>
</defs>
</svg>
