<svg width="436" height="172" viewBox="0 0 436 172" fill="none" xmlns="http://www.w3.org/2000/svg">
<path d="M2.9442 1.11518C2.83136 0.748284 2.59317 0.425529 2.26235 0.222327C1.9317 0.0190862 1.53845 -0.0486165 1.16507 0.0350218C0.791684 0.11866 0.4649 0.347649 0.252548 0.672522C0.0400198 0.997435 -0.0377204 1.39096 0.0167413 1.77093C0.0167413 1.77093 0.0167413 1.77093 0.0167413 1.77093C0.662534 6.17124 1.70131 10.4252 3.23915 14.6522C9.25934 31.6789 23.2624 44.8579 37.999 54.0794C70.4519 73.8724 105.627 85.8352 137.112 105.047C145.327 109.982 153.309 114.446 158.997 121.574C162.667 126.112 165.92 131.673 168.107 137.142C170.585 143.511 171.248 150.486 171.575 157.595C171.772 161.857 171.867 166.142 171.98 170.443C171.991 170.836 172.15 171.212 172.43 171.49C172.711 171.768 173.088 171.924 173.48 171.924C173.873 171.924 174.25 171.768 174.531 171.49C174.811 171.212 174.97 170.836 174.98 170.443C175.089 166.141 175.209 161.849 175.219 157.513C175.233 150.329 174.903 142.775 172.465 135.603C170.21 129.263 167.229 123.647 163.186 118.2C157.182 110.064 148.33 104.718 140.444 99.6537C108.954 79.1609 73.2899 66.3043 42.2833 47.3234C28.1715 38.4162 15.1502 27.6291 7.64392 12.7448C5.74332 9.02232 4.20195 5.19738 2.9442 1.11518Z" fill="#605B51"/>
<path d="M433.182 0.692638C433.4 0.377455 433.723 0.141298 434.1 0.046613C434.475 -0.0481658 434.87 0.00472438 435.201 0.195826C435.532 0.386927 435.775 0.702626 435.881 1.07565C435.986 1.44876 435.943 1.84708 435.779 2.19347C435.779 2.19347 435.779 2.19347 435.779 2.19347C433.997 5.94566 431.924 9.64801 429.702 13.174C420.696 27.3867 409.022 39.6283 396.372 50.4504C367.843 74.5955 335.862 93.9071 303.026 110.902C285.479 119.77 272.598 138.124 271.401 158.232C271.146 162.205 271.33 166.209 271.955 170.168C272.017 170.556 271.929 170.955 271.704 171.279C271.48 171.604 271.137 171.826 270.752 171.898C270.366 171.97 269.967 171.886 269.64 171.664C269.314 171.443 269.088 171.102 269.006 170.718C269.006 170.718 269.006 170.718 269.006 170.718C268.121 166.582 267.701 162.343 267.759 158.093C267.934 136.572 280.998 115.86 300.096 105.423C332.096 87.5322 363.366 67.913 391.179 44.3641C403.519 33.8015 415.429 22.8327 425.812 10.3612C428.383 7.26317 430.88 4.01113 433.182 0.692638Z" fill="#605B51"/>
</svg>
