<svg width="199" height="199" viewBox="0 0 199 199" fill="none" xmlns="http://www.w3.org/2000/svg">
<g filter="url(#filter0_d_1868_10688)">
<rect x="50.2" y="49.1015" width="98.0909" height="98.0909" rx="23.58" fill="#2EC5CE"/>
<rect x="52.7" y="51.6015" width="93.0909" height="93.0909" rx="21.08" stroke="#2ABBC4" stroke-width="5"/>
<circle cx="99.2454" cy="98.147" r="24" fill="white"/>
<path d="M90.6572 106.612C90.2639 107 90.257 107.636 90.6737 107.999C91.7129 108.903 92.8902 109.638 94.1628 110.176C95.743 110.844 97.4393 111.194 99.1548 111.207C100.87 111.219 102.571 110.893 104.161 110.248C105.441 109.728 106.629 109.01 107.681 108.121C108.103 107.764 108.105 107.128 107.717 106.734L99.9504 98.8554C99.5626 98.4621 98.9295 98.4576 98.5362 98.8453L90.6572 106.612Z" fill="#2EC5CE"/>
<path d="M111.045 98.0901C111.597 98.094 112.052 97.6488 112.013 97.0978C111.917 95.7319 111.605 94.3877 111.086 93.116C110.441 91.5351 109.489 90.0974 108.287 88.8856C107.084 87.6739 105.653 86.712 104.077 86.0554C102.501 85.3988 100.81 85.0605 99.1031 85.0598C97.3957 85.0592 95.705 85.3963 94.1284 86.0517C92.5519 86.7071 91.1205 87.6679 89.9167 88.8788C88.713 90.0896 87.7606 91.5266 87.1145 93.107C86.5947 94.3784 86.2813 95.7223 86.1842 97.0882C86.145 97.6391 86.5995 98.0846 87.1518 98.0812L90.2515 98.0618C90.8038 98.0584 91.2422 97.6061 91.3089 97.0579C91.3933 96.3653 91.5698 95.6855 91.835 95.037C92.2266 94.0791 92.8038 93.2081 93.5334 92.4743C94.263 91.7404 95.1305 91.158 96.0861 90.7608C97.0416 90.3636 98.0663 90.1592 99.1012 90.1596C100.136 90.16 101.161 90.3651 102.116 90.7631C103.071 91.161 103.938 91.744 104.667 92.4784C105.396 93.2129 105.973 94.0842 106.364 95.0424C106.628 95.6912 106.804 96.371 106.888 97.0637C106.955 97.612 107.393 98.0646 107.945 98.0684L111.045 98.0901Z" fill="#2EC5CE"/>
</g>
<defs>
<filter id="filter0_d_1868_10688" x="-4.95911e-05" y="-1.44243e-05" width="198.491" height="198.491" filterUnits="userSpaceOnUse" color-interpolation-filters="sRGB">
<feFlood flood-opacity="0" result="BackgroundImageFix"/>
<feColorMatrix in="SourceAlpha" type="matrix" values="0 0 0 0 0 0 0 0 0 0 0 0 0 0 0 0 0 0 127 0" result="hardAlpha"/>
<feOffset dy="1.09848"/>
<feGaussianBlur stdDeviation="25.1"/>
<feComposite in2="hardAlpha" operator="out"/>
<feColorMatrix type="matrix" values="0 0 0 0 0.180392 0 0 0 0 0.772549 0 0 0 0 0.807843 0 0 0 0.49 0"/>
<feBlend mode="normal" in2="BackgroundImageFix" result="effect1_dropShadow_1868_10688"/>
<feBlend mode="normal" in="SourceGraphic" in2="effect1_dropShadow_1868_10688" result="shape"/>
</filter>
</defs>
</svg>
