<svg width="125" height="113" viewBox="0 0 125 113" fill="none" xmlns="http://www.w3.org/2000/svg">
<g filter="url(#filter0_di_1868_10693)">
<rect x="51.7665" y="8.72806" width="54" height="54" rx="11.8261" transform="rotate(21.3257 51.7665 8.72806)" fill="#FCFCFC"/>
<rect x="52.9022" y="11.3185" width="50" height="50" rx="9.82609" transform="rotate(21.3257 52.9022 11.3185)" stroke="#555149" stroke-width="4"/>
<path d="M70.9517 33.8293C76.402 35.9572 79.0949 42.1009 76.9671 47.5512C74.8392 53.0014 68.6964 55.6947 63.2461 53.567C57.7958 51.4391 55.1017 45.296 57.2294 39.8456C59.3573 34.3952 65.5013 31.7015 70.9517 33.8293ZM69.2491 38.1904C68.7421 37.9924 68.1708 38.2429 67.9729 38.7499L67.0023 41.2361C66.0534 41.2738 65.171 41.8614 64.8036 42.8025C64.3088 44.07 64.9352 45.4989 66.2027 45.9937C66.4986 46.1093 66.8036 46.1635 67.1032 46.1629L67.8752 47.9236C68.0938 48.4219 68.6749 48.6489 69.1733 48.4303C69.6717 48.2118 69.8984 47.6306 69.6801 47.1322L68.9081 45.3716C69.1116 45.1516 69.2783 44.8905 69.3939 44.5946C69.7613 43.6535 69.5103 42.6234 68.838 41.9528L69.8087 39.4666C70.0066 38.9596 69.756 38.3884 69.2491 38.1904Z" fill="#605B51"/>
</g>
<path d="M3.52944 62.8867L4.21098 61.141L12.4361 64.3521L11.7545 66.0978L8.68846 64.9008L5.4602 73.1699L3.36725 72.3528L6.59551 64.0837L3.52944 62.8867ZM8.92403 74.5222L11.8564 67.0111L13.876 67.7995L13.3643 69.1101L13.4426 69.1406C13.7615 68.7279 14.1288 68.4655 14.5444 68.3535C14.9614 68.2383 15.3801 68.2627 15.8006 68.4269C15.905 68.4677 16.0149 68.5181 16.1304 68.5782C16.246 68.6383 16.3449 68.6976 16.4273 68.7561L15.7056 70.6045C15.6193 70.537 15.4942 70.4581 15.3303 70.3678C15.1664 70.2776 15.0128 70.2044 14.8693 70.1484C14.5629 70.0288 14.263 69.9887 13.9695 70.0282C13.6806 70.0657 13.4203 70.1744 13.1885 70.3544C12.9599 70.5357 12.7858 70.7796 12.6662 71.086L11.0072 75.3355L8.92403 74.5222ZM16.2922 77.5622C15.813 77.3751 15.4184 77.1252 15.1084 76.8126C14.7997 76.4967 14.6004 76.1315 14.5105 75.717C14.4251 75.3004 14.4792 74.8444 14.6726 74.3489C14.8356 73.9316 15.049 73.6111 15.3129 73.3873C15.5769 73.1634 15.8746 73.0167 16.2061 72.947C16.5377 72.8773 16.8885 72.864 17.2586 72.9071C17.632 72.9514 18.0116 73.0282 18.3972 73.1374C18.8519 73.2623 19.2205 73.3574 19.5031 73.4226C19.787 73.4846 20.0051 73.4984 20.1576 73.464C20.31 73.4296 20.4174 73.3325 20.4798 73.1728L20.4912 73.1434C20.6121 72.8337 20.6079 72.5559 20.4785 72.3101C20.3523 72.0654 20.1115 71.8738 19.7562 71.735C19.3813 71.5887 19.0505 71.5554 18.764 71.6351C18.4786 71.7115 18.2517 71.8596 18.0833 72.0794L16.2177 71.1707C16.4937 70.7525 16.84 70.4331 17.2567 70.2126C17.6747 69.9888 18.1453 69.8757 18.6684 69.8734C19.1961 69.869 19.7599 69.9839 20.3597 70.2181C20.777 70.381 21.1572 70.5858 21.5005 70.8325C21.847 71.0805 22.1285 71.3651 22.345 71.6863C22.5647 72.0087 22.698 72.3651 22.7448 72.7553C22.7928 73.1422 22.7297 73.559 22.5553 74.0056L20.5775 79.0717L18.6019 78.3004L19.0085 77.2589L18.9499 77.236C18.7376 77.4236 18.4954 77.5676 18.2233 77.668C17.9524 77.7651 17.6555 77.8089 17.3324 77.7992C17.0106 77.7863 16.6639 77.7073 16.2922 77.5622ZM17.4501 76.3574C17.7565 76.477 18.0507 76.5224 18.3325 76.4934C18.6156 76.4611 18.8647 76.3668 19.0798 76.2103C19.2949 76.0539 19.454 75.8436 19.5571 75.5795L19.8683 74.7824C19.7865 74.7994 19.6816 74.8035 19.5535 74.7948C19.4299 74.7841 19.2923 74.7661 19.1407 74.7407C18.9903 74.7121 18.8406 74.6818 18.6915 74.6499C18.5437 74.6147 18.4095 74.583 18.2891 74.5548C18.0306 74.4952 17.7948 74.4689 17.5817 74.4758C17.3686 74.4828 17.1854 74.5334 17.0321 74.6276C16.8802 74.7185 16.766 74.8618 16.6896 75.0574C16.5789 75.341 16.597 75.5979 16.7438 75.8281C16.8952 76.0562 17.1306 76.2327 17.4501 76.3574ZM25.3924 81.1205C24.623 80.8201 24.0249 80.3988 23.5979 79.8564C23.1755 79.3121 22.9299 78.6902 22.8611 77.9908C22.7955 77.2927 22.9109 76.5639 23.2075 75.8043C23.5079 75.0349 23.9196 74.418 24.4428 73.9536C24.9706 73.4871 25.5736 73.1984 26.2518 73.0875C26.9313 72.9733 27.6508 73.0645 28.4104 73.361C29.0657 73.6169 29.593 73.9599 29.9923 74.39C30.3917 74.8202 30.6508 75.3064 30.7697 75.8488C30.8886 76.3911 30.8494 76.9581 30.6522 77.5499L28.6864 76.7824C28.7774 76.3859 28.7484 76.027 28.5995 75.7059C28.4551 75.3828 28.1922 75.1468 27.8108 74.9979C27.4881 74.8719 27.1717 74.8498 26.8618 74.9317C26.5563 75.0116 26.2719 75.1917 26.0084 75.472C25.7449 75.7524 25.5209 76.1289 25.3363 76.6016C25.1493 77.0808 25.0554 77.5138 25.0547 77.9005C25.0572 78.2885 25.1448 78.6175 25.3173 78.8878C25.4898 79.158 25.7375 79.3561 26.0602 79.4821C26.2982 79.575 26.5308 79.6095 26.7581 79.5855C26.9886 79.5628 27.2021 79.4827 27.3985 79.3452C27.5995 79.2058 27.771 79.0117 27.9132 78.7629L29.8791 79.5303C29.6225 80.0914 29.2687 80.5356 28.8178 80.863C28.3714 81.1884 27.856 81.3779 27.2715 81.4315C26.6871 81.4851 26.0607 81.3814 25.3924 81.1205ZM32.7317 81.3259L33.7121 78.829L34.0153 78.9473L37.5342 77.0357L39.9254 77.9692L35.2193 80.4825L34.7254 80.2896L32.7317 81.3259ZM30.0003 82.7504L33.9101 72.7355L35.9933 73.5488L32.0835 83.5636L30.0003 82.7504ZM34.6948 84.5831L33.7616 80.4487L35.725 79.519L37.1349 85.5357L34.6948 84.5831ZM49.1841 82.0177C49.299 81.608 49.2508 81.236 49.0394 80.9018C48.828 80.5675 48.468 80.3011 47.9594 80.1026C47.6139 79.9677 47.303 79.9027 47.0268 79.9076C46.7519 79.9092 46.5178 79.97 46.3245 80.0899C46.1345 80.211 45.9974 80.3792 45.9134 80.5943C45.8369 80.7711 45.8133 80.9422 45.8426 81.1077C45.8752 81.2744 45.9457 81.4354 46.0543 81.5904C46.1641 81.7422 46.3011 81.8916 46.4655 82.0384C46.6311 82.1819 46.8136 82.3208 47.0129 82.455L47.8287 83.0214C48.2273 83.2897 48.5774 83.5767 48.8789 83.8822C49.1804 84.1878 49.4183 84.5117 49.5928 84.8541C49.7672 85.1964 49.8647 85.5576 49.8854 85.9376C49.9094 86.3189 49.8415 86.7188 49.6819 87.1374C49.4394 87.749 49.0754 88.2193 48.5901 88.5483C48.1093 88.8753 47.5304 89.0494 46.8534 89.0706C46.1809 89.0898 45.4371 88.9403 44.6221 88.6222C43.8136 88.3065 43.1578 87.9077 42.6547 87.4258C42.1548 86.9451 41.8318 86.3964 41.6857 85.7795C41.5441 85.1607 41.6058 84.4879 41.8707 83.761L43.9197 84.561C43.8114 84.9056 43.7981 85.2236 43.8798 85.5147C43.966 85.8038 44.1303 86.0614 44.3727 86.2875C44.6195 86.5117 44.9255 86.695 45.2907 86.8375C45.6493 86.9775 45.981 87.0469 46.2858 87.0457C46.5938 87.0457 46.8575 86.9815 47.0767 86.8529C47.296 86.7244 47.4527 86.5395 47.5469 86.2982C47.6347 86.0733 47.6417 85.8581 47.5678 85.6527C47.4972 85.4486 47.3558 85.2431 47.1435 85.0362C46.9345 84.8306 46.6646 84.6126 46.3338 84.382L45.3503 83.6824C44.5861 83.1474 44.0448 82.566 43.7263 81.9383C43.4078 81.3105 43.3947 80.6273 43.6869 79.8885C43.9203 79.2809 44.2885 78.8141 44.7914 78.4882C45.2976 78.1636 45.8872 77.9862 46.5603 77.9559C47.2333 77.9256 47.9349 78.053 48.6652 78.3381C49.4085 78.6283 50.0076 79.0087 50.4625 79.4794C50.9207 79.9513 51.2162 80.4743 51.349 81.0483C51.4818 81.6224 51.4366 82.2096 51.2135 82.81L49.1841 82.0177ZM53.1783 91.9681C52.4056 91.6665 51.8017 91.2504 51.3664 90.7198C50.9356 90.1872 50.6829 89.5738 50.6083 88.8797C50.5349 88.1823 50.6528 87.4375 50.9621 86.6454C51.2638 85.8727 51.6784 85.2532 52.2062 84.7867C52.7339 84.3203 53.3336 84.0303 54.0053 83.9168C54.6803 83.8047 55.3862 83.8924 56.1229 84.18C56.6185 84.3735 57.0486 84.6334 57.4133 84.9599C57.7825 85.2844 58.0651 85.6671 58.2612 86.1081C58.4605 86.5503 58.5562 87.046 58.5484 87.5952C58.5419 88.1412 58.4139 88.7337 58.1645 89.3726L57.9411 89.9448L51.5987 87.4687L52.1027 86.1777L56.4842 87.8882C56.6013 87.5883 56.6398 87.2972 56.5998 87.0148C56.5597 86.7324 56.4494 86.4809 56.2689 86.2601C56.0929 86.0373 55.8533 85.8668 55.5501 85.7484C55.2339 85.625 54.9249 85.5889 54.6231 85.6401C54.3258 85.6894 54.061 85.8095 53.8287 86.0006C53.5975 86.1884 53.4225 86.43 53.3034 86.7254L52.8242 87.9528C52.6791 88.3244 52.6222 88.6722 52.6535 88.9963C52.688 89.3216 52.8038 89.6072 53.0008 89.8532C53.1978 90.0992 53.4708 90.2903 53.8196 90.4264C54.051 90.5168 54.2757 90.5669 54.4935 90.5768C54.7113 90.5867 54.9141 90.5532 55.1019 90.4762C55.2897 90.3993 55.4564 90.2803 55.602 90.1192L57.479 90.9985C57.2005 91.4233 56.8422 91.7492 56.4041 91.9764C55.9705 92.2016 55.4782 92.3175 54.9272 92.324C54.3806 92.3286 53.7977 92.2099 53.1783 91.9681ZM57.9048 93.6443L60.8371 86.1331L62.8567 86.9216L62.3451 88.2321L62.4233 88.2627C62.7422 87.8499 63.1095 87.5876 63.5252 87.4756C63.9421 87.3604 64.3608 87.3848 64.7814 87.549C64.8857 87.5897 64.9956 87.6402 65.1112 87.7003C65.2267 87.7604 65.3256 87.8197 65.408 87.8782L64.6864 89.7266C64.6 89.6591 64.4749 89.5802 64.3111 89.4899C64.1472 89.3997 63.9935 89.3265 63.8501 89.2705C63.5436 89.1509 63.2437 89.1108 62.9503 89.1503C62.6614 89.1878 62.401 89.2965 62.1692 89.4765C61.9407 89.6578 61.7666 89.9016 61.6469 90.2081L59.9879 94.4576L57.9048 93.6443ZM73.5652 91.1022L68.0069 97.5881L65.6596 96.6718L65.966 88.1355L68.1665 88.9946L67.6284 94.9777L67.7066 95.0083L71.3598 90.2412L73.5652 91.1022ZM71.5612 98.9757L74.4935 91.4646L76.5767 92.2779L73.6443 99.789L71.5612 98.9757ZM75.918 90.9049C75.6083 90.784 75.3827 90.5776 75.2412 90.2857C75.1042 89.9917 75.0923 89.6997 75.2056 89.4096C75.3176 89.1227 75.5229 88.9192 75.8215 88.7991C76.1247 88.677 76.4311 88.6764 76.7408 88.7973C77.0505 88.9182 77.2738 89.1256 77.4108 89.4195C77.5523 89.7115 77.567 90.0009 77.455 90.2877C77.3418 90.5779 77.1336 90.784 76.8304 90.9061C76.5318 91.0262 76.2277 91.0258 75.918 90.9049ZM78.5118 101.858C77.7424 101.558 77.1443 101.137 76.7173 100.594C76.2949 100.05 76.0493 99.428 75.9804 98.7286C75.9149 98.0306 76.0303 97.3017 76.3269 96.5421C76.6272 95.7728 77.039 95.1558 77.5622 94.6914C78.09 94.2249 78.693 93.9362 79.3712 93.8253C80.0507 93.7111 80.7702 93.8023 81.5298 94.0989C82.1851 94.3547 82.7124 94.6977 83.1117 95.1278C83.5111 95.558 83.7702 96.0442 83.8891 96.5866C84.008 97.1289 83.9688 97.6959 83.7716 98.2877L81.8058 97.5202C81.8968 97.1237 81.8678 96.7648 81.7189 96.4437C81.5745 96.1206 81.3116 95.8846 80.9302 95.7357C80.6075 95.6097 80.2911 95.5877 79.9811 95.6695C79.6757 95.7494 79.3912 95.9295 79.1278 96.2098C78.8643 96.4902 78.6403 96.8667 78.4557 97.3394C78.2686 97.8186 78.1748 98.2516 78.1741 98.6383C78.1766 99.0263 78.2642 99.3554 78.4367 99.6256C78.6092 99.8958 78.8568 100.094 79.1796 100.22C79.4176 100.313 79.6502 100.347 79.8775 100.323C80.108 100.301 80.3215 100.221 80.5179 100.083C80.7188 99.9436 80.8904 99.7495 81.0326 99.5007L82.9984 100.268C82.7418 100.829 82.3881 101.273 81.9372 101.601C81.4908 101.926 80.9754 102.116 80.3909 102.169C79.8065 102.223 79.1801 102.119 78.5118 101.858ZM86.4855 104.971C85.7128 104.67 85.1089 104.253 84.6736 103.723C84.2428 103.19 83.9901 102.577 83.9155 101.883C83.8421 101.185 83.9601 100.441 84.2693 99.6485C84.571 98.8759 84.9857 98.2563 85.5134 97.7899C86.0411 97.3234 86.6409 97.0334 87.3126 96.92C87.9875 96.8078 88.6934 96.8955 89.4301 97.1832C89.9257 97.3766 90.3558 97.6366 90.7205 97.963C91.0897 98.2875 91.3724 98.6702 91.5684 99.1112C91.7677 99.5534 91.8634 100.049 91.8556 100.598C91.8491 101.144 91.7211 101.737 91.4717 102.376L91.2483 102.948L84.9059 100.472L85.4099 99.1808L89.7914 100.891C89.9085 100.591 89.947 100.3 89.907 100.018C89.8669 99.7356 89.7566 99.484 89.5761 99.2632C89.4001 99.0405 89.1605 98.8699 88.8573 98.7516C88.5411 98.6281 88.2321 98.592 87.9303 98.6432C87.633 98.6925 87.3682 98.8127 87.1359 99.0037C86.9048 99.1915 86.7297 99.4331 86.6106 99.7285L86.1314 100.956C85.9863 101.328 85.9294 101.675 85.9607 101.999C85.9952 102.325 86.111 102.61 86.308 102.856C86.505 103.102 86.778 103.293 87.1268 103.43C87.3583 103.52 87.5829 103.57 87.8007 103.58C88.0185 103.59 88.2213 103.556 88.4091 103.479C88.597 103.402 88.7636 103.283 88.9092 103.122L90.7862 104.002C90.5077 104.426 90.1494 104.752 89.7113 104.98C89.2777 105.205 88.7854 105.321 88.2344 105.327C87.6878 105.332 87.1049 105.213 86.4855 104.971ZM99.5576 103.718L97.6047 103.091C97.6357 102.915 97.6229 102.741 97.5662 102.569C97.5108 102.393 97.4104 102.232 97.2649 102.085C97.1239 101.936 96.9328 101.814 96.6916 101.72C96.3688 101.594 96.0699 101.556 95.7948 101.606C95.5209 101.654 95.3401 101.79 95.2522 102.015C95.1822 102.194 95.1948 102.373 95.2899 102.553C95.3849 102.733 95.5923 102.929 95.9118 103.14L97.1643 103.944C97.836 104.38 98.2863 104.833 98.5151 105.306C98.7439 105.778 98.7526 106.285 98.5413 106.826C98.3492 107.319 98.0355 107.694 97.6002 107.952C97.1683 108.212 96.6605 108.348 96.077 108.361C95.498 108.371 94.8826 108.249 94.2305 107.995C93.2362 107.607 92.5249 107.09 92.0964 106.446C91.6725 105.8 91.55 105.098 91.729 104.342L93.8199 105.034C93.7635 105.361 93.8231 105.651 93.9987 105.904C94.1756 106.153 94.4499 106.35 94.8215 106.496C95.1867 106.638 95.5074 106.683 95.7838 106.629C96.0648 106.573 96.2508 106.434 96.3419 106.21C96.4124 106.02 96.393 105.834 96.2836 105.652C96.1755 105.467 95.9712 105.278 95.6706 105.086L94.471 104.319C93.7948 103.886 93.348 103.418 93.1307 102.916C92.9166 102.416 92.919 101.885 93.1379 101.324C93.3263 100.842 93.619 100.477 94.0159 100.23C94.4162 99.9844 94.8912 99.8599 95.441 99.8566C95.994 99.8546 96.5917 99.979 97.2339 100.23C98.1826 100.6 98.8508 101.092 99.2387 101.706C99.6299 102.32 99.7362 102.991 99.5576 103.718Z" fill="#605B51" fill-opacity="0.8"/>
<defs>
<filter id="filter0_di_1868_10693" x="30.65" y="7.98893" width="72.8972" height="72.8972" filterUnits="userSpaceOnUse" color-interpolation-filters="sRGB">
<feFlood flood-opacity="0" result="BackgroundImageFix"/>
<feColorMatrix in="SourceAlpha" type="matrix" values="0 0 0 0 0 0 0 0 0 0 0 0 0 0 0 0 0 0 127 0" result="hardAlpha"/>
<feOffset dy="0.73913"/>
<feGaussianBlur stdDeviation="0.73913"/>
<feComposite in2="hardAlpha" operator="out"/>
<feColorMatrix type="matrix" values="0 0 0 0 0 0 0 0 0 0 0 0 0 0 0 0 0 0 0.06 0"/>
<feBlend mode="normal" in2="BackgroundImageFix" result="effect1_dropShadow_1868_10693"/>
<feBlend mode="normal" in="SourceGraphic" in2="effect1_dropShadow_1868_10693" result="shape"/>
<feColorMatrix in="SourceAlpha" type="matrix" values="0 0 0 0 0 0 0 0 0 0 0 0 0 0 0 0 0 0 127 0" result="hardAlpha"/>
<feOffset dx="-5" dy="-11"/>
<feComposite in2="hardAlpha" operator="arithmetic" k2="-1" k3="1"/>
<feColorMatrix type="matrix" values="0 0 0 0 0.901961 0 0 0 0 0.901961 0 0 0 0 0.917647 0 0 0 1 0"/>
<feBlend mode="normal" in2="shape" result="effect2_innerShadow_1868_10693"/>
</filter>
</defs>
</svg>
