<svg width="124" height="101" viewBox="0 0 124 101" fill="none" xmlns="http://www.w3.org/2000/svg">
<g filter="url(#filter0_di_1868_10701)">
<rect x="26.4434" y="6.25124" width="64" height="64" rx="13.5668" transform="rotate(-3.96054 26.4434 6.25124)" fill="#FCFCFC"/>
<rect x="28.5767" y="8.10832" width="60" height="60" rx="11.5668" transform="rotate(-3.96054 28.5767 8.10832)" stroke="#555149" stroke-width="4"/>
<path fill-rule="evenodd" clip-rule="evenodd" d="M63.5554 38.5572C63.8629 38.204 64.3985 38.1669 64.7517 38.4744L66.5606 40.049C66.9139 40.3565 66.9509 40.8921 66.6435 41.2453C66.336 41.5985 65.8004 41.6356 65.4472 41.3281L63.6383 39.7535C63.285 39.446 63.248 38.9104 63.5554 38.5572Z" fill="#605B51"/>
<path d="M65.8939 40.5928C66.816 39.5335 68.4223 39.4223 69.4816 40.3444L71.8953 42.4456C72.9546 43.3677 73.0658 44.9739 72.1437 46.0332C71.2216 47.0925 69.6154 47.2037 68.5561 46.2816L66.1423 44.1804C65.0831 43.2583 64.9718 41.6521 65.8939 40.5928Z" fill="#605B51"/>
<path d="M61.3686 24.5141C62.271 24.9038 62.6857 25.8575 62.7575 26.8786L62.7576 26.88L62.9738 29.827C62.9787 29.9709 63.0709 30.3027 63.4004 30.4788L65.7496 31.7345C66.7428 32.2664 67.6066 33.0943 67.5173 34.1755C67.4277 35.2611 66.4338 35.9292 65.3664 36.2799L62.5872 37.19C62.2403 37.3035 62.0951 37.6391 62.0658 37.7927L61.5485 40.6661C61.3504 41.7733 60.8231 42.8451 59.7601 43.0831C58.7023 43.32 57.7622 42.5836 57.0993 41.6721L55.5325 39.5185C55.3187 39.2246 54.974 39.1742 54.8284 39.1858L51.8773 39.3779C50.8592 39.4442 49.8594 39.164 49.3487 38.3268C48.8363 37.4867 49.0503 36.4702 49.5837 35.5995L51.0029 33.2859C51.1738 33.0072 51.106 32.6965 51.0507 32.576L49.7732 29.5039L49.7725 29.5023C49.3763 28.5438 49.3025 27.4796 49.9603 26.7237C50.6191 25.9668 51.6839 25.8961 52.6856 26.1603L55.9089 27.0039C56.039 27.0364 56.3598 27.0514 56.6024 26.8517L58.6997 25.1256C59.4877 24.4777 60.4653 24.1239 61.3686 24.5141Z" fill="#605B51"/>
</g>
<path d="M19.5126 95.9442L16.7249 96.1372L20.1206 83.5391L23.4729 83.307L28.5663 95.3173L25.7787 95.5103L22.0395 86.2314L21.9434 86.2381L19.5126 95.9442ZM19.0035 91.12L25.588 90.6641L25.7286 92.6947L19.1441 93.1506L19.0035 91.12ZM31.6276 82.7424L32.4794 95.0464L29.878 95.2265L29.0262 82.9226L31.6276 82.7424ZM39.6557 87.3479L39.7963 89.3785L34.185 89.767L34.0444 87.7364L39.6557 87.3479ZM42.2116 94.3726L41.3598 82.0686L46.214 81.7326C47.1473 81.6679 47.9546 81.7911 48.6362 82.1021C49.3174 82.4091 49.852 82.8651 50.24 83.47C50.6317 84.0707 50.8559 84.7796 50.9124 85.5967C50.969 86.4137 50.8427 87.1469 50.5335 87.7961C50.2243 88.4453 49.7473 88.9673 49.1026 89.362C48.4618 89.7565 47.6689 89.9865 46.7236 90.0519L43.6296 90.2661L43.4853 88.1814L46.1588 87.9963C46.6594 87.9617 47.066 87.847 47.3785 87.6523C47.6947 87.4533 47.9222 87.1941 48.0611 86.8746C48.2037 86.5508 48.261 86.1867 48.233 85.7822C48.2047 85.3736 48.0979 85.0229 47.9126 84.7298C47.731 84.4325 47.4702 84.2111 47.1302 84.0657C46.7898 83.9162 46.3673 83.8589 45.8626 83.8938L44.1084 84.0153L44.813 94.1925L42.2116 94.3726ZM56.9813 93.5311C56.0481 93.5957 55.2273 93.4534 54.519 93.104C53.8143 92.7503 53.2531 92.2298 52.8353 91.5424C52.4172 90.851 52.1754 90.0326 52.11 89.0874C52.044 88.1342 52.1705 87.2883 52.4896 86.5499C52.8085 85.8075 53.2926 85.2145 53.942 84.7712C54.5952 84.3235 55.3884 84.0674 56.3216 84.0028C57.2548 83.9382 58.0737 84.0827 58.7783 84.4363C59.4866 84.7857 60.0499 85.3061 60.468 85.9975C60.8858 86.6849 61.1277 87.5053 61.1937 88.4585C61.2592 89.4037 61.1325 90.2476 60.8136 90.99C60.4945 91.7284 60.0084 92.3215 59.3552 92.7691C58.7058 93.2125 57.9145 93.4665 56.9813 93.5311ZM56.856 91.5477C57.2806 91.5183 57.6267 91.3736 57.8944 91.1136C58.1619 90.8496 58.3532 90.5024 58.4682 90.0718C58.5873 89.641 58.6283 89.1573 58.5911 88.6206C58.554 88.0839 58.4467 87.6104 58.2694 87.2001C58.0961 86.7895 57.8588 86.4719 57.5575 86.2473C57.2562 86.0227 56.8933 85.9251 56.4688 85.9545C56.0402 85.9841 55.6882 86.1313 55.4127 86.3958C55.1413 86.6601 54.946 87.0076 54.8269 87.4384C54.7119 87.869 54.6729 88.3526 54.7101 88.8893C54.7472 89.426 54.8525 89.8996 55.0258 90.3102C55.2031 90.7205 55.4444 91.0378 55.7497 91.2621C56.0587 91.4822 56.4275 91.5774 56.856 91.5477ZM64.5947 92.8229L61.4446 83.7688L64.0339 83.5895L65.893 89.6906L65.9772 89.6848L67.0378 83.3816L69.5791 83.2056L71.5198 89.2648L71.5979 89.2594L72.577 82.9981L75.1604 82.8192L73.294 92.2206L70.5845 92.4082L68.5966 86.7145L68.4825 86.7224L67.2982 92.6357L64.5947 92.8229ZM80.982 91.8694C80.0327 91.9352 79.2024 91.7995 78.4909 91.4624C77.7831 91.121 77.2204 90.6086 76.8029 89.9252C76.385 89.2378 76.1424 88.4075 76.075 87.4342C76.0093 86.485 76.1359 85.6392 76.4547 84.8967C76.7736 84.1543 77.2535 83.5596 77.8947 83.1128C78.5398 82.6657 79.315 82.4108 80.2202 82.3482C80.8289 82.306 81.4025 82.3649 81.9407 82.5248C82.4827 82.6805 82.9634 82.939 83.3828 83.3003C83.8063 83.6613 84.1485 84.1286 84.4095 84.7021C84.6703 85.2716 84.8279 85.9489 84.8822 86.7339L84.9309 87.4368L77.1388 87.9763L77.029 86.3903L82.4119 86.0176C82.3864 85.6491 82.2837 85.3282 82.1038 85.0549C81.9239 84.7817 81.6863 84.5748 81.3908 84.4342C81.0991 84.2894 80.767 84.2299 80.3945 84.2557C80.006 84.2826 79.6678 84.3966 79.3799 84.5976C79.0957 84.7944 78.8799 85.0488 78.7325 85.3608C78.5848 85.6688 78.5215 86.0052 78.5427 86.37L78.6472 87.8779C78.6788 88.3345 78.7902 88.7232 78.9814 89.044C79.1767 89.3645 79.4367 89.604 79.7616 89.7626C80.0865 89.9213 80.4632 89.9857 80.8918 89.956C81.1761 89.9364 81.4337 89.8783 81.6645 89.7818C81.8952 89.6854 82.0892 89.5512 82.2463 89.3793C82.4034 89.2075 82.518 89.0024 82.59 88.764L84.9679 88.7563C84.8871 89.3333 84.6752 89.847 84.3321 90.2974C83.9927 90.7434 83.5389 91.1048 82.9705 91.3816C82.4058 91.6542 81.743 91.8167 80.982 91.8694ZM86.706 91.292L86.0671 82.0641L88.5483 81.8923L88.6598 83.5024L88.7559 83.4957C88.8845 82.9113 89.1369 82.4592 89.5132 82.1394C89.8892 81.8155 90.3355 81.6357 90.8522 81.6C90.9803 81.5911 91.1191 81.5895 91.2684 81.5953C91.4177 81.6011 91.5494 81.6141 91.6634 81.6344L91.8207 83.9053C91.698 83.8776 91.5296 83.857 91.3154 83.8437C91.1011 83.8304 90.9059 83.8298 90.7297 83.842C90.3532 83.8681 90.0225 83.9735 89.7374 84.1582C89.4562 84.3386 89.2394 84.579 89.0871 84.8793C88.9389 85.1793 88.8778 85.5176 88.9038 85.8941L89.2653 91.1148L86.706 91.292ZM97.2477 90.7433C96.2984 90.809 95.4681 90.6733 94.7565 90.3362C94.0488 89.9949 93.4861 89.4825 93.0685 88.7991C92.6507 88.1117 92.4081 87.2813 92.3407 86.3081C92.275 85.3588 92.4015 84.513 92.7204 83.7706C93.0392 83.0281 93.5192 82.4335 94.1604 81.9867C94.8055 81.5396 95.5807 81.2847 96.4858 81.222C97.0946 81.1798 97.6682 81.2387 98.2064 81.3987C98.7484 81.5543 99.2291 81.8128 99.6485 82.1741C100.072 82.5352 100.414 83.0025 100.675 83.576C100.936 84.1455 101.094 84.8227 101.148 85.6078L101.197 86.3107L93.4045 86.8502L93.2946 85.2641L98.6776 84.8914C98.6521 84.5229 98.5494 84.2021 98.3695 83.9288C98.1896 83.6555 97.9519 83.4486 97.6565 83.3081C97.3648 83.1633 97.0326 83.1038 96.6602 83.1296C96.2717 83.1565 95.9334 83.2704 95.6455 83.4715C95.3614 83.6682 95.1456 83.9226 94.9981 84.2346C94.8504 84.5427 94.7872 84.8791 94.8084 85.2438L94.9128 86.7518C94.9444 87.2084 95.0559 87.597 95.2471 87.9178C95.4423 88.2383 95.7024 88.4779 96.0273 88.6365C96.3522 88.7951 96.7289 88.8596 97.1574 88.8299C97.4418 88.8102 97.6994 88.7521 97.9301 88.6557C98.1609 88.5592 98.3548 88.425 98.512 88.2532C98.6691 88.0813 98.7837 87.8762 98.8557 87.6378L101.234 87.6301C101.153 88.2072 100.941 88.7209 100.598 89.1712C100.258 89.6173 99.8045 89.9787 99.2361 90.2555C98.6715 90.528 98.0086 90.6906 97.2477 90.7433ZM106.382 90.0807C105.682 90.1292 105.034 89.9929 104.441 89.6718C103.851 89.3464 103.365 88.8428 102.984 88.1609C102.606 87.4747 102.382 86.617 102.311 85.5876C102.237 84.5303 102.347 83.6393 102.639 82.9149C102.93 82.1864 103.346 81.6283 103.887 81.2408C104.431 80.849 105.042 80.6296 105.719 80.5828C106.236 80.547 106.672 80.6053 107.029 80.7577C107.389 80.9058 107.685 81.1026 107.915 81.3483C108.149 81.5896 108.331 81.8306 108.46 82.0711L108.538 82.0657L108.218 77.4397L110.771 77.263L111.623 89.5669L109.1 89.7416L108.997 88.2637L108.889 88.2712C108.787 88.5358 108.634 88.802 108.431 89.0695C108.232 89.3328 107.964 89.5586 107.627 89.747C107.294 89.935 106.879 90.0463 106.382 90.0807ZM107.053 87.9879C107.465 87.9593 107.806 87.823 108.075 87.579C108.347 87.3308 108.545 86.9971 108.669 86.5781C108.797 86.1587 108.842 85.6747 108.804 85.126C108.766 84.5773 108.657 84.1059 108.477 83.7119C108.297 83.3179 108.055 83.0208 107.751 82.8205C107.448 82.6201 107.089 82.5343 106.677 82.5628C106.256 82.5919 105.91 82.7306 105.637 82.9789C105.365 83.2272 105.168 83.5587 105.048 83.9735C104.928 84.3882 104.886 84.862 104.923 85.3947C104.96 85.9314 105.067 86.4009 105.244 86.8031C105.425 87.2011 105.665 87.5064 105.965 87.719C106.27 87.9274 106.632 88.017 107.053 87.9879Z" fill="#605B51" fill-opacity="0.8"/>
<defs>
<filter id="filter0_di_1868_10701" x="24.7475" y="0.982873" width="71.6593" height="71.6593" filterUnits="userSpaceOnUse" color-interpolation-filters="sRGB">
<feFlood flood-opacity="0" result="BackgroundImageFix"/>
<feColorMatrix in="SourceAlpha" type="matrix" values="0 0 0 0 0 0 0 0 0 0 0 0 0 0 0 0 0 0 127 0" result="hardAlpha"/>
<feOffset dy="0.847922"/>
<feGaussianBlur stdDeviation="0.847922"/>
<feComposite in2="hardAlpha" operator="out"/>
<feColorMatrix type="matrix" values="0 0 0 0 0 0 0 0 0 0 0 0 0 0 0 0 0 0 0.06 0"/>
<feBlend mode="normal" in2="BackgroundImageFix" result="effect1_dropShadow_1868_10701"/>
<feBlend mode="normal" in="SourceGraphic" in2="effect1_dropShadow_1868_10701" result="shape"/>
<feColorMatrix in="SourceAlpha" type="matrix" values="0 0 0 0 0 0 0 0 0 0 0 0 0 0 0 0 0 0 127 0" result="hardAlpha"/>
<feOffset dx="5" dy="-8"/>
<feComposite in2="hardAlpha" operator="arithmetic" k2="-1" k3="1"/>
<feColorMatrix type="matrix" values="0 0 0 0 0.901961 0 0 0 0 0.901961 0 0 0 0 0.917647 0 0 0 1 0"/>
<feBlend mode="normal" in2="shape" result="effect2_innerShadow_1868_10701"/>
</filter>
</defs>
</svg>
