<svg width="55" height="55" viewBox="0 0 55 55" fill="none" xmlns="http://www.w3.org/2000/svg">
<g filter="url(#filter0_di_1868_10682)">
<rect x="13.9287" width="42.7098" height="42.7098" rx="9.49108" transform="rotate(19.0336 13.9287 0)" fill="#FCFCFC"/>
<rect x="15.0866" y="2.37761" width="38.9698" height="38.9698" rx="7.62108" transform="rotate(19.0336 15.0866 2.37761)" stroke="#555149" stroke-width="3.74"/>
<path fill-rule="evenodd" clip-rule="evenodd" d="M25.4708 17.4731C25.8838 17.6155 26.103 18.0657 25.9606 18.4787L25.4447 19.974C25.3022 20.387 24.852 20.6062 24.4391 20.4638C24.0261 20.3213 23.8069 19.8711 23.9493 19.4582L24.4652 17.9628C24.6077 17.5499 25.0579 17.3306 25.4708 17.4731ZM34.443 20.5683C34.8559 20.7108 35.0752 21.161 34.9327 21.5739L34.4169 23.0693C34.2744 23.4822 33.8242 23.7015 33.4113 23.559C32.9983 23.4166 32.7791 22.9663 32.9215 22.5534L33.4374 21.058C33.5798 20.6451 34.0301 20.4258 34.443 20.5683Z" fill="#605B51"/>
<path d="M30.3898 20.216C31.858 20.7225 33.0223 21.1237 33.8874 21.5703C34.7811 22.0317 35.4337 22.5791 35.802 23.4167C36.1667 24.2461 36.151 25.1298 35.9314 26.1679C35.7162 27.1853 35.2844 28.4356 34.7341 30.0307L34.5743 30.4941C34.024 32.0891 33.5929 33.3397 33.1351 34.2734C32.6679 35.2263 32.1352 35.9324 31.3366 36.3605C30.5302 36.7928 29.6788 36.8215 28.6908 36.6337C27.7344 36.4519 26.5703 36.0499 25.1021 35.5434L23.5909 35.022C22.1228 34.5156 20.9592 34.1145 20.0942 33.668C19.2005 33.2067 18.5479 32.6591 18.1796 31.8216C17.8149 30.9921 17.8309 30.1078 18.0505 29.0694C18.2658 28.0521 18.6966 26.8014 19.2468 25.2064L19.4067 24.743C19.957 23.1479 20.3889 21.8976 20.8467 20.964C21.314 20.0113 21.8465 19.3059 22.645 18.8778C23.4514 18.4455 24.3027 18.4168 25.2908 18.6046C26.2471 18.7864 27.4105 19.1881 28.8786 19.6946L30.3898 20.216ZM24.8766 26.4709C24.4638 26.3286 24.0134 26.548 23.8709 26.9607C23.7284 27.3736 23.9478 27.8239 24.3607 27.9664L23.5868 30.2097C23.4443 30.6227 23.6637 31.073 24.0766 31.2155C24.4895 31.3579 24.9399 31.1386 25.0823 30.7257L26.011 28.0337C26.2102 27.4557 25.9033 26.8251 25.3253 26.6257L24.8766 26.4709ZM27.8677 27.5028C27.4549 27.3604 27.0045 27.5799 26.862 27.9926C26.7195 28.4055 26.9388 28.8559 27.3518 28.9983L27.8567 29.1725L26.4369 30.9017C26.1597 31.2392 26.2091 31.7377 26.5466 32.0149C26.8841 32.2921 27.3823 32.2435 27.6596 31.9061L29.614 29.5257C30.0998 28.934 29.7498 28.1521 29.1537 27.9464L27.8677 27.5028ZM23.9228 21.9591C23.51 21.8169 23.0604 22.0364 22.918 22.4492C22.7757 22.862 22.9943 23.312 23.4069 23.4546L32.3792 26.5499C32.7921 26.6923 33.2424 26.4729 33.3849 26.0601C33.5274 25.6472 33.3081 25.1968 32.8951 25.0544L23.9228 21.9591Z" fill="#605B51"/>
</g>
<defs>
<filter id="filter0_di_1868_10682" x="-1.18638" y="-0.593192" width="56.6762" height="56.6762" filterUnits="userSpaceOnUse" color-interpolation-filters="sRGB">
<feFlood flood-opacity="0" result="BackgroundImageFix"/>
<feColorMatrix in="SourceAlpha" type="matrix" values="0 0 0 0 0 0 0 0 0 0 0 0 0 0 0 0 0 0 127 0" result="hardAlpha"/>
<feOffset dy="0.593192"/>
<feGaussianBlur stdDeviation="0.593192"/>
<feComposite in2="hardAlpha" operator="out"/>
<feColorMatrix type="matrix" values="0 0 0 0 0 0 0 0 0 0 0 0 0 0 0 0 0 0 0.06 0"/>
<feBlend mode="normal" in2="BackgroundImageFix" result="effect1_dropShadow_1868_10682"/>
<feBlend mode="normal" in="SourceGraphic" in2="effect1_dropShadow_1868_10682" result="shape"/>
<feColorMatrix in="SourceAlpha" type="matrix" values="0 0 0 0 0 0 0 0 0 0 0 0 0 0 0 0 0 0 127 0" result="hardAlpha"/>
<feOffset dx="-2" dy="-8"/>
<feComposite in2="hardAlpha" operator="arithmetic" k2="-1" k3="1"/>
<feColorMatrix type="matrix" values="0 0 0 0 0.901961 0 0 0 0 0.901961 0 0 0 0 0.917647 0 0 0 1 0"/>
<feBlend mode="normal" in2="shape" result="effect2_innerShadow_1868_10682"/>
</filter>
</defs>
</svg>
