<svg width="160" height="159" viewBox="0 0 160 159" fill="none" xmlns="http://www.w3.org/2000/svg">
<g filter="url(#filter0_di_1868_10684)">
<rect x="42.2246" y="1.91557" width="84.0909" height="84.0909" rx="17.5758" transform="rotate(3.25372 42.2246 1.91557)" fill="#FCFCFC"/>
<rect x="44.1079" y="4.02586" width="80.0909" height="80.0909" rx="15.5758" transform="rotate(3.25372 44.1079 4.02586)" stroke="#555149" stroke-width="4"/>
<path d="M89.7198 46.729C89.4716 51.0942 85.7317 54.4317 81.3666 54.1836C77.0014 53.9354 73.6638 50.1955 73.912 45.8303C74.1602 41.4651 77.9 38.1276 82.2652 38.3758" stroke="#605B51" stroke-width="3.65" stroke-linecap="round"/>
<path d="M85.8581 30.9678C84.8484 30.7024 83.7972 30.5334 82.7145 30.4718C73.9841 29.9755 66.5044 36.6506 66.0081 45.381C65.5118 54.1113 72.1868 61.5911 80.9172 62.0875C89.6476 62.5838 97.1274 55.9087 97.6237 47.1783C97.6852 46.0956 97.6364 45.0321 97.4873 43.9988" stroke="#605B51" stroke-width="3.65" stroke-linecap="round"/>
<path d="M94.0438 31.6828L94.7397 34.8738L97.6765 35.7789C98.2015 35.9635 98.3786 36.6189 97.9999 37.0267C96.0964 39.0762 93.6281 41.5029 89.6668 39.3741C87.8713 35.318 90.4864 32.9598 92.862 31.2337C93.3012 30.9146 93.9121 31.1562 94.0438 31.6828Z" fill="#605B51"/>
<path d="M81.8671 46.2231L89.4734 39.4351M94.7397 34.8738L94.0438 31.6828C93.9121 31.1562 93.3012 30.9146 92.862 31.2337C90.4864 32.9598 87.8713 35.318 89.6668 39.3741C93.6281 41.5029 96.0964 39.0762 97.9999 37.0267C98.3786 36.6189 98.2015 35.9635 97.6765 35.7789L94.7397 34.8738Z" stroke="#605B51" stroke-width="3.65" stroke-linecap="round" stroke-linejoin="round"/>
</g>
<path d="M40.2426 103.259L39.3357 119.212L35.963 119.02L36.8699 103.068L40.2426 103.259ZM41.8913 119.357L42.7981 103.405L53.5472 104.016L53.3891 106.796L46.0127 106.377L45.7967 110.178L52.62 110.566L52.4619 113.347L45.6386 112.959L45.422 116.768L52.8295 117.189L52.6715 119.97L41.8913 119.357ZM55.1024 120.108L56.0092 104.156L62.3029 104.514C63.5128 104.582 64.5304 104.872 65.3558 105.383C66.1814 105.888 66.7944 106.561 67.1946 107.402C67.6003 108.237 67.7731 109.185 67.7128 110.244C67.6526 111.304 67.371 112.225 66.868 113.009C66.365 113.793 65.667 114.387 64.7741 114.789C63.8865 115.192 62.8299 115.359 61.6044 115.289L57.5929 115.061L57.7466 112.358L61.2128 112.555C61.8619 112.592 62.4031 112.511 62.8364 112.311C63.2752 112.107 63.6098 111.811 63.8402 111.423C64.0762 111.03 64.209 110.571 64.2389 110.047C64.269 109.517 64.1888 109.049 63.9983 108.642C63.8133 108.23 63.5142 107.903 63.1007 107.661C62.6876 107.414 62.1539 107.271 61.4996 107.234L59.2252 107.105L58.4751 120.3L55.1024 120.108ZM85.1333 110.984C85.0458 110.599 84.9116 110.256 84.7308 109.954C84.5504 109.646 84.3231 109.383 84.049 109.165C83.7804 108.941 83.4674 108.764 83.1101 108.635C82.758 108.505 82.3639 108.428 81.9277 108.403C81.1124 108.357 80.3843 108.519 79.7433 108.889C79.1076 109.259 78.5963 109.821 78.2096 110.575C77.8232 111.324 77.5984 112.254 77.5352 113.366C77.4721 114.477 77.5871 115.432 77.8803 116.23C78.1736 117.028 78.6175 117.65 79.2121 118.095C79.8071 118.535 80.5251 118.779 81.3664 118.827C82.1297 118.87 82.7891 118.772 83.3445 118.533C83.9054 118.289 84.3428 117.926 84.6567 117.443C84.9758 116.961 85.1547 116.38 85.1934 115.7L85.8731 115.84L81.7604 115.606L81.9048 113.067L88.5801 113.447L88.4659 115.456C88.3861 116.858 88.0217 118.046 87.3724 119.02C86.7235 119.988 85.8642 120.716 84.7947 121.202C83.7254 121.683 82.5209 121.885 81.1812 121.809C79.6857 121.724 78.3906 121.32 77.2961 120.596C76.2019 119.867 75.3727 118.874 74.8085 117.618C74.2499 116.357 74.0184 114.885 74.114 113.202C74.1875 111.909 74.44 110.767 74.8714 109.776C75.3084 108.78 75.887 107.948 76.6074 107.28C77.3278 106.613 78.1503 106.12 79.0748 105.803C79.9993 105.486 80.9886 105.357 82.0427 105.417C82.9463 105.468 83.78 105.648 84.5439 105.958C85.308 106.262 85.9777 106.669 86.5529 107.181C87.1333 107.694 87.5969 108.291 87.9436 108.972C88.2907 109.648 88.4963 110.384 88.5605 111.179L85.1333 110.984ZM95.7389 122.653C94.529 122.584 93.4973 122.267 92.6437 121.703C91.7957 121.134 91.1591 120.373 90.7339 119.422C90.309 118.465 90.1314 117.374 90.201 116.149C90.2713 114.913 90.5716 113.846 91.1018 112.949C91.6324 112.047 92.3511 111.364 93.2579 110.899C94.1702 110.43 95.2313 110.23 96.4412 110.299C97.6512 110.368 98.6801 110.687 99.5282 111.256C100.382 111.82 101.021 112.581 101.446 113.537C101.871 114.489 102.049 115.582 101.978 116.818C101.909 118.044 101.608 119.108 101.078 120.01C100.548 120.907 99.8263 121.59 98.914 122.059C98.0072 122.524 96.9489 122.721 95.7389 122.653ZM95.9006 120.083C96.4511 120.114 96.9195 119.985 97.3059 119.694C97.6926 119.398 97.9949 118.983 98.2128 118.448C98.436 117.914 98.5673 117.299 98.6069 116.603C98.6464 115.907 98.5856 115.281 98.4245 114.725C98.2686 114.169 98.0153 113.722 97.6646 113.385C97.3139 113.047 96.8633 112.863 96.3129 112.831C95.7573 112.8 95.2809 112.931 94.8838 113.227C94.492 113.522 94.1844 113.937 93.9613 114.471C93.7434 115.006 93.6146 115.621 93.5751 116.317C93.5355 117.013 93.5937 117.639 93.7497 118.195C93.9108 118.751 94.1693 119.198 94.5252 119.536C94.8865 119.869 95.345 120.051 95.9006 120.083ZM106.978 123.284C106.215 123.24 105.542 123.069 104.96 122.77C104.378 122.466 103.928 122.042 103.61 121.498C103.297 120.949 103.163 120.28 103.208 119.49C103.246 118.826 103.4 118.274 103.67 117.836C103.939 117.399 104.292 117.054 104.729 116.803C105.165 116.551 105.654 116.371 106.197 116.261C106.745 116.152 107.317 116.085 107.912 116.062C108.612 116.028 109.177 115.993 109.606 115.955C110.036 115.911 110.35 115.83 110.55 115.711C110.749 115.593 110.856 115.406 110.871 115.151L110.873 115.105C110.901 114.611 110.767 114.221 110.471 113.933C110.18 113.646 109.752 113.486 109.186 113.454C108.588 113.42 108.106 113.525 107.738 113.77C107.37 114.009 107.117 114.323 106.981 114.711L103.926 114.288C104.123 113.57 104.465 112.959 104.952 112.455C105.44 111.946 106.052 111.569 106.79 111.325C107.534 111.075 108.383 110.978 109.339 111.032C110.004 111.07 110.635 111.184 111.234 111.374C111.838 111.565 112.367 111.837 112.821 112.191C113.28 112.546 113.632 112.988 113.878 113.517C114.125 114.042 114.228 114.66 114.187 115.371L113.728 123.441L110.582 123.262L110.676 121.603L110.582 121.597C110.369 121.96 110.093 122.276 109.755 122.543C109.417 122.805 109.018 123.004 108.557 123.139C108.096 123.269 107.57 123.317 106.978 123.284ZM108.058 121.048C108.546 121.075 108.983 121.004 109.368 120.833C109.753 120.657 110.061 120.409 110.293 120.088C110.525 119.768 110.653 119.398 110.677 118.977L110.749 117.708C110.641 117.769 110.495 117.823 110.31 117.87C110.13 117.912 109.928 117.95 109.702 117.984C109.476 118.013 109.25 118.039 109.025 118.063C108.8 118.081 108.596 118.098 108.413 118.114C108.02 118.149 107.675 118.22 107.377 118.329C107.079 118.437 106.843 118.593 106.67 118.796C106.498 118.995 106.402 119.25 106.385 119.562C106.359 120.013 106.503 120.368 106.816 120.625C107.135 120.878 107.549 121.019 108.058 121.048ZM120.308 107.811L119.402 123.763L116.083 123.575L116.99 107.622L120.308 107.811ZM20.2549 131.956L20.413 129.176L33.5144 129.92L33.3563 132.701L28.4725 132.424L27.7237 145.595L24.39 145.406L25.1388 132.234L20.2549 131.956ZM33.2411 145.909L33.9213 133.945L37.1382 134.127L37.0195 136.215L37.1441 136.222C37.4044 135.492 37.8024 134.952 38.3381 134.602C38.874 134.247 39.4769 134.088 40.1468 134.127C40.3129 134.136 40.4915 134.157 40.6824 134.188C40.8734 134.22 41.0405 134.258 41.1839 134.303L41.0165 137.247C40.8633 137.191 40.6502 137.138 40.3771 137.086C40.1039 137.034 39.8531 137.001 39.6246 136.988C39.1365 136.96 38.6942 137.042 38.2979 137.233C37.907 137.419 37.5893 137.693 37.3447 138.054C37.1054 138.416 36.9718 138.84 36.9441 139.329L36.5593 146.097L33.2411 145.909ZM45.0529 146.807C44.2896 146.763 43.6168 146.592 43.0347 146.294C42.4529 145.99 42.003 145.565 41.6849 145.021C41.3722 144.472 41.2384 143.803 41.2832 143.014C41.321 142.349 41.4748 141.798 41.7445 141.36C42.0143 140.922 42.3673 140.577 42.8035 140.326C43.2398 140.075 43.7293 139.894 44.2722 139.784C44.8202 139.675 45.3918 139.608 45.987 139.585C46.687 139.552 47.2517 139.516 47.681 139.478C48.1107 139.435 48.4252 139.354 48.6247 139.235C48.8243 139.116 48.9313 138.929 48.9457 138.675L48.9484 138.628C48.9764 138.135 48.8423 137.744 48.5461 137.456C48.2551 137.169 47.8266 137.009 47.2606 136.977C46.6634 136.943 46.1807 137.048 45.8126 137.293C45.4447 137.533 45.1924 137.847 45.0557 138.235L42.001 137.811C42.1981 137.093 42.5402 136.482 43.0273 135.978C43.5146 135.469 44.1273 135.093 44.8654 134.848C45.6089 134.599 46.4584 134.501 47.4139 134.555C48.0785 134.593 48.7102 134.707 49.3089 134.897C49.9128 135.088 50.4417 135.36 50.8957 135.714C51.3548 136.069 51.7074 136.511 51.9534 137.04C52.1996 137.565 52.3026 138.183 52.2621 138.894L51.8034 146.964L48.6566 146.785L48.7509 145.126L48.6574 145.121C48.444 145.484 48.1682 145.799 47.83 146.066C47.4921 146.328 47.0927 146.527 46.6318 146.662C46.1712 146.792 45.6449 146.84 45.0529 146.807ZM46.1334 144.571C46.6215 144.599 47.058 144.527 47.4428 144.356C47.8279 144.18 48.1363 143.932 48.3681 143.612C48.5999 143.291 48.7278 142.921 48.7517 142.5L48.8238 141.231C48.7161 141.292 48.5698 141.347 48.3848 141.393C48.2053 141.435 48.0026 141.473 47.7766 141.507C47.551 141.536 47.3255 141.562 47.1001 141.586C46.8751 141.604 46.6709 141.622 46.4877 141.637C46.095 141.672 45.7497 141.744 45.4518 141.852C45.1539 141.96 44.9185 142.116 44.7454 142.32C44.5726 142.518 44.4773 142.773 44.4596 143.085C44.434 143.537 44.5779 143.891 44.8915 144.149C45.2105 144.401 45.6245 144.542 46.1334 144.571ZM59.5507 147.639C58.3253 147.569 57.2859 147.25 56.4326 146.68C55.5849 146.106 54.9511 145.34 54.5314 144.384C54.1169 143.428 53.9441 142.345 54.0128 141.135C54.0825 139.91 54.3799 138.848 54.905 137.951C55.4356 137.048 56.1544 136.362 57.0615 135.893C57.9689 135.418 59.0275 135.216 60.2375 135.284C61.2812 135.344 62.1844 135.585 62.9469 136.009C63.7095 136.432 64.2998 137 64.7178 137.711C65.1358 138.423 65.3418 139.242 65.336 140.169L62.2048 139.991C62.1505 139.389 61.9441 138.895 61.5857 138.51C61.2328 138.12 60.7525 137.908 60.145 137.873C59.6309 137.844 59.1737 137.959 58.7735 138.217C58.3788 138.471 58.06 138.857 57.8169 139.374C57.5739 139.892 57.431 140.527 57.3882 141.28C57.3448 142.043 57.4118 142.698 57.5891 143.245C57.7716 143.792 58.047 144.217 58.4153 144.519C58.7836 144.821 59.2248 144.987 59.7389 145.016C60.118 145.038 60.4625 144.979 60.7726 144.84C61.0878 144.702 61.3525 144.49 61.5667 144.206C61.7863 143.916 61.9392 143.563 62.0255 143.146L65.1567 143.324C65.0528 144.235 64.7578 145.025 64.2717 145.696C63.791 146.361 63.1502 146.867 62.3491 147.212C61.5481 147.557 60.6153 147.699 59.5507 147.639ZM70.0149 144.545L70.249 140.566L70.7319 140.593L74.8223 136.27L78.6312 136.486L73.1407 142.207L72.354 142.162L70.0149 144.545ZM66.8126 147.817L67.7194 131.865L71.0376 132.054L70.1307 148.006L66.8126 147.817ZM74.2901 148.242L71.0657 142.831L73.4111 140.612L78.1769 148.463L74.2901 148.242ZM86.8541 141.064L86.7045 143.697L79.4294 143.283L79.5791 140.651L86.8541 141.064ZM92.2174 145.808L92.4514 141.828L92.9343 141.855L97.0248 137.532L100.834 137.748L95.3432 143.469L94.5565 143.424L92.2174 145.808ZM89.015 149.079L89.9219 133.127L93.2401 133.316L92.3332 149.268L89.015 149.079ZM96.4926 149.505L93.2681 144.093L95.6136 141.875L100.379 149.725L96.4926 149.505ZM101.562 149.793L102.242 137.829L105.56 138.017L104.88 149.981L101.562 149.793ZM103.997 136.381C103.504 136.353 103.09 136.165 102.755 135.818C102.426 135.466 102.275 135.059 102.301 134.597C102.327 134.14 102.523 133.758 102.89 133.45C103.262 133.138 103.694 132.996 104.188 133.024C104.681 133.052 105.092 133.242 105.421 133.594C105.756 133.941 105.91 134.343 105.884 134.8C105.858 135.263 105.659 135.65 105.287 135.962C104.92 136.269 104.49 136.409 103.997 136.381ZM111.03 143.392L110.637 150.309L107.319 150.12L107.999 138.156L111.162 138.336L111.042 140.446L111.182 140.454C111.486 139.774 111.961 139.248 112.608 138.879C113.254 138.504 114.021 138.342 114.909 138.392C115.74 138.44 116.454 138.663 117.051 139.061C117.649 139.46 118.099 140.006 118.404 140.701C118.708 141.39 118.834 142.2 118.782 143.129L118.348 150.747L115.03 150.558L115.43 143.533C115.477 142.801 115.322 142.219 114.966 141.787C114.611 141.35 114.101 141.113 113.436 141.075C112.99 141.05 112.589 141.123 112.236 141.296C111.887 141.469 111.607 141.734 111.393 142.092C111.186 142.445 111.065 142.878 111.03 143.392ZM125.865 155.925C124.79 155.864 123.877 155.664 123.125 155.324C122.378 154.99 121.794 154.558 121.37 154.029C120.947 153.5 120.686 152.917 120.587 152.281L123.679 152.042C123.759 152.287 123.894 152.518 124.085 152.738C124.276 152.957 124.534 153.138 124.859 153.282C125.189 153.431 125.596 153.519 126.079 153.546C126.8 153.587 127.405 153.445 127.892 153.118C128.385 152.797 128.654 152.226 128.701 151.406L128.825 149.217L128.685 149.209C128.521 149.533 128.285 149.835 127.977 150.114C127.67 150.394 127.282 150.614 126.814 150.775C126.347 150.936 125.796 150.998 125.163 150.962C124.264 150.911 123.458 150.657 122.745 150.2C122.036 149.738 121.489 149.063 121.101 148.176C120.72 147.285 120.566 146.177 120.642 144.853C120.719 143.497 121.004 142.378 121.497 141.494C121.99 140.61 122.615 139.964 123.373 139.553C124.136 139.144 124.957 138.964 125.834 139.013C126.504 139.052 127.058 139.198 127.497 139.452C127.936 139.701 128.284 140.002 128.54 140.355C128.801 140.703 128.998 141.043 129.131 141.373L129.255 141.38L129.369 139.371L132.664 139.558L131.977 151.639C131.92 152.657 131.622 153.494 131.084 154.151C130.547 154.808 129.827 155.283 128.925 155.576C128.028 155.874 127.008 155.99 125.865 155.925ZM126.356 148.53C126.891 148.56 127.35 148.453 127.734 148.21C128.123 147.961 128.431 147.593 128.656 147.105C128.887 146.613 129.023 146.017 129.063 145.316C129.103 144.615 129.038 144.001 128.87 143.476C128.703 142.946 128.44 142.527 128.082 142.22C127.725 141.913 127.278 141.745 126.743 141.714C126.198 141.683 125.73 141.805 125.34 142.08C124.949 142.349 124.643 142.738 124.421 143.247C124.2 143.755 124.07 144.349 124.031 145.03C123.992 145.72 124.054 146.323 124.217 146.837C124.386 147.347 124.647 147.75 125 148.046C125.359 148.338 125.811 148.499 126.356 148.53Z" fill="#605B51" fill-opacity="0.8"/>
<defs>
<filter id="filter0_di_1868_10684" x="35.2549" y="0.817088" width="93.122" height="93.1221" filterUnits="userSpaceOnUse" color-interpolation-filters="sRGB">
<feFlood flood-opacity="0" result="BackgroundImageFix"/>
<feColorMatrix in="SourceAlpha" type="matrix" values="0 0 0 0 0 0 0 0 0 0 0 0 0 0 0 0 0 0 127 0" result="hardAlpha"/>
<feOffset dy="1.09848"/>
<feGaussianBlur stdDeviation="1.09848"/>
<feComposite in2="hardAlpha" operator="out"/>
<feColorMatrix type="matrix" values="0 0 0 0 0 0 0 0 0 0 0 0 0 0 0 0 0 0 0.06 0"/>
<feBlend mode="normal" in2="BackgroundImageFix" result="effect1_dropShadow_1868_10684"/>
<feBlend mode="normal" in="SourceGraphic" in2="effect1_dropShadow_1868_10684" result="shape"/>
<feColorMatrix in="SourceAlpha" type="matrix" values="0 0 0 0 0 0 0 0 0 0 0 0 0 0 0 0 0 0 127 0" result="hardAlpha"/>
<feOffset dx="-2" dy="-11"/>
<feComposite in2="hardAlpha" operator="arithmetic" k2="-1" k3="1"/>
<feColorMatrix type="matrix" values="0 0 0 0 0.901703 0 0 0 0 0.901703 0 0 0 0 0.919189 0 0 0 1 0"/>
<feBlend mode="normal" in2="shape" result="effect2_innerShadow_1868_10684"/>
</filter>
</defs>
</svg>
