<svg width="28" height="28" viewBox="0 0 28 28" fill="none" xmlns="http://www.w3.org/2000/svg">
<circle cx="14" cy="14" r="14" fill="#2EC5CE"/>
<path d="M9.28698 18.6469C8.89367 19.0346 8.88566 19.6738 9.32151 20.013C9.84528 20.4206 10.4212 20.759 11.0352 21.0184C11.957 21.408 12.9465 21.6122 13.9472 21.6194C14.9479 21.6266 15.9402 21.4365 16.8675 21.0602C17.4851 20.8096 18.0658 20.4795 18.5954 20.0794C19.036 19.7465 19.0372 19.1072 18.6494 18.7139L14.7038 14.7113C14.316 14.318 13.6829 14.3135 13.2896 14.7012L9.28698 18.6469Z" fill="white"/>
<path d="M20.4675 13.9622C21.0197 13.9661 21.4774 13.5196 21.4083 12.9717C21.3259 12.3179 21.1581 11.6763 20.9081 11.0636C20.5318 10.1414 19.9769 9.30271 19.2753 8.59586C18.5736 7.889 17.739 7.32792 16.8196 6.94491C15.9003 6.56189 14.9142 6.36452 13.9182 6.36415C12.9222 6.36378 11.936 6.56041 11.0163 6.94274C10.0967 7.32506 9.26168 7.88553 8.55949 8.59186C7.8573 9.29819 7.30175 10.1364 6.92484 11.0583C6.67439 11.6709 6.5061 12.3124 6.42318 12.9661C6.35369 13.514 6.81101 13.9608 7.36329 13.9573L8.33814 13.9512C8.89042 13.9478 9.32439 13.4921 9.44072 12.9522C9.49715 12.6904 9.57659 12.4333 9.67846 12.1841C9.90691 11.6254 10.2436 11.1173 10.6692 10.6892C11.0948 10.2611 11.6009 9.92143 12.1583 9.6897C12.7157 9.45798 13.3134 9.3388 13.9171 9.33902C14.5207 9.33925 15.1184 9.45888 15.6756 9.69102C16.2329 9.92316 16.7387 10.2632 17.164 10.6916C17.5892 11.1201 17.9256 11.6284 18.1536 12.1873C18.2553 12.4365 18.3345 12.6937 18.3908 12.9556C18.5067 13.4956 18.9403 13.9515 19.4926 13.9554L20.4675 13.9622Z" fill="white"/>
</svg>
